<svg width="221" height="172" viewBox="0 0 221 172" fill="none" xmlns="http://www.w3.org/2000/svg">
<path opacity="0.4" d="M125.138 103.629C123.145 105.013 115.412 109.197 107.439 110.581C107.439 110.581 110.979 107.877 106.546 106.01C98.1602 106.59 84.5167 107.105 70.1857 107.362C68.2612 107.394 66.3023 107.427 64.3434 107.459C58.7416 107.523 53.1055 107.587 47.7786 107.587H45.098C36.1283 107.555 28.0865 107.394 22.3129 107.073C21.4194 107.008 20.5946 106.976 19.8041 106.912C16.883 106.686 14.821 106.397 13.8243 106.043C4.3735 102.728 -5.73031 88.4703 3.89237 81.937C6.29803 80.3278 14.1336 79.2657 24.753 78.6221C24.7873 78.6221 24.8217 78.6221 24.8217 78.6221C25.8527 78.5577 26.9181 78.4933 28.0178 78.4611C28.9801 78.429 29.9423 78.3646 30.9046 78.3324C31.3514 78.3002 31.7981 78.3002 32.2449 78.268C33.2415 78.2359 34.2725 78.2037 35.3379 78.1715C35.6816 78.1715 35.9909 78.1393 36.3345 78.1393C36.7469 78.1393 37.1593 78.1071 37.6061 78.1071C38.0529 78.1071 38.4653 78.0749 38.912 78.0749C39.7025 78.0428 40.4929 78.0428 41.2833 78.0106C41.6614 78.0106 42.0738 77.9784 42.4862 77.9784C42.8986 77.9784 43.3453 77.9784 43.7577 77.9462C75.7875 77.4634 116.409 79.2336 125.035 81.2611C142.803 85.5416 134.005 97.5461 125.138 103.629Z" fill="url(#paint0_linear_155:1196)"/>
<path opacity="0.4" d="M214.251 67.6152C213.186 68.3233 210.402 68.7416 206.381 68.9348H206.141L205.556 68.9669C201.982 69.1279 197.549 69.1279 192.566 68.9991C191.054 68.9669 189.507 68.9348 187.926 68.8704C186.62 68.8382 185.314 68.7738 183.974 68.7417C183.802 68.7417 183.596 68.7095 183.424 68.7095C181.637 68.6451 179.85 68.5485 177.994 68.452C177.96 68.452 177.96 68.452 177.926 68.452C176.516 68.3876 175.073 68.3233 173.664 68.2267C153.25 67.1324 130.534 65.298 118.884 64.4934C114.45 66.36 115.997 71.2842 115.997 71.2842C109.02 68.806 109.123 61.8864 106.615 61.9186C93.8645 62.0795 92.1118 41.3852 101.735 39.7438C111.151 38.1346 156.893 36.2358 188.545 37.7484C189.782 37.8128 190.985 37.8772 192.188 37.9415C192.325 37.9415 192.497 37.9737 192.634 37.9737C192.806 37.9737 192.978 38.0059 193.116 38.0059C193.184 38.0059 193.287 38.0059 193.356 38.0059C195.281 38.1346 197.171 38.2634 198.958 38.4243C198.992 38.4243 199.061 38.4243 199.095 38.4243C199.714 38.4886 200.298 38.5208 200.882 38.5852C201.501 38.6496 202.085 38.7139 202.67 38.7783C203.013 38.8105 203.357 38.8427 203.666 38.8749C211.845 39.776 217.585 41.1277 219.166 43.0266C222.43 46.8565 218.959 64.4934 214.251 67.6152Z" fill="url(#paint1_linear_155:1196)"/>
<path opacity="0.4" d="M187.892 147.721C187.342 147.818 186.792 147.882 186.242 147.946C186.174 147.946 186.071 147.978 185.968 147.978C185.555 148.011 185.074 148.043 184.49 148.043C183.321 148.075 181.844 148.107 180.125 148.107C179.85 148.107 179.575 148.107 179.3 148.107C175.726 148.107 171.155 148.011 166.104 147.85C145.449 147.174 116.203 145.372 108.677 143.376C107.921 146.466 109.948 150.65 109.948 150.65C105.103 147.914 101.7 144.213 99.3291 140.608C96.511 139.675 91.6653 139.064 89.9126 138.291C83.6235 135.459 83.0393 123.454 89.9813 120.333C96.0299 117.597 138.404 116.857 168.062 118.659C168.303 118.659 168.578 118.691 168.819 118.691C169.197 118.723 169.609 118.756 169.987 118.756C170.468 118.788 170.915 118.82 171.362 118.852C172.118 118.917 172.839 118.949 173.561 119.013C174.42 119.077 175.279 119.142 176.139 119.238C177.548 119.367 178.922 119.496 180.228 119.625C180.263 119.625 180.263 119.625 180.297 119.625C181.534 119.753 182.737 119.882 183.837 120.043C184.112 120.075 184.421 120.107 184.696 120.14C190.882 120.976 195.247 122.006 196.69 123.261C204.182 129.666 201.158 145.275 187.892 147.721Z" fill="url(#paint2_linear_155:1196)"/>
<path d="M191.672 32.6958L198.545 32.2452L197.617 19.9187L193.425 20.2084L191.672 32.6958Z" fill="#DEB88E"/>
<path d="M185.211 14.4796C184.42 19.5969 185.658 24.6498 189.026 25.5509C192.153 26.3877 197.274 23.298 199.301 18.1486C201.466 12.7095 199.92 8.87965 195.28 7.68884C190.366 6.43367 186.07 8.84746 185.211 14.4796Z" fill="#E5C6A8"/>
<path d="M194.008 15.9278C193.355 13.868 191.396 12.9991 189.85 12.5485C188.303 12.0979 185.623 12.2589 185.554 11.1324C185.485 10.006 186.963 6.2083 193.596 6.36922C199.61 6.53014 202.6 10.2635 203.218 14.4474C203.768 18.1163 200.778 21.6243 197.995 20.5623C195.211 19.5324 194.799 18.406 194.008 15.9278Z" fill="#004A62"/>
<path d="M193.974 17.6338C193.63 18.5028 194.008 19.4362 194.799 19.6937C195.589 19.9511 196.483 19.4684 196.826 18.5672C197.17 17.6982 196.792 16.7648 196.002 16.5074C195.211 16.2499 194.318 16.7648 193.974 17.6338Z" fill="#E5C6A8"/>
<path d="M194.971 1.25223C193.493 3.40852 194.078 7.33488 196.896 9.0406C199.748 10.7463 203.769 9.55553 205.247 7.43143C206.725 5.30733 204.766 3.40852 201.913 1.7028C199.095 -0.00291762 196.449 -0.871868 194.971 1.25223Z" fill="#004A62"/>
<path d="M195.383 35.6245L193.527 37.7808L178.165 55.7394L162.563 49.0773L160.948 48.4015L159.436 51.2658L160.982 52.0382L177.787 60.4382C178.715 60.921 179.849 60.6957 180.537 59.9555L180.605 59.8589L197.995 41.321L199.954 39.2291L195.383 35.6245Z" fill="#DEB88E"/>
<path d="M202.016 42.1577C199.541 47.5003 188.166 58.9578 179.987 60.8245C175.141 61.9188 165.381 54.8382 165.381 54.8382L167.099 50.5256C167.099 50.5256 174.763 55.7716 179.162 52.167C183.595 48.5623 191.671 36.8151 195.52 36.3002C198.957 35.8818 203.15 39.7439 202.016 42.1577Z" fill="url(#paint3_linear_155:1196)"/>
<path d="M208.408 66.3602C208.408 67.5832 207.79 68.42 206.381 68.9349H206.14L205.556 68.9671C201.982 69.128 197.549 69.128 192.565 68.9993C191.534 69.2568 190.503 69.5143 189.541 69.6752C187.72 69.643 186.379 69.6108 185.451 69.5786C185.005 69.5464 184.627 69.5143 184.352 69.4821C183.355 69.3533 183.218 69.0959 183.458 68.7097C183.527 68.5809 183.664 68.42 183.802 68.2591C183.974 68.066 184.146 67.8407 184.352 67.6154C184.867 66.9717 185.348 66.328 185.761 65.6844C185.795 65.62 185.829 65.5556 185.898 65.4912C187.582 62.6912 188.166 59.7947 188.235 56.8337C188.304 55.2567 188.201 53.6797 188.098 52.0705C187.926 49.6567 187.685 47.2429 187.685 44.7647C187.685 44.1854 187.685 43.6383 187.72 43.059C187.823 41.321 188.063 39.5509 188.579 37.7808C189.129 35.9463 189.919 34.1118 191.156 32.2451C191.156 32.2451 191.397 32.2451 191.809 32.2451C193.115 32.2129 196.105 32.052 198.511 30.9256C198.958 30.7325 199.37 30.5072 199.748 30.2175C201.088 32.1808 202.463 35.2061 203.735 38.875C206.346 46.5348 208.477 56.9947 208.408 66.3602Z" fill="url(#paint4_linear_155:1196)"/>
<path d="M200.779 63.5278V63.3991L199.129 38.3599L198.957 35.592L192.943 36.0748L193.253 38.8105L195.933 62.1117L179.54 67.8083L177.891 68.3876L178.99 71.413L180.674 70.9302L199.198 65.6842C200.195 65.3945 200.813 64.4934 200.779 63.5278Z" fill="#E5C6A8"/>
<path d="M200.366 65.0405C199.129 66.8428 195.795 68.1302 192.531 68.967C191.5 69.2244 190.469 69.4819 189.506 69.6428C186.826 70.1578 184.729 70.383 184.729 70.383L184.454 69.7716L184.283 69.3853L183.939 68.6451L183.733 68.1624L182.977 66.521L182.771 66.0382C182.771 66.0382 184.111 65.8773 185.829 65.3623C188.682 64.5256 192.531 62.7554 192.874 59.3117C193.012 57.7991 192.909 55.5784 192.737 53.1002C192.599 51.2979 192.427 49.3669 192.256 47.4358C192.015 44.5393 191.843 41.7071 191.981 39.5186C192.015 39.1002 192.049 38.6818 192.118 38.3277C192.153 38.1668 192.187 38.0059 192.187 37.845C192.359 37.0404 192.565 36.3967 192.909 36.0105C195.074 33.4358 201.157 34.4335 202.153 36.9438C202.359 37.4588 202.531 38.0381 202.703 38.6818C204.421 45.3439 204.559 58.9255 200.366 65.0405Z" fill="url(#paint5_linear_155:1196)"/>
<path d="M153.903 45.9875C153.353 46.9852 154.246 49.0129 156.377 50.3646C158.336 51.6198 160.364 51.2979 160.982 50.3002C162.426 48.1117 154.796 44.4105 153.903 45.9875Z" fill="#DEB88E"/>
<path d="M156.652 44.9256C157.065 44.6037 158.405 45.1186 159.711 46.3094C160.914 47.4036 161.257 48.5622 160.879 48.9162C160.055 49.753 156.034 45.4083 156.652 44.9256Z" fill="#DEB88E"/>
<path d="M171.223 71.6702C171.601 72.7323 173.801 73.5047 176.31 73.0219C178.647 72.5714 179.781 70.9622 179.471 69.868C178.75 67.3899 170.639 69.9967 171.223 71.6702Z" fill="#E5C6A8"/>
<path d="M172.323 69.0636C172.357 68.5808 173.698 68.0015 175.519 67.9693C177.203 67.9049 178.337 68.4842 178.337 68.9992C178.406 70.0935 172.254 69.836 172.323 69.0636Z" fill="#E5C6A8"/>
<path d="M38.9802 66.7783L32.21 66.199L33.4128 54.0012L37.5712 54.3874L38.9802 66.7783Z" fill="#DEB88E"/>
<path d="M45.8541 48.8842C46.507 53.9693 45.1667 58.9578 41.8332 59.7625C38.7058 60.5349 33.7226 57.3486 31.8325 52.1992C29.8392 46.76 31.4544 42.9945 36.0596 41.9324C40.9396 40.8059 45.1324 43.2841 45.8541 48.8842Z" fill="#E5C6A8"/>
<path d="M37.3306 50.4612C41.3172 49.8175 40.6642 46.8566 42.2107 46.4061C43.7572 45.9555 45.4755 46.6957 45.5786 45.5693C45.6817 44.475 44.3071 40.6452 37.7086 40.7095C31.7288 40.7417 29.0139 44.1532 28.9108 48.3049C28.8077 52.1991 31.8319 54.9991 33.0348 54.6773C34.8906 54.1302 33.997 51.0083 37.3306 50.4612Z" fill="#004A62"/>
<path d="M36.5406 51.2014C36.8499 52.0704 36.4718 52.9716 35.7158 53.229C34.9253 53.4865 34.0661 52.9716 33.7225 52.1026C33.4132 51.2336 33.7912 50.3325 34.5473 50.075C35.3377 49.8175 36.2313 50.3325 36.5406 51.2014Z" fill="#E5C6A8"/>
<path d="M33.4818 44.5393C33.4818 44.5393 23.6186 40.7738 20.0445 45.1508C16.0923 49.9784 20.5943 54.6128 19.6321 58.8289C18.9447 61.7255 14.1678 63.8174 13.343 68.3232C12.5182 72.8289 14.7176 77.3025 18.3261 77.4312C23.5842 77.6243 25.8868 72.6358 25.8524 68.645C25.8181 64.0427 23.3093 61.9186 24.031 59.7623C24.7871 57.6059 26.3336 57.1876 27.1584 52.6818C28.0175 48.2083 25.715 44.7324 33.4818 44.5393Z" fill="#004A62"/>
<path d="M62.0056 100.443C59.2563 98.2543 56.5757 95.9692 53.9294 93.6842C52.6235 92.5256 51.3176 91.367 50.046 90.1762C49.4274 89.5969 48.8088 88.9854 48.1902 88.3739L47.331 87.4727C47.0905 87.1831 46.8155 86.9256 46.575 86.6038C45.5783 85.3808 44.6848 83.9647 43.8256 82.5486C42.9665 81.1004 42.1417 79.6521 41.3512 78.1395C39.7704 75.1464 38.2926 72.0567 36.9179 68.9993L35.7838 66.4568L30.2852 68.7096L31.5567 71.1878C33.172 74.3418 34.8559 77.3992 36.6774 80.4567C37.6053 81.9693 38.5332 83.482 39.5298 84.9624C40.5608 86.4428 41.6262 87.9233 42.8977 89.3716C43.207 89.7256 43.5507 90.0796 43.9287 90.4336L44.9597 91.3669C45.6471 91.9784 46.3344 92.5899 47.0217 93.1692C48.3964 94.3278 49.8054 95.4543 51.2145 96.5485C54.0325 98.737 56.9193 100.861 59.8405 102.985L61.2152 103.983L63.3459 101.505L62.0056 100.443Z" fill="#DEB88E"/>
<path d="M29.1177 70.2865C29.7363 76.1439 35.9223 83.8358 41.1804 90.0795C46.4385 96.3231 55.9581 102.245 57.2296 102.502C58.2263 102.695 60.735 99.638 60.6319 98.8656C60.5632 98.3185 50.8374 91.1737 47.7788 86.4749C44.7202 81.7439 40.8024 68.1623 37.2626 66.5532C34.1353 65.1371 28.8428 67.6474 29.1177 70.2865Z" fill="url(#paint6_linear_155:1196)"/>
<path d="M50.8022 106.268C50.8022 106.268 50.5616 106.912 47.8123 107.587H45.1317C45.2004 107.748 45.2691 107.941 45.3379 108.102C43.0353 108.489 39.7705 108.81 35.131 108.971C27.0204 109.293 23.6869 108.167 22.3466 107.072C21.2468 106.171 21.453 105.302 21.453 105.302C20.5251 97.8035 21.4874 90.4656 23.1714 84.061C23.1714 84.0289 23.2057 83.9967 23.2057 83.9323C23.6869 82.0656 24.2367 80.2955 24.821 78.622C25.3708 77.0128 25.9551 75.5323 26.5049 74.1162V74.084C29.1512 67.6795 31.763 63.5921 31.8318 63.4634C32.0036 63.5921 32.2098 63.753 32.416 63.8496C33.9969 64.8473 35.9214 65.33 37.5366 65.5553C38.0178 65.6197 38.4645 65.6841 38.8769 65.7162C39.9423 65.8128 40.664 65.7806 40.664 65.7806C40.9389 68.2588 41.2826 70.6404 41.6606 72.9898C41.9356 74.6955 42.2105 76.3691 42.5198 78.0105C42.726 79.1691 42.9666 80.2955 43.2071 81.422C43.4133 82.4518 43.6539 83.4495 43.8945 84.4472C43.9288 84.6725 43.9976 84.8656 44.0319 85.0909C44.3412 86.3139 44.6505 87.5369 44.9598 88.7599C45.1317 89.4035 45.3035 90.015 45.4753 90.6587C45.6128 91.1737 45.7846 91.6886 45.9221 92.2035C46.2658 93.3622 46.6094 94.4886 46.9531 95.615C48.1216 99.3162 49.4275 102.856 50.8022 106.268Z" fill="url(#paint7_linear_155:1196)"/>
<path d="M70.5287 108.585C69.7727 109.454 66.8859 109.036 63.9303 107.169C61.2154 105.463 60.2531 103.21 60.9404 102.277C62.4869 100.217 71.7316 107.266 70.5287 108.585Z" fill="#DEB88E"/>
<path d="M67.9856 103.854C68.123 103.371 67.1264 102.438 65.4424 101.795C63.896 101.183 62.6244 101.344 62.4182 101.827C61.9714 102.857 67.745 104.594 67.9856 103.854Z" fill="#DEB88E"/>
<path d="M46.4727 110.87C46.4727 110.87 24.0312 112.447 20.1821 107.491C20.0447 107.33 19.9416 107.105 19.8385 106.879C18.4294 103.5 20.3196 93.6197 23.172 84.0611C23.172 84.0289 23.2064 83.9967 23.2064 83.9323C23.7563 82.13 24.3061 80.3599 24.8904 78.622C25.4059 77.0772 25.9557 75.5645 26.5056 74.1163V74.0841C28.4302 69.0312 30.3891 64.976 31.8325 63.4634L32.4167 63.6887L37.503 65.5875L38.8776 66.1025L39.1526 66.199C39.1526 66.199 39.0838 66.9714 39.0151 68.291C38.9464 69.514 38.8776 71.2519 38.8776 73.2473C38.8433 74.7278 38.8433 76.3691 38.912 78.0749C38.9464 80.1668 39.0838 82.3553 39.29 84.576C39.3244 84.8013 39.3244 84.9944 39.3588 85.2197C39.3931 85.4772 39.3931 85.7347 39.4275 85.9921C39.5306 86.7967 39.5993 87.6013 39.7368 88.3737C39.8055 88.9209 39.9086 89.468 40.0117 89.9829C40.1148 90.5944 40.2523 91.2059 40.3554 91.7852C40.3898 91.914 40.4241 92.0427 40.4241 92.1714C41.8675 98.576 43.8264 104.208 45.098 107.588C45.1667 107.748 45.2355 107.942 45.3042 108.102C46.0259 109.873 46.4727 110.87 46.4727 110.87Z" fill="url(#paint8_linear_155:1196)"/>
<path d="M55.82 82.838L54.1016 83.1598L35.3718 86.7644L37.1589 71.091L37.0558 68.5485L31.454 67.937L31.3166 70.6726L30.3887 89.3391V89.4678C30.3887 89.6609 30.3887 89.8862 30.4574 90.1115C30.7667 91.2379 32.0383 91.9459 33.2411 91.6241L54.8577 86.346L56.5416 85.9276L55.82 82.838Z" fill="#DEB88E"/>
<path d="M62.4181 83.0954C62.6243 84.1897 61.0778 85.8311 58.6034 86.4748C56.3352 87.0863 54.5481 86.153 54.2732 85.0587C53.689 82.5805 62.1088 81.3897 62.4181 83.0954Z" fill="#DEB88E"/>
<path d="M60.219 81.1644C59.9441 80.746 58.5007 80.8426 56.8855 81.5828C55.3734 82.2587 54.686 83.2565 54.8922 83.7071C55.4077 84.7048 60.6314 81.8403 60.219 81.1644Z" fill="#DEB88E"/>
<path d="M34.6846 66.714C39.5646 67.6795 38.293 73.9875 37.9837 76.2725C37.7088 78.5576 35.8187 84.5115 36.884 85.2839C37.9494 86.0563 51.1805 82.6449 51.6617 83.4173C52.1772 84.1575 52.727 87.054 52.3834 87.6977C52.0397 88.3413 34.822 95.6148 30.4575 92.1712C28.3955 90.5298 28.0862 80.0702 28.0174 77.9461C27.9831 75.822 27.3988 65.2658 34.6846 66.714Z" fill="url(#paint9_linear_155:1196)"/>
<path d="M171.087 110.066L178.235 109.164L176.379 96.3552L172.015 96.9024L171.087 110.066Z" fill="#DEB88E"/>
<path d="M163.045 91.4312C162.599 96.8381 164.248 102.02 167.788 102.76C171.121 103.436 176.242 99.8955 177.995 94.3921C179.851 88.599 177.995 84.6726 173.046 83.7393C167.857 82.7416 163.526 85.5094 163.045 91.4312Z" fill="#E5C6A8"/>
<path d="M171.843 82.0012C177.101 81.7438 180.606 85.7668 180.881 90.176C181.156 94.2955 176.826 97.0633 176.826 97.0633C176.826 97.0633 174.695 93.1047 172.084 92.7829C168.441 92.3001 169.54 89.1783 167.856 89.0817C166.104 88.953 162.22 88.1484 161.945 85.8311C164.351 85.5737 165.932 82.2909 171.843 82.0012Z" fill="#004A62"/>
<path d="M172.977 93.5232C172.668 94.4565 173.115 95.3899 173.94 95.6152C174.764 95.8404 175.692 95.2611 175.967 94.3278C176.276 93.3945 175.83 92.4612 175.005 92.2359C174.18 92.0106 173.252 92.5899 172.977 93.5232Z" fill="#E5C6A8"/>
<path d="M173.355 92.5254C173.355 92.5254 173.768 98.2541 172.943 100.571C172.187 102.567 168.063 105.077 165.039 100.925C165.039 100.925 167.547 101.086 167.135 100.153C166.654 99.0587 164.145 99.3484 164.145 99.3484C164.145 99.3484 163.664 99.3806 163.492 98.9944C163.286 98.3829 163.458 97.3208 163.458 97.3208C163.458 97.3208 166.929 97.9967 168.338 97.8357C169.953 97.6426 171.259 96.3875 172.118 92.6863L173.355 92.5254Z" fill="#004A62"/>
<path d="M172.736 111.128L171.739 113.863L163.285 137.068L145.071 135.684L143.249 135.555L142.837 138.87L144.658 139.127L164.728 141.831C165.828 141.992 166.859 141.38 167.272 140.447L167.306 140.318L177.547 115.891L178.681 113.187L172.736 111.128Z" fill="#DEB88E"/>
<path d="M181.054 115.826C180.504 122.006 173.63 137.261 166.07 141.767C161.568 144.438 148.783 140.318 148.783 140.318L148.955 135.426C148.955 135.426 158.578 138.259 161.705 133.238C164.867 128.217 168.716 113.767 172.428 112.029C175.692 110.484 181.328 113.058 181.054 115.826Z" fill="url(#paint10_linear_155:1196)"/>
<path d="M189.37 145.468C189.37 146.369 188.958 147.141 187.892 147.753C187.342 147.849 186.792 147.914 186.243 147.978C186.174 147.978 186.071 148.01 185.968 148.01C185.933 148.171 185.933 148.3 185.899 148.461C185.452 148.557 184.971 148.654 184.456 148.718C183.287 148.879 181.844 148.976 180.125 149.008C179.85 149.008 179.575 149.008 179.301 149.008C179.301 148.718 179.335 148.429 179.335 148.139C175.761 148.139 171.19 148.042 166.138 147.881C160.983 146.658 161.877 144.953 161.877 144.953C162.22 144.18 162.564 143.408 162.839 142.668C162.976 142.314 163.114 141.96 163.251 141.638C165.348 136.263 166.722 130.792 167.822 124.709C168.166 122.778 168.509 120.783 168.819 118.723C168.922 117.95 169.059 117.146 169.162 116.341C169.472 114.185 169.747 111.932 170.056 109.55C170.056 109.55 170.468 109.55 171.156 109.55C172.736 109.486 175.761 109.196 178.098 107.973C178.407 107.813 178.682 107.652 178.957 107.458C178.957 107.458 181.947 112.383 184.765 120.171C187.102 126.865 189.37 135.748 189.37 145.468Z" fill="url(#paint11_linear_155:1196)"/>
<path d="M184.902 137.325C184.696 135.362 184.318 133.528 183.905 131.693C183.458 129.891 182.977 128.089 182.427 126.318C181.362 122.778 180.159 119.335 178.853 115.826L177.822 113.091L171.911 115.247L173.08 117.918C174.523 121.137 175.863 124.516 177.066 127.831C177.685 129.505 178.235 131.178 178.75 132.852C179.231 134.525 179.678 136.199 179.919 137.808C179.987 138.226 180.022 138.581 180.056 138.967L180.125 140.254C180.159 141.123 180.194 141.992 180.194 142.861C180.194 144.631 180.159 146.401 180.09 148.171C179.953 151.744 179.747 155.316 179.472 158.889L179.334 160.594L182.874 160.948L183.115 159.243C183.63 155.638 184.043 152.033 184.421 148.429C184.592 146.626 184.73 144.792 184.833 142.958C184.902 142.024 184.902 141.123 184.936 140.19V138.774C184.97 138.323 184.936 137.808 184.902 137.325Z" fill="#E5C6A8"/>
<path d="M185.968 147.978C185.933 148.139 185.933 148.268 185.899 148.429C185.143 153.063 184.112 156.668 184.112 156.668L183.528 156.604L179.713 156.282L178.716 156.185C178.716 156.185 179.094 152.902 179.301 148.944C179.301 148.654 179.335 148.364 179.335 148.075C179.472 144.502 179.438 140.511 178.82 137.937C178.338 135.973 177.136 133.173 175.83 130.148C175.108 128.507 174.352 126.801 173.665 125.16C172.668 122.81 171.809 120.589 171.396 118.787C171.053 117.403 170.984 116.309 171.293 115.569C171.946 113.895 173.905 112.64 175.864 112.125C176.276 111.996 176.723 111.932 177.136 111.9C178.476 111.771 179.713 112.061 180.4 112.865C181.912 114.668 183.012 117.146 183.906 119.978C185.418 124.902 186.14 130.888 186.689 136.167C186.999 139.868 186.552 144.213 185.968 147.978Z" fill="url(#paint12_linear_155:1196)"/>
<path d="M132.252 136.295C132.184 137.486 134.761 139.095 138.473 139.61C141.909 140.093 144.349 138.999 144.521 137.808C144.899 135.137 132.355 134.461 132.252 136.295Z" fill="#DEB88E"/>
<path d="M137.854 134.3C138.095 133.817 139.607 133.785 141.429 134.396C143.078 134.976 143.937 135.941 143.766 136.424C143.319 137.518 137.476 135.04 137.854 134.3Z" fill="#DEB88E"/>
<path d="M181.122 171.054C182.393 170.99 183.802 168.415 183.905 164.875C184.009 161.624 182.565 159.5 181.294 159.468C178.441 159.435 179.163 171.183 181.122 171.054Z" fill="#E5C6A8"/>
<path d="M178.372 166.097C177.856 165.936 177.616 164.52 178.063 162.783C178.475 161.173 179.403 160.272 179.953 160.369C181.156 160.626 179.162 166.355 178.372 166.097Z" fill="#E5C6A8"/>
<defs>
<linearGradient id="paint0_linear_155:1196" x1="-0.00158794" y1="94.224" x2="135.252" y2="94.224" gradientUnits="userSpaceOnUse">
<stop stop-color="#9DDDEB"/>
<stop offset="1" stop-color="#6AD7E6"/>
</linearGradient>
<linearGradient id="paint1_linear_155:1196" x1="95.5991" y1="54.2405" x2="220.376" y2="54.2405" gradientUnits="userSpaceOnUse">
<stop stop-color="#9DDDEB"/>
<stop offset="1" stop-color="#6AD7E6"/>
</linearGradient>
<linearGradient id="paint2_linear_155:1196" x1="84.982" y1="134.163" x2="200.641" y2="134.163" gradientUnits="userSpaceOnUse">
<stop stop-color="#9DDDEB"/>
<stop offset="1" stop-color="#6AD7E6"/>
</linearGradient>
<linearGradient id="paint3_linear_155:1196" x1="165.38" y1="48.6047" x2="202.185" y2="48.6047" gradientUnits="userSpaceOnUse">
<stop stop-color="#9DDDEB"/>
<stop offset="1" stop-color="#6AD7E6"/>
</linearGradient>
<linearGradient id="paint4_linear_155:1196" x1="183.469" y1="50.0848" x2="208.363" y2="49.8789" gradientUnits="userSpaceOnUse">
<stop stop-color="#A3B9D6"/>
<stop offset="1" stop-color="#C1ABFF"/>
</linearGradient>
<linearGradient id="paint5_linear_155:1196" x1="182.77" y1="52.4439" x2="203.819" y2="52.4439" gradientUnits="userSpaceOnUse">
<stop stop-color="#9DDDEB"/>
<stop offset="1" stop-color="#6AD7E6"/>
</linearGradient>
<linearGradient id="paint6_linear_155:1196" x1="29.1069" y1="84.3351" x2="60.6333" y2="84.3351" gradientUnits="userSpaceOnUse">
<stop stop-color="#61C1D7"/>
<stop offset="1" stop-color="#32A3C7"/>
</linearGradient>
<linearGradient id="paint7_linear_155:1196" x1="21.2261" y1="86.4052" x2="50.7459" y2="86.1544" gradientUnits="userSpaceOnUse">
<stop stop-color="#A3B9D6"/>
<stop offset="1" stop-color="#C1ABFF"/>
</linearGradient>
<linearGradient id="paint8_linear_155:1196" x1="19.3609" y1="87.2957" x2="46.4712" y2="87.2957" gradientUnits="userSpaceOnUse">
<stop stop-color="#61C1D7"/>
<stop offset="1" stop-color="#32A3C7"/>
</linearGradient>
<linearGradient id="paint9_linear_155:1196" x1="27.9927" y1="79.8406" x2="52.489" y2="79.8406" gradientUnits="userSpaceOnUse">
<stop stop-color="#61C1D7"/>
<stop offset="1" stop-color="#32A3C7"/>
</linearGradient>
<linearGradient id="paint10_linear_155:1196" x1="148.783" y1="127.116" x2="181.045" y2="127.116" gradientUnits="userSpaceOnUse">
<stop stop-color="#9DDDEB"/>
<stop offset="1" stop-color="#6AD7E6"/>
</linearGradient>
<linearGradient id="paint11_linear_155:1196" x1="161.817" y1="128.242" x2="189.369" y2="128.242" gradientUnits="userSpaceOnUse">
<stop stop-color="#61C1D7"/>
<stop offset="1" stop-color="#32A3C7"/>
</linearGradient>
<linearGradient id="paint12_linear_155:1196" x1="171.096" y1="134.27" x2="186.782" y2="134.27" gradientUnits="userSpaceOnUse">
<stop stop-color="#9DDDEB"/>
<stop offset="1" stop-color="#6AD7E6"/>
</linearGradient>
</defs>
</svg>
