<svg width="75" height="51" fill="none" xmlns="http://www.w3.org/2000/svg"><path d="M68.9 31.534S51.647 45.851 34.46 42.51C17.273 39.17 6.64 19.432 6.64 19.432S23.893 5.116 41.08 8.456C58.267 11.797 68.9 31.534 68.9 31.534Z" fill="#fff"/><path d="M35.076 39.345c8.807 1.712 17.333-4.027 19.041-12.817 1.71-8.791-4.046-17.305-12.853-19.017-8.808-1.712-17.333 4.026-19.042 12.817-1.709 8.79 4.046 17.305 12.854 19.017Z" fill="url(#a)"/><path d="M36.603 31.486c4.46.867 8.775-2.038 9.64-6.49.866-4.45-2.048-8.76-6.507-9.627-4.46-.867-8.776 2.038-9.64 6.489-.866 4.45 2.048 8.761 6.507 9.628Z" fill="#017495"/><path d="M34.128 44.22c-7.4-1.438-14.77-6.043-21.316-13.337-4.881-5.442-7.586-10.404-7.696-10.614l-.667-1.244 1.084-.903c.181-.154 4.548-3.741 11.112-6.958 8.802-4.312 17.36-5.82 24.76-4.381 7.4 1.438 14.77 6.042 21.316 13.337 4.881 5.442 7.586 10.404 7.697 10.614l.666 1.244L70 32.88c-.18.153-4.548 3.741-11.112 6.958-8.798 4.293-17.36 5.82-24.76 4.381ZM8.918 19.875c2.643 4.308 12.169 18.26 25.875 20.925 13.724 2.668 27.765-6.704 31.829-9.708-2.643-4.309-12.169-18.261-25.875-20.926C27.023 7.5 12.983 16.87 8.918 19.875Z" fill="url(#b)"/><defs><linearGradient id="a" x1="22.224" y1="20.336" x2="54.116" y2="26.535" gradientUnits="userSpaceOnUse"><stop stop-color="#86E6FB"/><stop offset="1" stop-color="#00D8E4"/></linearGradient><linearGradient id="b" x1="4.444" y1="19.01" x2="71.098" y2="31.966" gradientUnits="userSpaceOnUse"><stop stop-color="#01BDC8"/><stop offset="1" stop-color="#017596"/></linearGradient></defs></svg>