<svg width="231" height="155" fill="none" xmlns="http://www.w3.org/2000/svg"><g clip-path="url(#a)"><path opacity=".39" d="M112.443 154.554c44.713 0 80.961-3.594 80.961-8.028 0-4.434-36.248-8.028-80.961-8.028s-80.96 3.594-80.96 8.028c0 4.434 36.247 8.028 80.96 8.028Z" fill="url(#b)"/><path opacity=".4" d="M107.627 95.065s12.782-41.14 29.391-64.515C153.652 7.198 171.536.122 171.536.122s-8.408 10.444-13.641 24.523c-5.258 14.103-6.482 29.159-14.76 42.799-12.547 20.642-35.508 27.621-35.508 27.621Z" fill="url(#c)"/><path opacity=".4" d="M147.118 9.858s-10.725 8.955-16.062 19.984c-5.336 11.005-4.972 24.913-9.658 32.697 0 0 9.112-6.954 12.079-13.347 2.994-6.393 2.031-14.128 3.437-20.058 1.223-5.124 5.206-12.541 10.204-19.276Z" fill="url(#d)"/><path opacity=".4" d="M66.262 125.444S57.567 86.037 45.931 63.1C34.32 40.163 21.643 32.453 21.643 32.453s5.883 10.297 9.475 23.84c3.593 13.566 4.348 27.792 10.127 41.09 8.72 20.131 25.017 28.061 25.017 28.061Z" fill="url(#e)"/><path opacity=".4" d="M60.144 116.391s-10.49-24.425-20.826-37.894c-10.335-13.47-19.446-17.056-19.446-17.056s5.05 5.978 9.06 14.323c4.008 8.32 6.247 17.398 11.61 25.352 8.148 11.957 19.602 15.275 19.602 15.275Z" fill="url(#f)"/><path opacity=".4" d="M179.45 140.231c2.552.658 7.446 1.244 10.023-.318 2.369-1.439 1.588-4.831 3.514-6.368 1.953-1.537 8.799-.342 11.507-1.928 3.228-1.879-.365-6.076 2.629-7.076 2.994-1 11.168-.073 12.834-2.098 1.666-2.026-1.25-3.197 3.202-6.345 3.774-2.659 8.799-6.124 7.107-9.223-1.797-3.294-6.951-1.074-10.075 1.049-4.035 2.733-4.504-2.196-7.914-1.586-3.098.561-6.924 9.199-9.502 10.102-2.603.927-5.414-1.83-9.293.049-3.879 1.879-2.525 7.979-4.842 9.638-2.317 1.659-5.545-.756-8.877 1.586-3.332 2.367-.313 12.518-.313 12.518Z" fill="url(#g)"/><path d="M166.121 38.187H58.79c-5.831 0-10.57 4.44-10.57 9.907v67.053c0 5.465 4.739 9.906 10.57 9.906H91.98l20.488 20.155 20.487-20.155h33.191c5.832 0 10.57-4.441 10.57-9.906V48.094c-.026-5.466-4.764-9.907-10.596-9.907Z" fill="url(#h)"/><path d="M129.647 60.591c-.142-.053-.283-.106-.453-.16-6.773-2.204-14.057 2.577-16.777 9.032-2.692-6.455-10.004-11.236-16.777-9.031-.141.053-.283.106-.453.16-8.219 2.974-11.11 13.174-5.923 20.187 5.781 7.783 23.125 21.781 23.125 21.781s17.343-13.998 23.124-21.781c5.271-7.013 2.381-17.213-5.866-20.188Z" fill="#fff"/><path d="M178.773 124.541c-7.966-.049-11.844 8.54-17.103 11.883-4.738 3.001-19.316 6.222-18.769 12.396.546 6.173 30.614 8.735 39.907 1.561 9.294-7.174 5.545-25.767-4.035-25.84Z" fill="url(#i)"/><path d="m163.284 122.101 6.43-.586c1.718-3.562 2.265-6.271 1.692-9.004-.599-2.928-4.556-3.953-7.393-1.634-2.656 2.22-1.823 9.711-.729 11.224Z" fill="#004A62"/><path d="m166.563 123.589 3.593-.317-.651-6.466-2.213.195-.729 6.588Z" fill="#E0BA90"/><path d="M162.893 114.097c-.338 2.709.391 5.344 2.161 5.783 1.666.391 4.295-1.293 5.31-4.026 1.068-2.879.183-4.904-2.264-5.441-2.604-.61-4.842.708-5.207 3.684Z" fill="#E7C8AA"/><path d="M167.215 109.73c.833-.074 1.38-.049 2.135.219 1.171.439 2.785 1.611 3.384 4.539.547 2.733-.495 4.197 2.291 6.564l-6.43.585c-1.016-1.391.156-4.856.364-5.441-.234-.537-.52-1.123-1.51-1.293-2.108-.342-4.009-2.026-4.061-2.611-.104-.586 1.614-2.367 3.827-2.562Z" fill="#004A62"/><path d="M167.84 115.317c-.157.464.026.952.442 1.074.417.122.885-.146 1.041-.61.157-.464-.026-.952-.442-1.074-.391-.122-.885.147-1.041.61Z" fill="#E7C8AA"/><path d="m141.703 126.737.209.146 15.463 10.615 2.733 1.878-4.633 5.149-2.421-2.196-11.793-10.663-7.029 14.738-.338.707-1.432-.512.234-.732 5.962-18.179c.052-.195.156-.39.286-.561.651-.805 1.874-.976 2.759-.39Z" fill="#E0BA90"/><path d="m140.245 128.494.208.122 18.431 9.931 2.916 1.586-3.931 5.588-2.707-1.904-15.646-11.004-13.849 13.762-.573.561-1.171-.927.494-.61 13.277-16.593c.625-.756 1.718-.976 2.551-.512Z" fill="#E0BA90"/><path d="M156.906 134.74c-4.451.854-13.224-9.711-16.687-9.296-4.633.561-7.549 17.592-7.549 17.592l4.087 1.196s3.592-10.541 4.295-10.858c.885-.415 9.971 11.663 15.438 12.249 4.269.464 7.184-4.197 7.184-4.197l-6.768-6.686Z" fill="url(#j)"/><path d="M159.197 135.936c-4.66 2.123-16.453-9.419-20.957-7.906-3.644 1.196-13.042 14.494-13.042 14.494l3.489 2.636s9.293-10.298 10.595-10.468c.963-.122 13.615 11.98 19.108 12.395 4.711.366 7.471-5.856 7.471-5.856l-6.664-5.295Z" fill="url(#k)"/><path d="m166.018 124.077-9.007 10.663 1.561-.317-9.579-4.026-.886-.366-.833 1.586.859.415 9.294 4.587a1.286 1.286 0 0 0 1.51-.268l.052-.049 9.528-10.248 1.067-1.147-2.551-2.001-1.015 1.171Z" fill="#E0BA90"/><path d="M170.235 126.566c-1.406 2.928-7.784 9.15-12.313 10.126-2.682.562-7.992-3.416-7.992-3.416l.989-2.367s4.165 2.953 6.638 1.001 7.029-8.345 9.164-8.614c1.874-.219 4.139 1.953 3.514 3.27Z" fill="url(#l)"/><path d="M169.896 123.492s-2.577.537-3.774-1.318c0 0-4.113 5.661-6.326 7.686-2.213 2.026-8.278 7.247-8.278 7.247l12.677 6.54c3.567-5.246 5.025-12.591 5.701-20.155Z" fill="#96D1F1"/><path d="M170.677 123.199s1.067 11.615-5.493 20.033c0 0-.521 2.049-7.263-1.733s-6.612-4.88-6.612-4.88c5.024-3.733 9.944-8.369 14.682-14.567.026 0 2.551 1.415 4.686 1.147Z" fill="url(#m)"/><path d="m165.002 125.81-8.356 11.395 1.536-.415-9.997-3.465-.911-.317-.703 1.635.885.366 9.763 4.026c.546.22 1.145.049 1.483-.366l.052-.049 8.878-11.029.989-1.22-2.708-1.83-.911 1.269Z" fill="#E7C8AA"/><path d="M169.427 128.03c-1.223 3.075-6.95 9.858-11.48 11.127-2.681.756-8.591-3.001-8.591-3.001l.833-2.465s4.452 2.709 6.795.586 6.794-9.346 8.929-9.736c1.9-.342 4.061 2.123 3.514 3.489Z" fill="url(#n)"/><path d="M144.228 128.714c-.313.561.208 1.659 1.379 2.415 1.094.683 2.187.488 2.552-.049.755-1.22-3.463-3.221-3.931-2.366Z" fill="#E0BA90"/><path d="M145.738 128.128c.234-.171.963.097 1.692.756.677.61.859 1.245.651 1.44-.468.439-2.681-1.928-2.343-2.196Z" fill="#E0BA90"/><path d="m125.824 146.575 1.432-.22 5.258-1.854v.049s.052.854 1.145 1c.807.122 1.328-.073 1.536-.171.052-.049.105-.073.131-.073.338 0 .624.537.624 1.196 0 .219-.026.414-.104.585v.927l-10.439-.097v-.927c0-.22.182-.391.417-.415Z" fill="#F1F1F1"/><path d="m117.285 147.087 1.431-.22 5.259-1.854v.049s.052.854 1.145 1c.807.122 1.328-.073 1.536-.171.052-.048.104-.073.13-.073.339 0 .625.537.625 1.196 0 .219-.026.415-.104.585v.928l-10.439-.098v-.927c.026-.22.182-.415.417-.415Z" fill="#fff"/><path d="m137.277 124.98 5.337-1.854h.026l.469.073c.026 0 .052.024.052.049l2.004 5.368c0 .024.026.024.026.024l4.842 1.806-.052.317c0 .025-.026.049-.026.049l-5.493 2.245h-.052l-4.842-1.806-.26-.097c-.026 0-.026-.025-.052-.049l-.052-.342-2.005-5.71.078-.073Z" fill="url(#o)"/><path d="m138.059 125.127 4.789-1.635c.105-.049.261 0 .287.122l1.848 4.929-5.337 2.196-1.822-5.173c-.026-.171.052-.366.235-.439Z" fill="#fff"/><path d="m139.568 130.958 5.623-2.318 4.868 1.806-5.597 2.318-4.894-1.806Z" fill="url(#p)"/><path d="m140.583 130.861 4.478-1.855 2.29.806-4.477 1.878-2.291-.829Z" fill="url(#q)"/><path d="m144.618 131.227 1.901-.806.989.342-1.927.805-.963-.341Z" fill="url(#r)"/><path d="M143.265 132.154c-.26.586.365 1.635 1.614 2.269 1.146.586 2.239.293 2.525-.268.651-1.269-3.748-2.904-4.139-2.001Z" fill="#E7C8AA"/><path d="M144.697 131.446c.208-.195.963.025 1.77.61.729.537.99 1.172.807 1.391-.416.464-2.889-1.708-2.577-2.001Z" fill="#E7C8AA"/><path d="M38.016 92.161h-3.514v-6.295h2.16l1.354 6.295Z" fill="#E0BA90"/><path d="M40.62 82.67c.598 2.586.156 5.197-1.51 5.758-1.562.537-4.27-.879-5.52-3.44-1.3-2.685-.676-4.71 1.64-5.466 2.474-.781 4.739.317 5.39 3.147Z" fill="#E7C8AA"/><path d="M35.726 78.643c-2.552.195-3.957 2.367-3.801 4.514.156 2.001 2.447 3.075 2.447 3.075s.755-2.025 2.004-2.367c1.718-.464.99-1.903 1.797-2.05.833-.17 2.655-.78 2.629-1.927-1.224.024-2.213-1.464-5.076-1.245Z" fill="#004A62"/><path d="M35.986 84.28c.208.44.052.927-.313 1.073-.39.171-.859-.048-1.067-.487-.208-.44-.052-.928.312-1.074.365-.17.86.049 1.068.488Z" fill="#E7C8AA"/><path d="M35.726 83.816s.182 2.806.755 3.855c.494.928 2.655 1.88 3.852-.317 0 0-1.197.244-1.067-.244.156-.561 1.38-.561 1.38-.561s.234 0 .286-.22c.052-.317-.104-.805-.104-.805s-1.614.537-2.317.537c-.807 0-1.51-.537-2.187-2.27h-.598v.025Z" fill="#004A62"/><path d="m45.983 145.476-3.228-16.934-2.187-8.345-2.213-8.369-.755-2.855-6.326 1.903 1.146 2.733 3.332 7.93c1.12 2.66 2.239 5.295 3.332 7.955l5.44 16.3.235.683 1.38-.317-.156-.684Z" fill="#E0BA90"/><path d="m34.32 109.046-.26 2.928-1.432 16.544-13.355 5.856-.676.293.494 1.22.73-.195 15.306-4.343c.573-.171 1.015-.61 1.146-1.172l.052-.244 3.879-17.129.65-2.855-6.534-.903Z" fill="#E0BA90"/><path d="m30.337 107.241 11.845 2.147 3.696 33.185-3.957.512-11.584-35.844Z" fill="url(#s)"/><path d="m29.764 109.461 11.949-1.561s-1.822 20.789-5.415 23.424c-1.978 1.464-13.042 3.953-13.042 3.953l-1.197-3.172s8.33-3.148 9.007-4.124c.78-1.098-1.302-18.52-1.302-18.52Z" fill="url(#t)"/><path d="m38.277 93.332 7.836 10.493-1.432-.366 9.241-3.294.833-.293.677 1.513-.807.341-9.007 3.807a1.17 1.17 0 0 1-1.38-.318l-.026-.048-8.33-10.151-.911-1.122 2.473-1.709.833 1.147Z" fill="#E0BA90"/><path d="M34.19 95.43c1.145 2.831 6.585 9.102 10.777 10.249 2.499.683 7.887-2.879 7.887-2.879l-.78-2.269s-4.088 2.537-6.3.585c-2.213-1.952-6.092-8.223-8.096-8.564-1.745-.318-4.01 1.61-3.489 2.879Z" fill="url(#u)"/><path d="M34.763 90.844s1.848 1.512 3.696.512c0 0 .625 6.32 1.458 8.882.833 2.586 3.254 9.345 3.254 9.345H29.764c-.39-5.783 1.953-12.322 4.999-18.74Z" fill="#D3C4AE"/><path d="M34.112 90.307s-6.404 8.98-5.103 18.569c0 0-.546 1.878 6.717 1.634 7.263-.268 7.68-1.195 7.68-1.195-2.291-5.149-4.088-10.956-4.973-17.96 0-.023-2.707.074-4.321-1.048Z" fill="url(#v)"/><path d="M36.194 94.772a80.29 80.29 0 0 0-2.603 4.563 31.859 31.859 0 0 0-1.145 2.318 18.485 18.485 0 0 0-.912 2.318c-.052.195-.104.366-.156.561l-.13.61c-.078.415-.156.83-.208 1.269-.13.854-.235 1.708-.313 2.587a117.468 117.468 0 0 0-.416 5.221l-.052.83-1.744-.049v-.829c0-1.782.026-3.539.104-5.32l.156-2.66c.026-.439.078-.902.13-1.342l.104-.683c.052-.244.078-.488.157-.732.234-.951.546-1.805.885-2.659a73.65 73.65 0 0 1 1.067-2.514 71.323 71.323 0 0 1 2.447-4.855l.677-1.27 2.707 1.392-.755 1.244Z" fill="#E7C8AA"/><path d="M33.044 91.893c-2.317 2.123-3.644 6.905-4.634 10.907-.989 3.977-.182 10.053-.182 10.053l2.655.097s.157-6.173 1.198-8.833c1.041-2.659 5.623-8.515 5.18-10.37-.39-1.61-3.175-2.806-4.217-1.854Z" fill="url(#w)"/><path d="M58.79 99.237c.209.537-.494 1.538-1.796 2.123-1.197.537-2.265.244-2.5-.292-.546-1.196 3.984-2.66 4.296-1.83Z" fill="#E0BA90"/><path d="M29.348 119.953c-.625-.048-1.276-1.317-1.328-3.025-.026-1.586.677-2.611 1.302-2.636 1.406.025.99 5.735.026 5.661Z" fill="#E7C8AA"/><path d="M30.727 117.562c.26-.073.39-.756.183-1.61-.183-.781-.625-1.245-.912-1.171-.598.097.339 2.903.73 2.781Z" fill="#E7C8AA"/><path d="M51.293 147.331s-.911-.219-1.172-.317c-1.015-.342-3.618-1.342-3.618-1.342s-.312.488-1.12.585c-.598.074-1.04-.122-1.04-.122-.261 0-.47.391-.495.879 0 .171 0 .317.052.439l-.026.683 7.705.22.026-.683c-.026-.195-.156-.317-.312-.342ZM19.585 140.938s-.026-.878-.026-1.147c.053-1 .313-3.636.313-3.636s-.599-.146-.911-.854c-.234-.512-.156-.976-.182-.976-.079-.244-.521-.317-1.042-.195a2.364 2.364 0 0 0-.442.171l-.703.171 2.03 6.978.703-.17a.29.29 0 0 0 .26-.342ZM55.46 102.009l.505.197 2.348-5.295-.505-.197-2.348 5.295Z" fill="#004A62"/><path d="M57.098 98.603c-.182-.195-.911-.024-1.666.488-.703.488-.963 1.049-.807 1.244.39.464 2.76-1.44 2.473-1.732Z" fill="#E0BA90"/><path d="M194.471 71.543c0-.976.703-1.66 1.692-1.66s1.666.684 1.666 1.66c0 .951-.651 1.659-1.692 1.659-.989 0-1.666-.708-1.666-1.66Z" fill="url(#x)"/><path d="M200.276 71.543c0-.976.703-1.66 1.692-1.66.99 0 1.667.684 1.667 1.66 0 .951-.651 1.659-1.693 1.659-.989 0-1.666-.708-1.666-1.66Z" fill="url(#y)"/><path d="M206.081 71.543c0-.976.703-1.66 1.692-1.66s1.666.684 1.666 1.66c0 .951-.651 1.659-1.692 1.659-.989 0-1.666-.708-1.666-1.66Z" fill="url(#z)"/></g><defs><linearGradient id="b" x1="31.48" y1="146.526" x2="193.314" y2="146.526" gradientUnits="userSpaceOnUse"><stop stop-color="#9DDDEB"/><stop offset="1" stop-color="#6AD7E6"/></linearGradient><linearGradient id="c" x1="107.626" y1="47.596" x2="171.501" y2="47.596" gradientUnits="userSpaceOnUse"><stop stop-color="#9DDDEB"/><stop offset="1" stop-color="#6AD7E6"/></linearGradient><linearGradient id="d" x1="121.398" y1="36.2" x2="147.104" y2="36.2" gradientUnits="userSpaceOnUse"><stop stop-color="#9DDDEB"/><stop offset="1" stop-color="#6AD7E6"/></linearGradient><linearGradient id="e" x1="21.642" y1="78.95" x2="66.237" y2="78.95" gradientUnits="userSpaceOnUse"><stop stop-color="#9DDDEB"/><stop offset="1" stop-color="#6AD7E6"/></linearGradient><linearGradient id="f" x1="19.872" y1="88.917" x2="60.122" y2="88.917" gradientUnits="userSpaceOnUse"><stop stop-color="#9DDDEB"/><stop offset="1" stop-color="#6AD7E6"/></linearGradient><linearGradient id="g" x1="178.196" y1="123.054" x2="230.574" y2="123.054" gradientUnits="userSpaceOnUse"><stop stop-color="#9DDDEB"/><stop offset="1" stop-color="#6AD7E6"/></linearGradient><linearGradient id="h" x1="48.219" y1="91.7" x2="176.645" y2="91.7" gradientUnits="userSpaceOnUse"><stop stop-color="#B5F2FF"/><stop offset="1" stop-color="#71DBE9"/></linearGradient><linearGradient id="i" x1="142.885" y1="139.632" x2="188.137" y2="139.632" gradientUnits="userSpaceOnUse"><stop stop-color="#9DDDEB"/><stop offset="1" stop-color="#6AD7E6"/></linearGradient><linearGradient id="j" x1="132.694" y1="135.773" x2="163.67" y2="135.621" gradientUnits="userSpaceOnUse"><stop stop-color="#00BFC9"/><stop offset="1" stop-color="#016F92"/></linearGradient><linearGradient id="k" x1="125.229" y1="137.716" x2="165.854" y2="137.441" gradientUnits="userSpaceOnUse"><stop stop-color="#00BFC9"/><stop offset="1" stop-color="#016F92"/></linearGradient><linearGradient id="l" x1="149.929" y1="130.014" x2="170.33" y2="130.014" gradientUnits="userSpaceOnUse"><stop stop-color="#9DDDEB"/><stop offset="1" stop-color="#6AD7E6"/></linearGradient><linearGradient id="m" x1="151.323" y1="133.165" x2="170.739" y2="133.11" gradientUnits="userSpaceOnUse"><stop stop-color="#00BFC9"/><stop offset="1" stop-color="#016F92"/></linearGradient><linearGradient id="n" x1="149.356" y1="131.883" x2="169.502" y2="131.883" gradientUnits="userSpaceOnUse"><stop stop-color="#9DDDEB"/><stop offset="1" stop-color="#6AD7E6"/></linearGradient><linearGradient id="o" x1="150.094" y1="128.176" x2="137.197" y2="128.026" gradientUnits="userSpaceOnUse"><stop stop-color="#EEBFC0"/><stop offset="1" stop-color="#E5938D"/></linearGradient><linearGradient id="p" x1="149.127" y1="128.689" x2="140.744" y2="133.144" gradientUnits="userSpaceOnUse"><stop stop-color="#F6E0E2"/><stop offset="1" stop-color="#EEBFC0"/></linearGradient><linearGradient id="q" x1="146.908" y1="128.972" x2="141.194" y2="132.009" gradientUnits="userSpaceOnUse"><stop stop-color="#EEBFC0"/><stop offset="1" stop-color="#E5938D"/></linearGradient><linearGradient id="r" x1="147.309" y1="130.408" x2="144.875" y2="131.702" gradientUnits="userSpaceOnUse"><stop stop-color="#EEBFC0"/><stop offset="1" stop-color="#E5938D"/></linearGradient><linearGradient id="s" x1="30.337" y1="125.17" x2="45.877" y2="125.17" gradientUnits="userSpaceOnUse"><stop stop-color="#61C1D7"/><stop offset="1" stop-color="#32A3C7"/></linearGradient><linearGradient id="t" x1="22.058" y1="121.589" x2="41.702" y2="121.589" gradientUnits="userSpaceOnUse"><stop stop-color="#9DDDEB"/><stop offset="1" stop-color="#6AD7E6"/></linearGradient><linearGradient id="u" x1="34.128" y1="99.292" x2="52.852" y2="99.207" gradientUnits="userSpaceOnUse"><stop stop-color="#00BFC9"/><stop offset="1" stop-color="#016F92"/></linearGradient><linearGradient id="v" x1="28.846" y1="100.649" x2="43.404" y2="100.615" gradientUnits="userSpaceOnUse"><stop stop-color="#00BFC9"/><stop offset="1" stop-color="#016F92"/></linearGradient><linearGradient id="w" x1="27.925" y1="102.495" x2="37.29" y2="102.482" gradientUnits="userSpaceOnUse"><stop stop-color="#00BFC9"/><stop offset="1" stop-color="#016F92"/></linearGradient><linearGradient id="x" x1="194.471" y1="71.543" x2="197.827" y2="71.543" gradientUnits="userSpaceOnUse"><stop stop-color="#fff"/><stop offset="1" stop-color="#E1FBFF"/></linearGradient><linearGradient id="y" x1="200.276" y1="71.543" x2="203.633" y2="71.543" gradientUnits="userSpaceOnUse"><stop stop-color="#fff"/><stop offset="1" stop-color="#E1FBFF"/></linearGradient><linearGradient id="z" x1="206.081" y1="71.543" x2="209.437" y2="71.543" gradientUnits="userSpaceOnUse"><stop stop-color="#fff"/><stop offset="1" stop-color="#E1FBFF"/></linearGradient><clipPath id="a"><path fill="#fff" transform="translate(.79)" d="M0 0h229.84v154.725H0z"/></clipPath></defs></svg>