<svg width="64" height="62" fill="none" xmlns="http://www.w3.org/2000/svg"><ellipse cx="31.747" cy="30.547" rx="31.747" ry="30.547" fill="#fff"/><path fill-rule="evenodd" clip-rule="evenodd" d="m38.504 13.649-.156-.04c-.848-.219-1.38-1.04-1.211-1.868l.338-1.66c.089-.438.365-.823.757-1.06a1.738 1.738 0 0 1 1.321-.189l.39.1c.446.116.827.408 1.045.8.217.393.256.86.106 1.281l-.57 1.601c-.237.664-.889 1.09-1.589 1.09a1.72 1.72 0 0 1-.43-.055Zm.125-3.351-.338 1.66a.482.482 0 0 0 .361.558l.157.04a.505.505 0 0 0 .602-.309l.57-1.6a.46.46 0 0 0-.031-.383.492.492 0 0 0-.312-.238l-.39-.1a.521.521 0 0 0-.393.056.476.476 0 0 0-.226.316Zm5.444 6.303c-.431 0-.861-.158-1.186-.47l-.115-.111a1.573 1.573 0 0 1-.078-2.2l1.156-1.276a1.71 1.71 0 0 1 1.206-.552c.464-.014.915.157 1.242.472l.285.274c.327.315.506.75.49 1.195a1.595 1.595 0 0 1-.574 1.16l-1.326 1.113a1.709 1.709 0 0 1-1.1.395Zm.663-3.313-1.155 1.276a.47.47 0 0 0 .023.656l.114.11a.516.516 0 0 0 .682.023l1.326-1.113a.47.47 0 0 0 .025-.702l-.284-.274a.504.504 0 0 0-.353-.141H45.096a.503.503 0 0 0-.36.165Zm-3.67 10.721h-.757a8.19 8.19 0 0 0-.046-.236 2.56 2.56 0 0 0-.938-1.492c.47-.365.809-.885.938-1.493a7.429 7.429 0 0 0 0-3.116c-.251-1.182-1.297-2.028-2.544-2.059a449.23 449.23 0 0 0-17.69-.073.576.576 0 0 0-.579.575c.005.313.27.562.598.557 5.859-.092 11.795-.067 17.642.073.696.017 1.28.491 1.421 1.154a6.348 6.348 0 0 1 0 2.662 1.472 1.472 0 0 1-1.418 1.154H16.31a1.474 1.474 0 0 1-1.42-1.154 6.368 6.368 0 0 1 0-2.662 1.474 1.474 0 0 1 1.422-1.154l1.311-.03h.066l.016-.001a.576.576 0 0 0 .575-.578.577.577 0 0 0-.6-.554h-.017l-1.38.031c-1.246.03-2.292.877-2.545 2.059a7.453 7.453 0 0 0 0 3.116c.13.608.47 1.128.94 1.492-.47.365-.81.885-.94 1.493a7.454 7.454 0 0 0 0 3.117c.13.607.47 1.127.94 1.492-.47.365-.81.884-.94 1.492a7.454 7.454 0 0 0 0 3.117c.13.608.47 1.127.94 1.492-.47.365-.81.885-.94 1.493a7.449 7.449 0 0 0 0 3.116c.13.608.47 1.127.94 1.492-.47.365-.81.884-.94 1.493a7.445 7.445 0 0 0 0 3.116c.253 1.182 1.299 2.029 2.545 2.059a448.943 448.943 0 0 0 19.15.048c.076-.002.133-.065.17-.16.826.17 1.681.261 2.558.261h2.906c6.702 0 12.155-5.247 12.155-11.696S47.769 24.01 41.067 24.01ZM14.89 24a1.474 1.474 0 0 1 1.42-1.154h21.383A1.472 1.472 0 0 1 39.11 24l.002.01h-.952c-3.546 0-6.741 1.469-8.965 3.807H16.309a1.474 1.474 0 0 1-1.419-1.153 6.368 6.368 0 0 1 0-2.663Zm0 6.102a1.474 1.474 0 0 1 1.42-1.154h11.935a11.394 11.394 0 0 0-2.097 4.97h-9.839a1.474 1.474 0 0 1-1.419-1.154 6.368 6.368 0 0 1 0-2.662Zm0 6.101a1.474 1.474 0 0 1 1.42-1.154h9.716a11.25 11.25 0 0 0 .837 4.97H16.31a1.474 1.474 0 0 1-1.42-1.154 6.364 6.364 0 0 1 0-2.662Zm1.422 9.917a1.474 1.474 0 0 1-1.422-1.154 6.36 6.36 0 0 1 0-2.662 1.472 1.472 0 0 1 1.419-1.154h11.097c1.201 2.188 3.102 3.966 5.413 5.06-5.497.07-11.037.041-16.507-.09Zm10.87-10.415c0-4.75 3.275-8.777 7.766-10.102-3.608 2.03-6.036 5.798-6.036 10.102s2.428 8.072 6.036 10.103c-4.491-1.325-7.766-5.353-7.766-10.103ZM41.067 46.27c-6.054 0-10.98-4.74-10.98-10.565 0-5.825 4.926-10.564 10.98-10.564s10.979 4.739 10.979 10.564-4.925 10.565-10.98 10.565Zm0-19.32c-5.018 0-9.1 3.928-9.1 8.755 0 4.828 4.082 8.756 9.1 8.756 1.78 0 3.503-.495 4.983-1.43a.553.553 0 0 0 .17-.783.602.602 0 0 0-.815-.163 8.109 8.109 0 0 1-4.338 1.244c-4.37 0-7.924-3.42-7.924-7.624 0-4.203 3.555-7.623 7.924-7.623s7.923 3.42 7.923 7.623c0 1.843-.692 3.621-1.95 5.007a.551.551 0 0 0 .057.798.604.604 0 0 0 .83-.054 8.555 8.555 0 0 0 2.24-5.75c0-4.828-4.083-8.756-9.1-8.756Zm4.284-6.713.042.15c.199.715.877 1.196 1.62 1.196.106 0 .213-.01.32-.03l1.727-.325a1.683 1.683 0 0 0 1.1-.73c.245-.377.317-.84.197-1.27l-.105-.375a1.631 1.631 0 0 0-.83-1.006 1.742 1.742 0 0 0-1.332-.102l-1.664.55c-.83.273-1.302 1.126-1.075 1.942Zm1.457-.872 1.664-.55a.513.513 0 0 1 .397.031.48.48 0 0 1 .248.3l.104.375a.46.46 0 0 1-.059.379.495.495 0 0 1-.328.217l-1.726.325a.502.502 0 0 1-.58-.347l-.041-.15a.48.48 0 0 1 .32-.58Z" fill="url(#a)"/><defs><linearGradient id="a" x1="13.604" y1="28.527" x2="53.217" y2="28.397" gradientUnits="userSpaceOnUse"><stop stop-color="#00BFC9"/><stop offset="1" stop-color="#016F92"/></linearGradient></defs></svg>