<svg width="225" height="128" fill="none" xmlns="http://www.w3.org/2000/svg"><path d="M192.136 0H32.864C26.229 0 20.84 5.2 20.84 11.601v103.78c0 6.402 5.389 11.601 12.024 11.601h159.272c6.635 0 12.024-5.199 12.024-11.601V11.601C204.191 5.2 198.802 0 192.136 0Z" fill="url(#a)"/><path d="M196.84 16.56v94.764c0 .841-.094 1.653-.28 2.434-1.153 4.689-5.545 8.175-10.778 8.175H39.25c-6.106 0-11.059-4.749-11.059-10.609V16.56c0-5.86 4.953-10.61 11.059-10.61h146.532c6.105 0 11.058 4.75 11.058 10.61Z" fill="#fff"/><path d="M196.84 96.657v14.667c0 .841-.094 1.653-.281 2.434-2.024 1.653-4.672 2.645-7.538 2.645-6.479 0-11.744-5.079-11.744-11.331 0-6.251 5.265-11.33 11.744-11.33 2.991.03 5.732 1.111 7.819 2.915Z" fill="url(#b)"/><path d="M0 111.805v3.576c0 6.402 6.604 11.601 14.765 11.601h195.469c8.162 0 14.766-5.199 14.766-11.601v-3.576H0Z" fill="url(#c)"/><path opacity=".4" d="M192.23 50.823h-69.622v2.495h69.622v-2.495Z" fill="url(#d)"/><path opacity=".4" d="M192.23 57.405h-69.622V59.9h69.622v-2.495Z" fill="url(#e)"/><path opacity=".4" d="M192.23 63.957h-69.622v2.495h69.622v-2.495Z" fill="url(#f)"/><path opacity=".4" d="M192.23 70.51h-69.622v2.494h69.622v-2.495Z" fill="url(#g)"/><path opacity=".4" d="M192.23 77.061h-69.622v2.495h69.622V77.06Z" fill="url(#h)"/><path opacity=".6" d="M154.506 32.79h-20.341v2.314h20.341V32.79Z" fill="url(#i)"/><path opacity=".6" d="M154.506 37.478h-20.341v2.315h20.341v-2.315Z" fill="url(#j)"/><path opacity=".5" d="M193.445 32.79h-20.341v2.314h20.341V32.79Z" fill="url(#k)"/><path opacity=".5" d="M193.445 37.478h-20.341v2.315h20.341v-2.315Z" fill="url(#l)"/><path d="M169.084 31.979h-8.192c-.436 0-.81.36-.81.78v5.26c0 .421.374.782.81.782h2.523l1.558 1.593 1.557-1.593h2.523c.436 0 .81-.36.81-.781v-5.26c.031-.42-.342-.781-.779-.781Z" fill="url(#m)"/><path d="M129.648 32.13c-.031 0-.062-.03-.093-.03-1.309-.42-2.71.511-3.209 1.773-.529-1.262-1.9-2.224-3.208-1.773-.031 0-.063.03-.094.03-1.588.601-2.118 2.585-1.121 3.998 1.121 1.532 4.423 4.297 4.423 4.297s3.333-2.765 4.424-4.297c.996-1.413.436-3.427-1.122-3.998Z" fill="url(#n)"/><g opacity=".5"><path opacity=".7" d="M99.433 13.765H52.02v2.405h47.412v-2.405Z" fill="url(#o)"/><path opacity=".7" d="M134.165 19.175H52.022v2.405h82.143v-2.405Z" fill="url(#p)"/><path d="M41.836 23.233c3.423 0 6.199-2.678 6.199-5.981s-2.776-5.981-6.2-5.981c-3.423 0-6.198 2.677-6.198 5.98 0 3.304 2.775 5.982 6.199 5.982Z" fill="url(#q)"/></g><g opacity=".5"><path opacity=".7" d="M99.433 96.266H52.02v2.405h47.412v-2.405Z" fill="url(#r)"/><path opacity=".7" d="M134.165 101.646H52.022v2.405h82.143v-2.405Z" fill="url(#s)"/><path d="M41.836 105.734c3.423 0 6.199-2.678 6.199-5.981s-2.776-5.981-6.2-5.981c-3.423 0-6.198 2.677-6.198 5.98 0 3.304 2.775 5.982 6.199 5.982Z" fill="url(#t)"/></g><path d="M115.382 26.93H31.556v58.096h83.826V26.929Z" fill="url(#u)"/><path d="M99.588 45.533c2.942 0 5.327-2.3 5.327-5.139 0-2.838-2.385-5.14-5.327-5.14-2.941 0-5.326 2.302-5.326 5.14 0 2.839 2.385 5.14 5.326 5.14Z" fill="url(#v)"/><path d="M58.532 50.252 34.11 85.026h48.844L58.532 50.252Z" fill="url(#w)"/><path d="M86.162 59.028 67.908 85.026h36.509L86.162 59.028Z" fill="url(#x)"/><path d="M197.587 28.883c3.457-2.405 7.632-.752 8.192 2.705.717 4.508-.187 8.115.966 11.09 1.807 4.629 1.308 9.167 1.308 9.167-4.735-6.222-9.625-3.637-12.335-9.918-.872-1.984-1.464-10.76 1.869-13.044Z" fill="#004A62"/><path d="M198.957 44.03h4.143v-7.633h-2.523l-1.62 7.634Z" fill="#E0BA90"/><path d="M195.904 32.52c-.685 3.125-.187 6.31 1.776 7.002 1.838.631 5.046-1.052 6.51-4.147 1.527-3.276.779-5.71-1.931-6.613-2.928-.991-5.576.301-6.355 3.757Z" fill="#E7C8AA"/><path d="m190.422 108.919 2.773-19.445 2.928-19.416.53-3.516 7.663 1.593-.997 3.396-5.639 18.874-5.513 18.875-.249.842-1.62-.331.124-.872Z" fill="#E0BA90"/><path d="m207.244 66.542.124 3.546.748 20.648 9.345 13.435.498.721-1.308.992-.623-.631-11.931-12.473a1.587 1.587 0 0 1-.436-.842l-.062-.3-3.582-20.859-.592-3.516 7.819-.721Z" fill="#E0BA90"/><path d="M205.842 65.88H194.97l-4.703 36.487 6.323.872 9.252-37.358Z" fill="url(#y)"/><path d="M208.801 65.88h-10.436s1.9 23.323 3.458 26.058c1.869 3.276 9.252 10.91 9.252 10.91l5.015-3.727s-5.296-7.213-6.573-10.609c-1.246-3.426-.716-22.631-.716-22.631Z" fill="url(#z)"/><path d="M198.116 46.194a84.079 84.079 0 0 1-1.931 6.192c-.374 1.022-.748 2.043-1.153 3.005a21.605 21.605 0 0 1-1.37 2.795c-.467.812-1.184 1.653-1.869 2.465-.717.811-1.433 1.653-2.212 2.434a135.622 135.622 0 0 1-4.704 4.689l-.778.721 1.433 1.503.809-.691a119.05 119.05 0 0 0 5.078-4.539 45.101 45.101 0 0 0 2.43-2.404c.405-.42.778-.841 1.183-1.292.187-.24.374-.451.592-.692.187-.27.374-.51.561-.781.685-1.022 1.215-2.044 1.713-3.096a39.589 39.589 0 0 0 1.371-3.125 91.127 91.127 0 0 0 2.336-6.342l.561-1.683-3.582-.992-.468 1.833Z" fill="#E0BA90"/><path d="m188.615 63.416 4.548 4.9s4.455-6.192 6.604-10.04c2.71-4.838 6.355-12.352 2.399-14.215-5.171-2.465-6.417 10.76-7.975 13.344-1.246 2.104-5.576 6.011-5.576 6.011Z" fill="url(#A)"/><path d="M203.194 43.37s-2.243 1.893-4.454.63c0 0-.779 7.875-1.776 11.09a3333.66 3333.66 0 0 1-3.582 11.392l15.887.27c.436-7.213-2.368-15.358-6.075-23.383Z" fill="#96D1F1"/><path d="M201.543 49.11a94.591 94.591 0 0 1 4.921 4.358 80.992 80.992 0 0 1 2.305 2.314 23.765 23.765 0 0 1 2.025 2.405c.156.21.281.39.405.6l.405.692c.249.45.53.932.779 1.413.498.961.997 1.923 1.464 2.915a176.842 176.842 0 0 1 2.71 5.98l.405.962 1.962-.72-.342-.993c-.748-2.103-1.558-4.147-2.399-6.221-.436-1.022-.872-2.044-1.339-3.066-.218-.51-.468-1.021-.717-1.532l-.405-.782-.467-.811c-.654-1.022-1.402-1.924-2.118-2.795-.748-.872-1.527-1.714-2.305-2.555-1.558-1.653-3.178-3.216-4.86-4.779l-1.308-1.202-2.492 2.675 1.371 1.142Z" fill="#E7C8AA"/><path d="M203.755 42.468s7.756 11.21 6.168 23.142c0 0 .654 2.344-8.131 2.014-8.815-.331-9.313-1.503-9.313-1.503 2.772-6.402 4.952-13.675 6.043-22.391 0 0 3.302.12 5.233-1.262Z" fill="url(#B)"/><path d="m211.636 66.331 6.635-1.593s-3.022-6.852-5.545-10.489c-3.177-4.568-8.348-11.18-11.931-8.686-4.672 3.246 6.885 10.49 8.536 13.044 1.308 2.044 2.305 7.724 2.305 7.724Z" fill="url(#C)"/><path d="M221.292 75.498c.623-.42.467-2.164-.623-4.027-.997-1.713-2.43-2.405-3.084-2.014-1.464.812 2.772 6.672 3.707 6.041Z" fill="#E7C8AA"/><path d="M218.27 73.725c-.311.06-.903-.601-1.246-1.623-.311-.962-.155-1.713.156-1.803.685-.24 1.589 3.306 1.09 3.426Z" fill="#E7C8AA"/><path d="M179.644 73.244c.499.54 2.274.24 4.112-.992 1.682-1.142 2.243-2.585 1.807-3.156-1.028-1.322-6.666 3.306-5.919 4.148Z" fill="#E0BA90"/><path d="M181.17 70.178c-.093-.3.53-.931 1.558-1.352.966-.39 1.744-.33 1.869-.03.311.661-3.271 1.863-3.427 1.382Z" fill="#E0BA90"/><path d="m184.037 110.813 1.277-.211 4.673-1.743v.03s.062.782 1.027.932c.717.12 1.184-.09 1.371-.18.031-.03.094-.061.094-.061.311 0 .56.481.56 1.112 0 .211-.031.391-.062.541v.842h-9.345v-.872c.062-.21.218-.36.405-.39ZM212.663 110.692l.779-.991 2.243-4.328.031.03s.592.541 1.402 0c.592-.391.81-.812.903-1.022 0-.06.031-.09.031-.12.218-.211.779 0 1.184.451.125.15.249.3.311.45l.592.631-6.915 6.072-.592-.632a.492.492 0 0 1 .031-.541Z" fill="#fff"/><path d="M201.294 27.86c.934 0 1.588.091 2.398.482 1.277.63 2.991 2.194 3.333 5.68.312 3.246-1.028 4.839 1.838 7.905 3.24 2.374 9.034 1.983 8.348 7.303-.654 5.32-8.005 4.628-9.719 1.984-1.744-2.675-1.557-5.05-2.523-6.733-.965-1.683-2.647-.691-3.489-2.554-.996-1.744.717-5.65 1.028-6.342-.218-.661-.467-1.383-1.588-1.653-2.368-.631-4.33-2.765-4.33-3.486.031-.662 2.18-2.585 4.704-2.585Z" fill="#004A62"/><path d="M201.387 34.473c-.249.511-.062 1.112.374 1.292.467.21 1.028-.06 1.277-.6.249-.512.062-1.113-.374-1.293-.467-.21-1.028.06-1.277.601Z" fill="#E7C8AA"/><defs><linearGradient id="a" x1="20.838" y1="63.494" x2="204.058" y2="63.494" gradientUnits="userSpaceOnUse"><stop stop-color="#9DDDEB"/><stop offset="1" stop-color="#6AD7E6"/></linearGradient><linearGradient id="b" x1="194" y1="101.862" x2="182.071" y2="109.894" gradientUnits="userSpaceOnUse"><stop stop-color="#FFDDDF"/><stop offset="1" stop-color="#55E1F4"/></linearGradient><linearGradient id="c" x1="-.003" y1="119.394" x2="224.875" y2="119.394" gradientUnits="userSpaceOnUse"><stop stop-color="#9DDDEB"/><stop offset="1" stop-color="#6AD7E6"/></linearGradient><linearGradient id="d" x1="122.923" y1="52.079" x2="184.021" y2="29.858" gradientUnits="userSpaceOnUse"><stop stop-color="#A3B9D6"/><stop offset="1" stop-color="#C1ABFF"/></linearGradient><linearGradient id="e" x1="122.923" y1="58.661" x2="184.021" y2="36.44" gradientUnits="userSpaceOnUse"><stop stop-color="#A3B9D6"/><stop offset="1" stop-color="#C1ABFF"/></linearGradient><linearGradient id="f" x1="122.923" y1="65.213" x2="184.021" y2="42.992" gradientUnits="userSpaceOnUse"><stop stop-color="#A3B9D6"/><stop offset="1" stop-color="#C1ABFF"/></linearGradient><linearGradient id="g" x1="122.923" y1="71.765" x2="184.021" y2="49.544" gradientUnits="userSpaceOnUse"><stop stop-color="#A3B9D6"/><stop offset="1" stop-color="#C1ABFF"/></linearGradient><linearGradient id="h" x1="122.923" y1="78.317" x2="184.021" y2="56.096" gradientUnits="userSpaceOnUse"><stop stop-color="#A3B9D6"/><stop offset="1" stop-color="#C1ABFF"/></linearGradient><linearGradient id="i" x1="151.553" y1="33.619" x2="151.178" y2="36.194" gradientUnits="userSpaceOnUse"><stop stop-color="#FFDDDF"/><stop offset="1" stop-color="#55E1F4"/></linearGradient><linearGradient id="j" x1="151.553" y1="38.308" x2="151.178" y2="40.883" gradientUnits="userSpaceOnUse"><stop stop-color="#FFDDDF"/><stop offset="1" stop-color="#55E1F4"/></linearGradient><linearGradient id="k" x1="173.103" y1="33.947" x2="193.433" y2="33.947" gradientUnits="userSpaceOnUse"><stop stop-color="#9DDDEB"/><stop offset="1" stop-color="#6AD7E6"/></linearGradient><linearGradient id="l" x1="173.103" y1="38.636" x2="193.433" y2="38.636" gradientUnits="userSpaceOnUse"><stop stop-color="#9DDDEB"/><stop offset="1" stop-color="#6AD7E6"/></linearGradient><linearGradient id="m" x1="160.082" y1="36.186" x2="169.86" y2="36.186" gradientUnits="userSpaceOnUse"><stop stop-color="#9DDDEB"/><stop offset="1" stop-color="#6AD7E6"/></linearGradient><linearGradient id="n" x1="121.462" y1="36.236" x2="131.248" y2="36.087" gradientUnits="userSpaceOnUse"><stop stop-color="#A3B9D6"/><stop offset="1" stop-color="#C1ABFF"/></linearGradient><linearGradient id="o" x1="52.236" y1="14.976" x2="96.428" y2="3.62" gradientUnits="userSpaceOnUse"><stop stop-color="#A3B9D6"/><stop offset="1" stop-color="#C1ABFF"/></linearGradient><linearGradient id="p" x1="52.393" y1="20.386" x2="120.513" y2="-9.942" gradientUnits="userSpaceOnUse"><stop stop-color="#A3B9D6"/><stop offset="1" stop-color="#C1ABFF"/></linearGradient><linearGradient id="q" x1="35.637" y1="17.252" x2="48.028" y2="17.252" gradientUnits="userSpaceOnUse"><stop stop-color="#9DDDEB"/><stop offset="1" stop-color="#6AD7E6"/></linearGradient><linearGradient id="r" x1="52.236" y1="97.477" x2="96.428" y2="86.121" gradientUnits="userSpaceOnUse"><stop stop-color="#A3B9D6"/><stop offset="1" stop-color="#C1ABFF"/></linearGradient><linearGradient id="s" x1="52.393" y1="102.857" x2="120.513" y2="72.529" gradientUnits="userSpaceOnUse"><stop stop-color="#A3B9D6"/><stop offset="1" stop-color="#C1ABFF"/></linearGradient><linearGradient id="t" x1="35.637" y1="99.753" x2="48.028" y2="99.753" gradientUnits="userSpaceOnUse"><stop stop-color="#9DDDEB"/><stop offset="1" stop-color="#6AD7E6"/></linearGradient><linearGradient id="u" x1="103.213" y1="47.747" x2="70.435" y2="84.634" gradientUnits="userSpaceOnUse"><stop stop-color="#FFDDDF"/><stop offset="1" stop-color="#55E1F4"/></linearGradient><linearGradient id="v" x1="94.868" y1="40.396" x2="154.764" y2="40.396" gradientUnits="userSpaceOnUse"><stop stop-color="#F6E0E2"/><stop offset="1" stop-color="#A7B6E7"/></linearGradient><linearGradient id="w" x1="34.148" y1="68.033" x2="82.947" y2="67.814" gradientUnits="userSpaceOnUse"><stop stop-color="#00BFC9"/><stop offset="1" stop-color="#016F92"/></linearGradient><linearGradient id="x" x1="67.936" y1="72.321" x2="104.411" y2="72.158" gradientUnits="userSpaceOnUse"><stop stop-color="#00BFC9"/><stop offset="1" stop-color="#016F92"/></linearGradient><linearGradient id="y" x1="190.266" y1="84.567" x2="209.477" y2="70.255" gradientUnits="userSpaceOnUse"><stop stop-color="#61C1D7"/><stop offset="1" stop-color="#64CBEC"/></linearGradient><linearGradient id="z" x1="198.365" y1="84.365" x2="216.08" y2="84.365" gradientUnits="userSpaceOnUse"><stop stop-color="#9DDDEB"/><stop offset="1" stop-color="#6AD7E6"/></linearGradient><linearGradient id="A" x1="188.627" y1="56.314" x2="203.907" y2="56.283" gradientUnits="userSpaceOnUse"><stop stop-color="#00BFC9"/><stop offset="1" stop-color="#016F92"/></linearGradient><linearGradient id="B" x1="192.492" y1="55.347" x2="210.135" y2="55.307" gradientUnits="userSpaceOnUse"><stop stop-color="#00BFC9"/><stop offset="1" stop-color="#016F92"/></linearGradient><linearGradient id="C" x1="199.705" y1="55.916" x2="218.268" y2="55.864" gradientUnits="userSpaceOnUse"><stop stop-color="#00BFC9"/><stop offset="1" stop-color="#016F92"/></linearGradient></defs></svg>