<svg width="221" height="172" fill="none" xmlns="http://www.w3.org/2000/svg"><path opacity=".4" d="M125.138 103.629c-1.993 1.384-9.726 5.568-17.699 6.952 0 0 3.54-2.704-.893-4.571-8.386.58-22.03 1.095-36.36 1.352l-5.843.097c-5.601.064-11.238.128-16.564.128h-2.681c-8.97-.032-17.011-.193-22.785-.514-.894-.065-1.718-.097-2.509-.161-2.921-.226-4.983-.515-5.98-.869-9.45-3.315-19.554-17.573-9.932-24.106 2.406-1.61 10.242-2.671 20.861-3.315h.069a95.83 95.83 0 0 1 3.196-.16c.962-.033 1.924-.097 2.887-.13.446-.032.893-.032 1.34-.064l3.093-.097c.344 0 .653-.032.996-.032.413 0 .825-.032 1.272-.032.447 0 .86-.032 1.306-.032.79-.032 1.58-.032 2.371-.064.378 0 .79-.033 1.203-.033.413 0 .86 0 1.272-.032 32.03-.483 72.651 1.288 81.277 3.315 17.768 4.28 8.97 16.285.103 22.368Z" fill="url(#a)"/><path opacity=".4" d="M214.251 67.615c-1.065.708-3.849 1.127-7.87 1.32h-.24l-.585.032c-3.574.16-8.007.16-12.99.032-1.512-.032-3.059-.064-4.64-.129-1.306-.032-2.612-.096-3.952-.128-.172 0-.378-.032-.55-.032-1.787-.065-3.574-.161-5.43-.258h-.068c-1.41-.064-2.853-.129-4.262-.225-20.414-1.095-43.13-2.929-54.78-3.734-4.434 1.867-2.887 6.791-2.887 6.791-6.977-2.478-6.874-9.398-9.382-9.365-12.75.16-14.503-20.534-4.88-22.175 9.416-1.61 55.158-3.508 86.81-1.996l3.643.194c.137 0 .309.032.446.032.172 0 .344.032.482.032h.24c1.925.129 3.815.257 5.602.418h.137c.619.065 1.203.097 1.787.161.619.065 1.203.129 1.788.193.343.032.687.065.996.097 8.179.901 13.919 2.253 15.5 4.152 3.264 3.83-.207 21.466-4.915 24.588Z" fill="url(#b)"/><path opacity=".4" d="M187.892 147.721c-.55.097-1.1.161-1.65.225-.068 0-.171.032-.274.032-.413.033-.894.065-1.478.065-1.169.032-2.646.064-4.365.064h-.825c-3.574 0-8.145-.096-13.196-.257-20.655-.676-49.901-2.478-57.427-4.474-.756 3.09 1.271 7.274 1.271 7.274-4.845-2.736-8.248-6.437-10.619-10.042-2.818-.933-7.664-1.544-9.416-2.317-6.29-2.832-6.874-14.837.068-17.958 6.049-2.736 48.423-3.476 78.081-1.674.241 0 .516.032.757.032.378.032.79.065 1.168.065.481.032.928.064 1.375.096.756.065 1.477.097 2.199.161a70.22 70.22 0 0 1 2.578.225c1.409.129 2.783.258 4.089.387h.069c1.237.128 2.44.257 3.54.418.275.032.584.064.859.097 6.186.836 10.551 1.866 11.994 3.121 7.492 6.405 4.468 22.014-8.798 24.46Z" fill="url(#c)"/><path d="m191.672 32.696 6.873-.45-.928-12.327-4.192.29-1.753 12.487Z" fill="#DEB88E"/><path d="M185.211 14.48c-.791 5.117.447 10.17 3.815 11.07 3.127.838 8.248-2.252 10.275-7.401 2.165-5.44.619-9.27-4.021-10.46-4.914-1.255-9.21 1.158-10.069 6.79Z" fill="#E5C6A8"/><path d="M194.008 15.928c-.653-2.06-2.612-2.929-4.158-3.38-1.547-.45-4.227-.29-4.296-1.416-.069-1.126 1.409-4.924 8.042-4.763 6.014.161 9.004 3.895 9.622 8.078.55 3.67-2.44 7.177-5.223 6.115-2.784-1.03-3.196-2.156-3.987-4.634Z" fill="#004A62"/><path d="M193.974 17.634c-.344.869.034 1.802.825 2.06.79.257 1.684-.226 2.027-1.127.344-.869-.034-1.802-.824-2.06-.791-.257-1.684.258-2.028 1.127Z" fill="#E5C6A8"/><path d="M194.971 1.252c-1.478 2.157-.893 6.083 1.925 7.789 2.852 1.705 6.873.515 8.351-1.61 1.478-2.124-.481-4.022-3.334-5.728-2.818-1.706-5.464-2.575-6.942-.45Z" fill="#004A62"/><path d="m195.383 35.624-1.856 2.157-15.362 17.958-15.602-6.662-1.615-.675-1.512 2.864 1.546.772 16.805 8.4a2.319 2.319 0 0 0 2.75-.483l.068-.096 17.39-18.538 1.959-2.092-4.571-3.605Z" fill="#DEB88E"/><path d="M202.016 42.158c-2.475 5.342-13.85 16.8-22.029 18.666-4.846 1.095-14.606-5.986-14.606-5.986l1.718-4.312s7.664 5.246 12.063 1.641c4.433-3.605 12.509-15.352 16.358-15.867 3.437-.418 7.63 3.444 6.496 5.858Z" fill="url(#d)"/><path d="M208.408 66.36c0 1.223-.618 2.06-2.027 2.575h-.241l-.584.032c-3.574.161-8.007.161-12.991.032-1.031.258-2.062.515-3.024.676a257.513 257.513 0 0 1-4.09-.096 26.763 26.763 0 0 1-1.099-.097c-.997-.129-1.134-.386-.894-.772.069-.13.206-.29.344-.45.172-.194.344-.42.55-.645a23.14 23.14 0 0 0 1.409-1.93.658.658 0 0 1 .137-.194c1.684-2.8 2.268-5.696 2.337-8.657.069-1.577-.034-3.154-.137-4.764-.172-2.413-.413-4.827-.413-7.305 0-.58 0-1.127.035-1.706.103-1.738.343-3.508.859-5.278a20.483 20.483 0 0 1 2.577-5.536h.653c1.306-.032 4.296-.193 6.702-1.32a5.755 5.755 0 0 0 1.237-.707c1.34 1.963 2.715 4.988 3.987 8.657 2.611 7.66 4.742 18.12 4.673 27.485Z" fill="url(#e)"/><path d="M200.779 63.528v-.129l-1.65-25.04-.172-2.767-6.014.483.31 2.735 2.68 23.302-16.393 5.696-1.649.58 1.099 3.025 1.684-.483 18.524-5.246a2.166 2.166 0 0 0 1.581-2.156Z" fill="#E5C6A8"/><path d="M200.366 65.04c-1.237 1.803-4.571 3.09-7.835 3.927-1.031.257-2.062.515-3.025.676-2.68.515-4.777.74-4.777.74l-.275-.611-.171-.387-.344-.74-.206-.483-.756-1.641-.206-.483s1.34-.16 3.058-.676c2.853-.836 6.702-2.607 7.045-6.05.138-1.513.035-3.734-.137-6.212-.138-1.802-.31-3.733-.481-5.664-.241-2.897-.413-5.729-.275-7.917.034-.419.068-.837.137-1.191.035-.161.069-.322.069-.483.172-.805.378-1.448.722-1.834 2.165-2.575 8.248-1.578 9.244.933.206.515.378 1.094.55 1.738 1.718 6.662 1.856 20.243-2.337 26.358Z" fill="url(#f)"/><path d="M153.903 45.987c-.55.998.343 3.026 2.474 4.378 1.959 1.255 3.987.933 4.605-.065 1.444-2.188-6.186-5.89-7.079-4.313Z" fill="#DEB88E"/><path d="M156.652 44.926c.413-.322 1.753.193 3.059 1.383 1.203 1.095 1.546 2.253 1.168 2.607-.824.837-4.845-3.508-4.227-3.99Z" fill="#DEB88E"/><path d="M171.223 71.67c.378 1.062 2.578 1.835 5.087 1.352 2.337-.45 3.471-2.06 3.161-3.154-.721-2.478-8.832.129-8.248 1.802Z" fill="#E5C6A8"/><path d="M172.323 69.064c.034-.483 1.375-1.063 3.196-1.095 1.684-.064 2.818.515 2.818 1.03.069 1.095-6.083.837-6.014.065Z" fill="#E5C6A8"/><path d="m38.98 66.778-6.77-.579 1.203-12.198 4.158.386 1.41 12.391Z" fill="#DEB88E"/><path d="M45.854 48.884c.653 5.085-.687 10.074-4.02 10.879-3.128.772-8.111-2.414-10.002-7.564-1.993-5.439-.378-9.204 4.228-10.267 4.88-1.126 9.072 1.352 9.794 6.952Z" fill="#E5C6A8"/><path d="M37.33 50.461c3.987-.643 3.334-3.604 4.88-4.055 1.547-.45 3.265.29 3.369-.837.103-1.094-1.272-4.924-7.87-4.86-5.98.033-8.695 3.444-8.798 7.596-.103 3.894 2.92 6.694 4.124 6.372 1.856-.547.962-3.669 4.296-4.216Z" fill="#004A62"/><path d="M36.54 51.201c.31.87-.068 1.77-.824 2.028-.79.258-1.65-.257-1.994-1.126-.309-.87.07-1.77.825-2.028.79-.258 1.684.258 1.994 1.126Z" fill="#E5C6A8"/><path d="M33.482 44.54s-9.863-3.766-13.438.61c-3.952 4.828.55 9.463-.412 13.679-.687 2.896-5.464 4.988-6.289 9.494-.825 4.506 1.375 8.98 4.983 9.108 5.258.193 7.56-4.795 7.526-8.786-.034-4.602-2.543-6.726-1.821-8.883.756-2.156 2.303-2.574 3.127-7.08.86-4.474-1.443-7.95 6.324-8.143Z" fill="#004A62"/><path d="M62.006 100.443c-2.75-2.189-5.43-4.474-8.077-6.759-1.306-1.158-2.611-2.317-3.883-3.508-.619-.58-1.237-1.19-1.856-1.802l-.859-.901c-.24-.29-.516-.547-.756-.87-.997-1.222-1.89-2.638-2.75-4.054a93.304 93.304 0 0 1-2.474-4.41c-1.58-2.993-3.058-6.082-4.433-9.14l-1.134-2.542-5.499 2.253 1.272 2.478c1.615 3.154 3.299 6.211 5.12 9.269.928 1.512 1.856 3.025 2.853 4.505 1.03 1.48 2.096 2.961 3.368 4.41.309.354.653.708 1.03 1.062l1.032.933c.687.611 1.374 1.223 2.062 1.802a134.777 134.777 0 0 0 4.193 3.38c2.817 2.188 5.704 4.312 8.625 6.436l1.375.998 2.13-2.478-1.34-1.062Z" fill="#DEB88E"/><path d="M29.118 70.287c.618 5.857 6.804 13.549 12.062 19.792 5.258 6.244 14.778 12.166 16.05 12.423.996.193 3.505-2.864 3.402-3.636-.069-.547-9.795-7.692-12.853-12.391-3.059-4.731-6.977-18.313-10.516-19.922-3.128-1.416-8.42 1.094-8.145 3.734Z" fill="url(#g)"/><path d="M50.802 106.268s-.24.644-2.99 1.319h-2.68c.068.161.137.354.206.515-2.303.387-5.568.708-10.207.869-8.11.322-11.444-.804-12.784-1.899-1.1-.901-.894-1.77-.894-1.77-.928-7.499.034-14.836 1.718-21.241 0-.032.035-.064.035-.129a66.314 66.314 0 0 1 1.615-5.31c.55-1.61 1.134-3.09 1.684-4.506v-.032c2.646-6.404 5.258-10.492 5.327-10.62.172.128.378.289.584.386 1.58.997 3.505 1.48 5.12 1.705.482.065.928.13 1.34.161 1.066.097 1.788.065 1.788.065.275 2.478.619 4.86.997 7.209.275 1.706.55 3.38.859 5.02.206 1.16.447 2.285.687 3.412.206 1.03.447 2.028.688 3.025.034.225.103.419.137.644l.928 3.669c.172.643.343 1.255.515 1.899.138.515.31 1.03.447 1.544.344 1.16.687 2.286 1.031 3.412a146.39 146.39 0 0 0 3.85 10.653Z" fill="url(#h)"/><path d="M70.529 108.585c-.756.869-3.643.451-6.599-1.416-2.715-1.706-3.677-3.959-2.99-4.892 1.547-2.06 10.792 4.989 9.589 6.308Z" fill="#DEB88E"/><path d="M67.986 103.854c.137-.483-.86-1.416-2.544-2.059-1.546-.612-2.818-.451-3.024.032-.447 1.03 5.327 2.767 5.568 2.027Z" fill="#DEB88E"/><path d="M46.473 110.87s-22.442 1.577-26.29-3.379c-.138-.161-.241-.386-.345-.612-1.409-3.379.482-13.26 3.334-22.818 0-.032.034-.064.034-.129.55-1.802 1.1-3.572 1.684-5.31a117.518 117.518 0 0 1 1.616-4.506v-.032c1.924-5.053 3.883-9.108 5.326-10.62l.585.225 5.086 1.899 1.375.515.275.096s-.07.772-.138 2.092a89.74 89.74 0 0 0-.137 4.956 76.548 76.548 0 0 0 .034 4.828c.034 2.092.172 4.28.378 6.501.034.225.034.418.069.644.034.257.034.515.069.772.103.805.171 1.61.309 2.382.069.547.172 1.094.275 1.609.103.611.24 1.223.343 1.802.035.129.07.258.07.386 1.443 6.405 3.401 12.037 4.673 15.417.069.16.138.354.206.514.722 1.771 1.169 2.768 1.169 2.768Z" fill="url(#i)"/><path d="m55.82 82.838-1.718.322-18.73 3.604 1.787-15.673-.103-2.542-5.602-.612-.137 2.736-.928 18.666v.129c0 .193 0 .418.068.644.31 1.126 1.581 1.834 2.784 1.512l21.617-5.278 1.684-.418-.722-3.09Z" fill="#DEB88E"/><path d="M62.418 83.095c.206 1.095-1.34 2.736-3.815 3.38-2.268.611-4.055-.322-4.33-1.416-.584-2.478 7.836-3.67 8.145-1.964Z" fill="#DEB88E"/><path d="M60.219 81.164c-.275-.418-1.718-.321-3.334.419-1.512.676-2.199 1.674-1.993 2.124.516.998 5.74-1.867 5.327-2.543Z" fill="#DEB88E"/><path d="M34.685 66.714c4.88.966 3.608 7.273 3.299 9.558-.275 2.286-2.165 8.24-1.1 9.012 1.065.772 14.297-2.64 14.778-1.867.515.74 1.065 3.637.721 4.28-.343.644-17.561 7.918-21.926 4.474-2.062-1.641-2.37-12.1-2.44-14.225-.034-2.124-.618-12.68 6.668-11.232Z" fill="url(#j)"/><path d="m171.087 110.066 7.148-.902-1.856-12.809-4.364.547-.928 13.164Z" fill="#DEB88E"/><path d="M163.045 91.431c-.446 5.407 1.203 10.589 4.743 11.329 3.333.676 8.454-2.865 10.207-8.368 1.856-5.793 0-9.72-4.949-10.653-5.189-.997-9.52 1.77-10.001 7.692Z" fill="#E5C6A8"/><path d="M171.843 82.001c5.258-.257 8.763 3.766 9.038 8.175.275 4.12-4.055 6.887-4.055 6.887s-2.131-3.958-4.742-4.28c-3.643-.483-2.544-3.605-4.228-3.701-1.752-.129-5.636-.934-5.911-3.25 2.406-.258 3.987-3.541 9.898-3.83Z" fill="#004A62"/><path d="M172.977 93.523c-.309.934.138 1.867.963 2.092.824.225 1.752-.354 2.027-1.287.309-.934-.137-1.867-.962-2.092-.825-.225-1.753.354-2.028 1.287Z" fill="#E5C6A8"/><path d="M173.355 92.525s.413 5.73-.412 8.046c-.756 1.996-4.88 4.506-7.904.354 0 0 2.508.161 2.096-.772-.481-1.094-2.99-.805-2.99-.805s-.481.033-.653-.354c-.206-.611-.034-1.673-.034-1.673s3.471.676 4.88.515c1.615-.193 2.921-1.448 3.78-5.15l1.237-.16Z" fill="#004A62"/><path d="m172.736 111.128-.997 2.735-8.454 23.205-18.214-1.384-1.822-.129-.412 3.315 1.821.257 20.07 2.704a2.41 2.41 0 0 0 2.544-1.384l.034-.129 10.241-24.427 1.134-2.704-5.945-2.059Z" fill="#DEB88E"/><path d="M181.054 115.826c-.55 6.18-7.424 21.435-14.984 25.941-4.502 2.671-17.287-1.449-17.287-1.449l.172-4.892s9.623 2.833 12.75-2.188c3.162-5.021 7.011-19.471 10.723-21.209 3.264-1.545 8.9 1.029 8.626 3.797Z" fill="url(#k)"/><path d="M189.37 145.468c0 .901-.412 1.673-1.478 2.285-.55.096-1.1.161-1.649.225-.069 0-.172.032-.275.032-.035.161-.035.29-.069.451-.447.096-.928.193-1.443.257-1.169.161-2.612.258-4.331.29h-.824c0-.29.034-.579.034-.869-3.574 0-8.145-.097-13.197-.258-5.155-1.223-4.261-2.928-4.261-2.928.343-.773.687-1.545.962-2.285.137-.354.275-.708.412-1.03 2.097-5.375 3.471-10.846 4.571-16.929.344-1.931.687-3.926.997-5.986.103-.773.24-1.577.343-2.382.31-2.156.585-4.409.894-6.791h1.1c1.58-.064 4.605-.354 6.942-1.577.309-.16.584-.321.859-.515 0 0 2.99 4.925 5.808 12.713 2.337 6.694 4.605 15.577 4.605 25.297Z" fill="url(#l)"/><path d="M184.902 137.325c-.206-1.963-.584-3.797-.997-5.632a96.348 96.348 0 0 0-1.478-5.375c-1.065-3.54-2.268-6.983-3.574-10.492l-1.031-2.735-5.911 2.156 1.169 2.671c1.443 3.219 2.783 6.598 3.986 9.913a94.83 94.83 0 0 1 1.684 5.021c.481 1.673.928 3.347 1.169 4.956.068.418.103.773.137 1.159l.069 1.287c.034.869.069 1.738.069 2.607 0 1.77-.035 3.54-.104 5.31a278.888 278.888 0 0 1-.618 10.718l-.138 1.705 3.54.354.241-1.705c.515-3.605.928-7.21 1.306-10.814.171-1.803.309-3.637.412-5.471.069-.934.069-1.835.103-2.768v-1.416c.034-.451 0-.966-.034-1.449Z" fill="#E5C6A8"/><path d="M185.968 147.978c-.035.161-.035.29-.069.451-.756 4.634-1.787 8.239-1.787 8.239l-.584-.064-3.815-.322-.997-.097s.378-3.283.585-7.241c0-.29.034-.58.034-.869.137-3.573.103-7.564-.515-10.138-.482-1.964-1.684-4.764-2.99-7.789-.722-1.641-1.478-3.347-2.165-4.988-.997-2.35-1.856-4.571-2.269-6.373-.343-1.384-.412-2.478-.103-3.218.653-1.674 2.612-2.929 4.571-3.444a5.83 5.83 0 0 1 1.272-.225c1.34-.129 2.577.161 3.264.965 1.512 1.803 2.612 4.281 3.506 7.113 1.512 4.924 2.234 10.91 2.783 16.189.31 3.701-.137 8.046-.721 11.811Z" fill="url(#m)"/><path d="M132.252 136.295c-.068 1.191 2.509 2.8 6.221 3.315 3.436.483 5.876-.611 6.048-1.802.378-2.671-12.166-3.347-12.269-1.513Z" fill="#DEB88E"/><path d="M137.854 134.3c.241-.483 1.753-.515 3.575.096 1.649.58 2.508 1.545 2.337 2.028-.447 1.094-6.29-1.384-5.912-2.124Z" fill="#DEB88E"/><path d="M181.122 171.054c1.271-.064 2.68-2.639 2.783-6.179.104-3.251-1.34-5.375-2.611-5.407-2.853-.033-2.131 11.715-.172 11.586Z" fill="#E5C6A8"/><path d="M178.372 166.097c-.516-.161-.756-1.577-.309-3.314.412-1.61 1.34-2.511 1.89-2.414 1.203.257-.791 5.986-1.581 5.728Z" fill="#E5C6A8"/><defs><linearGradient id="a" x1="-.002" y1="94.224" x2="135.252" y2="94.224" gradientUnits="userSpaceOnUse"><stop stop-color="#9DDDEB"/><stop offset="1" stop-color="#6AD7E6"/></linearGradient><linearGradient id="b" x1="95.599" y1="54.24" x2="220.376" y2="54.24" gradientUnits="userSpaceOnUse"><stop stop-color="#9DDDEB"/><stop offset="1" stop-color="#6AD7E6"/></linearGradient><linearGradient id="c" x1="84.982" y1="134.163" x2="200.641" y2="134.163" gradientUnits="userSpaceOnUse"><stop stop-color="#9DDDEB"/><stop offset="1" stop-color="#6AD7E6"/></linearGradient><linearGradient id="d" x1="165.38" y1="48.605" x2="202.185" y2="48.605" gradientUnits="userSpaceOnUse"><stop stop-color="#9DDDEB"/><stop offset="1" stop-color="#6AD7E6"/></linearGradient><linearGradient id="e" x1="183.469" y1="50.085" x2="208.363" y2="49.879" gradientUnits="userSpaceOnUse"><stop stop-color="#A3B9D6"/><stop offset="1" stop-color="#C1ABFF"/></linearGradient><linearGradient id="f" x1="182.77" y1="52.444" x2="203.819" y2="52.444" gradientUnits="userSpaceOnUse"><stop stop-color="#9DDDEB"/><stop offset="1" stop-color="#6AD7E6"/></linearGradient><linearGradient id="g" x1="29.107" y1="84.335" x2="60.633" y2="84.335" gradientUnits="userSpaceOnUse"><stop stop-color="#61C1D7"/><stop offset="1" stop-color="#32A3C7"/></linearGradient><linearGradient id="h" x1="21.226" y1="86.405" x2="50.746" y2="86.154" gradientUnits="userSpaceOnUse"><stop stop-color="#A3B9D6"/><stop offset="1" stop-color="#C1ABFF"/></linearGradient><linearGradient id="i" x1="19.361" y1="87.296" x2="46.471" y2="87.296" gradientUnits="userSpaceOnUse"><stop stop-color="#61C1D7"/><stop offset="1" stop-color="#32A3C7"/></linearGradient><linearGradient id="j" x1="27.993" y1="79.841" x2="52.489" y2="79.841" gradientUnits="userSpaceOnUse"><stop stop-color="#61C1D7"/><stop offset="1" stop-color="#32A3C7"/></linearGradient><linearGradient id="k" x1="148.783" y1="127.116" x2="181.045" y2="127.116" gradientUnits="userSpaceOnUse"><stop stop-color="#9DDDEB"/><stop offset="1" stop-color="#6AD7E6"/></linearGradient><linearGradient id="l" x1="161.817" y1="128.242" x2="189.369" y2="128.242" gradientUnits="userSpaceOnUse"><stop stop-color="#61C1D7"/><stop offset="1" stop-color="#32A3C7"/></linearGradient><linearGradient id="m" x1="171.096" y1="134.27" x2="186.782" y2="134.27" gradientUnits="userSpaceOnUse"><stop stop-color="#9DDDEB"/><stop offset="1" stop-color="#6AD7E6"/></linearGradient></defs></svg>