<svg width="64" height="62" fill="none" xmlns="http://www.w3.org/2000/svg"><ellipse cx="31.747" cy="30.547" rx="31.747" ry="30.547" fill="#fff"/><path opacity=".9" d="m38.598 45.841-.005.002c-9.523 3.602-20.246-.95-23.978-10.122-3.662-9.11 1.017-19.427 10.536-23.029 9.535-3.547 20.258 1.009 23.982 10.124 3.718 9.102-.953 19.473-10.535 23.025ZM15.933 24.222l-.011.007c-2.11 1.226-2.936 3.902-1.613 6.064l.64-.386-.64.386c.643 1.05 1.531 1.679 2.49 2.118.736.337 1.558.58 2.344.811.204.06.405.12.601.18l.009.002.008.002c1.615.453 3.52.807 5.817.93l.51.028.209-.462c.907-2.012 1.492-3.736 1.98-5.171l.123-.364.002-.007c.656-1.988 1.006-3.86-.257-5.924l-.005-.007c-1.29-2.056-4.046-2.805-6.237-1.565a4.363 4.363 0 0 0-2.179 3.028 4.672 4.672 0 0 0-3.791.33Zm23.337 4.763.464.193 3.317-5.202.634.408v-.002l.18-.278c1.009-1.561 2.164-3.35 1.65-5.651l-.001-.004c-.548-2.395-3-3.865-5.42-3.355-1.36.277-2.458 1.11-3.068 2.217a4.693 4.693 0 0 0-3.706-.78h-.006c-2.427.514-4.007 2.853-3.46 5.25.523 2.287 2.047 3.48 3.992 4.495 1.433.802 3.155 1.76 5.424 2.709Zm-13.463 8.74c-.345.047-.654.119-.916.224-.255.103-.522.26-.709.517-.206.284-.26.618-.19.936.065.287.223.528.382.715.317.373.806.724 1.353 1.042.56.325 1.238.647 1.98.944a23 23 0 0 0 5.006 1.363c1.706.252 3.455.266 4.792-.237 1.35-.505 2.638-1.652 3.727-2.948a21.282 21.282 0 0 0 2.746-4.256c.341-.701.616-1.379.803-1.984.182-.591.298-1.171.273-1.656a1.696 1.696 0 0 0-.212-.775 1.186 1.186 0 0 0-.763-.564c-.309-.072-.613-.02-.874.068-.265.09-.54.234-.825.419-4.065 2.55-6.01 3.767-8.03 4.522-2.016.753-4.119 1.05-8.543 1.67Z" stroke="url(#a)" stroke-width="1.5"/><defs><linearGradient id="a" x1="12.864" y1="32.11" x2="50.975" y2="26.767" gradientUnits="userSpaceOnUse"><stop stop-color="#00BFC9"/><stop offset="1" stop-color="#016F92"/></linearGradient></defs></svg>