<svg width="64" height="62" fill="none" xmlns="http://www.w3.org/2000/svg"><ellipse cx="31.747" cy="30.547" rx="31.747" ry="30.547" fill="#fff"/><g clip-path="url(#a)"><g clip-path="url(#b)"><path fill-rule="evenodd" clip-rule="evenodd" d="M55.348 44.173a.675.675 0 0 0-.047-.043l-7.023-5.712a9.96 9.96 0 0 0 1.685-5.57c0-2.502-.91-4.864-2.573-6.708a.617.617 0 0 0 .016-.139V14.395c0-1.155-.94-2.095-2.095-2.095H16.203c-1.155 0-2.095.94-2.095 2.095v8.102a.618.618 0 1 0 1.237 0v-8.102a.86.86 0 0 1 .858-.858h9.361v5.996a.618.618 0 0 0 .828.582l4.365-1.573 4.366 1.573a.616.616 0 0 0 .565-.076.618.618 0 0 0 .263-.505v-5.997h9.36a.86.86 0 0 1 .86.858v10.597a9.953 9.953 0 0 0-6.238-2.174 9.965 9.965 0 0 0-7.093 2.938 9.999 9.999 0 0 0-1.77 2.393H21.7c-.729 0-1.321.592-1.321 1.321v6.625c0 .729.592 1.322 1.321 1.322h9.303a9.992 9.992 0 0 0 1.837 2.524 9.965 9.965 0 0 0 7.093 2.938c2.047 0 4-.61 5.652-1.742l.585.646v2.874a.694.694 0 0 1-.694.693h-9.342a.618.618 0 0 0 0 1.237h9.342c1.065 0 1.93-.866 1.93-1.93v-1.51l4.243 4.682a2.593 2.593 0 0 0 1.86.783c.666 0 1.332-.254 1.839-.76a2.604 2.604 0 0 0 0-3.679Zm-20.634-25.52-3.747-1.35a.618.618 0 0 0-.42 0l-3.747 1.35v-5.116h7.914v5.117ZM26.9 29.386v6.795h-2.356v-6.795H26.9Zm-5.285 6.71V29.47c0-.047.038-.085.085-.085h1.607v6.795H21.7a.085.085 0 0 1-.085-.085Zm6.522.085v-6.795h2.384a10.095 10.095 0 0 0-.048 6.795h-2.336Zm5.577 2.887c-3.428-3.429-3.428-9.008 0-12.437a8.736 8.736 0 0 1 6.219-2.576c2.349 0 4.557.915 6.218 2.576a8.737 8.737 0 0 1 2.576 6.218c0 2.35-.915 4.558-2.576 6.219a8.737 8.737 0 0 1-6.218 2.575 8.737 8.737 0 0 1-6.219-2.575Zm20.76 7.91a1.366 1.366 0 0 1-1.92.01l-5.992-6.612a10.11 10.11 0 0 0 .966-.974l6.966 5.667c.245.255.38.59.38.944 0 .364-.143.707-.4.965ZM33.662 45.35H16.038a.695.695 0 0 1-.693-.693V24.969a.618.618 0 0 0-1.237 0v19.688c0 1.064.866 1.93 1.93 1.93h17.624a.618.618 0 1 0 0-1.237Zm6.27-19.602c1.897 0 3.68.739 5.021 2.08a7.108 7.108 0 0 1 0 10.04 7.054 7.054 0 0 1-5.02 2.08 7.054 7.054 0 0 1-5.02-2.08 7.054 7.054 0 0 1-2.08-5.02c0-1.896.739-3.68 2.08-5.02a7.053 7.053 0 0 1 5.02-2.08ZM39.9 29.47a.086.086 0 0 0-.085-.085h-2.432v6.795h2.431a.086.086 0 0 0 .086-.085V29.47Zm-3.753-.085H35.2a5.82 5.82 0 0 0-1.13 3.463 5.82 5.82 0 0 0 1.038 3.332h1.039v-6.795Zm3.786 9.327c1.566 0 3.038-.61 4.146-1.718a5.87 5.87 0 0 0 0-8.292 5.826 5.826 0 0 0-4.146-1.717 5.82 5.82 0 0 0-3.508 1.164h3.39c.728 0 1.32.592 1.32 1.321v6.625c0 .729-.592 1.321-1.32 1.321h-3.558a5.818 5.818 0 0 0 3.676 1.296Z" fill="url(#c)"/></g></g><defs><clipPath id="a"><path fill="#fff" transform="translate(14.231 9.129)" d="M0 0h45.978v44.241H0z"/></clipPath><clipPath id="b"><path fill="#fff" transform="translate(14.108 9.456)" d="M0 0h42v42H0z"/></clipPath><linearGradient id="c" x1="14.141" y1="30.867" x2="56.103" y2="30.712" gradientUnits="userSpaceOnUse"><stop stop-color="#00BFC9"/><stop offset="1" stop-color="#016F92"/></linearGradient></defs></svg>