<svg width="64" height="62" fill="none" xmlns="http://www.w3.org/2000/svg"><ellipse cx="31.747" cy="30.547" rx="31.747" ry="30.547" fill="#fff"/><g clip-path="url(#a)"><path fill-rule="evenodd" clip-rule="evenodd" d="M22.941 16.475a.695.695 0 0 1-.708.681.695.695 0 0 1-.709-.681v-2.45c0-.377.318-.683.709-.683.39 0 .708.306.708.682v2.45Zm-5.88-.672a.729.729 0 0 0-1.003 0 .664.664 0 0 0 0 .964L17.86 18.5c.138.133.32.2.501.2a.72.72 0 0 0 .5-.2.663.663 0 0 0 0-.964l-1.8-1.733ZM41.95 33.82l7.282-3.48a.677.677 0 0 0 .391-.666.688.688 0 0 0-.495-.596L37.32 25.545a.714.714 0 0 0-.886.449.677.677 0 0 0 .465.853l10.12 3.028-6.582 3.146a.666.666 0 0 0-.186 1.093l7.638 7.348-5.166 4.97-7.637-7.349a.727.727 0 0 0-.615-.19.706.706 0 0 0-.52.369l-3.27 6.334L23.31 22.78l8.171 2.445c.374.112.77-.089.887-.448a.678.678 0 0 0-.466-.854l-9.458-2.83a.727.727 0 0 0-.711.17.663.663 0 0 0-.176.684l8.298 25.677a.703.703 0 0 0 .677.48.712.712 0 0 0 .634-.38l3.617-7.006 7.442 7.16a.728.728 0 0 0 1.002 0l6.166-5.934a.663.663 0 0 0 0-.964l-7.441-7.16ZM26.606 18.5a.72.72 0 0 1-.5.2.72.72 0 0 1-.502-.2.664.664 0 0 1 0-.964l1.801-1.733a.728.728 0 0 1 1.002 0 .663.663 0 0 1 0 .964l-1.8 1.733Zm-8.747 6.489-1.8 1.732a.664.664 0 0 0 0 .965c.138.132.319.2.5.2a.721.721 0 0 0 .501-.2l1.8-1.733a.664.664 0 0 0 0-.964.729.729 0 0 0-1.001 0Zm-.395-3.245a.695.695 0 0 0-.708-.681h-2.547a.695.695 0 0 0-.708.681c0 .377.317.682.708.682h2.547a.695.695 0 0 0 .708-.682Zm16.98 4.318a.719.719 0 0 1-.702-.42.674.674 0 0 1 .262-.826.738.738 0 0 1 .793.005c.245.16.361.463.284.738a.708.708 0 0 1-.638.503Z" fill="url(#b)"/></g><defs><linearGradient id="b" x1="13.529" y1="31.117" x2="49.622" y2="30.997" gradientUnits="userSpaceOnUse"><stop stop-color="#00BFC9"/><stop offset="1" stop-color="#016F92"/></linearGradient><clipPath id="a"><path fill="#fff" transform="translate(13.501 13.342)" d="M0 0h36.126v34.761H0z"/></clipPath></defs></svg>