<svg width="64" height="62" fill="none" xmlns="http://www.w3.org/2000/svg"><ellipse cx="31.747" cy="30.547" rx="31.747" ry="30.547" fill="#fff"/><g clip-path="url(#a)"><path fill-rule="evenodd" clip-rule="evenodd" d="M16.744 37.471a.66.66 0 0 1-.238-.144L11.75 32.75a.63.63 0 0 1 0-.915l6.266-6.029c-1.72-2.112-2.794-4.632-1.511-5.865.842-.811 2.263-.64 3.761.04l2.937-2.827c-.707-1.44-.885-2.808-.042-3.618 1.284-1.235 3.901-.201 6.097 1.453l6.266-6.029a.712.712 0 0 1 .95 0l4.756 4.575a.63.63 0 0 1 0 .915l-9.51 9.151-4.756 4.576-2.86 2.752h14.163c-.682-.855-1.35-1.888-1.35-2.588 0-1.076.693-2.04 1.74-2.42a2.761 2.761 0 0 1 2.967.71 2.761 2.761 0 0 1 2.967-.71c1.046.38 1.74 1.344 1.74 2.42 0 .7-.669 1.732-1.35 2.588h3.367a.66.66 0 0 1 .673.647v15.53a.66.66 0 0 1-.673.646H17.417a.66.66 0 0 1-.673-.647v-9.634Zm22.863-10.424c-.742 0-1.344.58-1.344 1.294a7.288 7.288 0 0 0 1.752 2.588h3.22a7.284 7.284 0 0 0 1.752-2.588c0-.715-.602-1.294-1.345-1.294s-1.345.58-1.345 1.294v.175a.66.66 0 0 1-.672.647.66.66 0 0 1-.673-.647v-.175c0-.715-.602-1.294-1.345-1.294Zm8.07 5.176H36.245v14.235h11.432V32.223Zm-12.777 0h-4.034v14.235H34.9V32.223Zm-5.38 14.235V32.223h-6.724v-.035l-4.744 4.564h.037v9.706h11.432Zm-6.834-23.315 3.805 3.66 3.804-3.66-3.804-3.66-3.805 3.66Zm17.118-9.15-3.803-3.66-8.56 8.238 3.804 3.657 8.56-8.235Zm-15.12.29a.82.82 0 0 0-.571.167c-.43.414-.107 2.002 1.517 4.03l.385-.37 2.287-2.2c-1.56-1.154-2.868-1.626-3.617-1.626Zm-.01 5.122a13.61 13.61 0 0 1-.788-1.073l-2.398 2.307c.378.233.751.486 1.114.76l2.072-1.994Zm-6.647 1.284a.818.818 0 0 0-.57.167c-.431.413-.108 2.001 1.517 4.03l2.286-2.2.385-.37c-1.559-1.155-2.868-1.627-3.618-1.627Zm7.513 7.03-3.804-3.66-8.556 8.235 3.8 3.66 8.56-8.236Zm18.497-10.856a2.761 2.761 0 0 1 2.967.71 2.761 2.761 0 0 1 2.968-.71c1.046.38 1.739 1.343 1.74 2.42 0 1.405-3.176 5.176-4.708 5.176s-4.707-3.771-4.707-5.177c0-1.076.694-2.039 1.74-2.419Zm2.978 6.302c.751-.095 3.337-3.071 3.352-3.883 0-.714-.603-1.294-1.345-1.294-.743 0-1.345.58-1.345 1.294v.175a.66.66 0 0 1-.673.647.66.66 0 0 1-.672-.647v-.175c0-.714-.602-1.294-1.345-1.294s-1.345.58-1.345 1.294c.015.811 2.6 3.787 3.373 3.883Zm-.01-12.294a.66.66 0 0 0-.673.647v.647h-.673a.66.66 0 0 0-.672.647.66.66 0 0 0 .672.647h.673v.647a.66.66 0 0 0 .672.647.66.66 0 0 0 .673-.647v-.647h.672a.66.66 0 0 0 .673-.647.66.66 0 0 0-.673-.647h-.672v-.647a.66.66 0 0 0-.673-.647Zm-9.415 11a.66.66 0 0 0 .672-.647.66.66 0 0 0-.672-.648.66.66 0 0 0-.672.648.66.66 0 0 0 .672.646Zm-5.38 7.764a.66.66 0 0 0 .673-.647v-.647h.672a.66.66 0 0 0 .673-.647.66.66 0 0 0-.673-.647h-.672V26.4a.66.66 0 0 0-.673-.647.66.66 0 0 0-.672.647v.647h-.672a.66.66 0 0 0-.673.647.66.66 0 0 0 .673.647h.672v.647a.66.66 0 0 0 .672.647Zm17.484-1.294a.66.66 0 0 0 .672-.647.66.66 0 0 0-.672-.647.66.66 0 0 0-.672.647.66.66 0 0 0 .672.647Z" fill="url(#b)"/></g><defs><linearGradient id="b" x1="11.585" y1="28.706" x2="51.706" y2="28.575" gradientUnits="userSpaceOnUse"><stop stop-color="#00BFC9"/><stop offset="1" stop-color="#016F92"/></linearGradient><clipPath id="a"><path fill="#fff" transform="translate(11.313 8.778)" d="M0 0h40.504v38.974H0z"/></clipPath></defs></svg>