<svg width="210" height="163" fill="none" xmlns="http://www.w3.org/2000/svg"><g clip-path="url(#a)"><path opacity=".1" d="M179.029 43.386c-4.625-2.732-8.549-6.448-11.424-10.882C154.957 12.992 132.384 0 106.662 0 82.415 0 60.968 11.554 47.994 29.22c-2.974 4.027-6.749 7.455-11.098 10.115-19.748 12.057-32.721 33.39-32.271 57.6.675 36.627 32.17 66.015 70.366 65.679a73.19 73.19 0 0 0 20.123-3.02c12.198-3.643 25.147-4.267 37.695-1.965a68.889 68.889 0 0 0 12.274 1.102c35.92 0 65.142-28.189 64.942-62.634-.15-22.292-12.499-41.828-30.996-52.71Z" fill="url(#b)"/><path opacity=".3" d="M127.085 153.194c5.674-.503 15.923-2.948 19.773-8.006 3.549-4.674-.775-11.026 1.849-15.605 2.625-4.578 17.323-7.167 21.473-12.416 4.924-6.233-5.725-12.201-.55-16.42 5.174-4.219 22.322-8.365 23.972-13.735 1.65-5.37-5.124-5.609 1.25-15.34 5.399-8.247 12.623-19.033 6.699-24.115-6.299-5.417-14.773 2.9-19.323 9.54-5.874 8.534-10.798-1.174-17.123 2.589-5.724 3.404-6.324 23.898-10.773 27.71-4.425 3.81-12.349.24-18.548 6.927-6.224 6.688 1.475 18.17-1.825 23.275-3.3 5.106-11.724 2.541-16.448 9.804-4.749 7.263 9.574 25.792 9.574 25.792Z" fill="url(#c)"/><path opacity=".3" d="M135.559 149.934c3.1 1.486 9.249 3.404 12.923 1.99 3.4-1.319 3.3-5.945 6.225-7.503 2.899-1.558 11.373 1.654 15.298.24 4.649-1.702 1.15-8.078 5.249-8.654 4.1-.575 14.373 2.589 17.023.336 2.675-2.253-.75-4.482 5.824-7.551 5.575-2.588 12.949-5.944 11.599-10.403-1.45-4.746-8.624-3.068-13.223-1.054-5.925 2.612-5.175-3.956-9.724-3.979-4.1-.024-11.324 10.403-14.898 11.002-3.575.599-6.475-3.692-11.949-2.157-5.474 1.534-5.374 9.851-8.799 11.481-3.424 1.63-6.924-2.325-11.823-.024-4.9 2.254-3.725 16.276-3.725 16.276Z" fill="url(#d)"/><path opacity=".3" d="M.416 100.778c-4.9 18.769 35.12 29.148 34.946 32.839-.175 3.692-20.748.552-16.948 10.691 3.524 9.396 35.62 14.095 59.542 4.291.7-.288 18.373-27.59 6.7-44.297-11.674-16.708-16.323 11.218-21.973 10.307-5.649-.911 8-34.925-3.35-42.667-11.748-8.03-16.322 16.563-21.822 12.584-5.2-3.763-6.774-38.952-21.647-34.877-.55.144-1.1.336-1.675.6-.3.143-.625.287-.925.455-17.298 9.133 13.749 47.15 6.325 48.324-7.4 1.223-16.699-7.742-19.173 1.75Z" fill="url(#e)"/></g><path d="m79 101.856-35.5 8.66 94 12.028 32-8.66L79 101.856Z" fill="url(#f)"/><path d="m138 121.83-94-11.546v31.753l94 16.357V121.83Z" fill="url(#g)"/><path d="m169.5 113.884-31.5 8.179v36.331l31.5-11.546v-32.964Z" fill="url(#h)"/><g clip-path="url(#i)"><path d="M80.76 122.192c-5.63 3.249-7.478 10.277-4.137 15.704 3.388 5.451 10.692 7.23 16.322 3.981 5.675-3.226 7.513-10.288 4.136-15.705s-10.681-7.195-16.321-3.98Zm-4.154 11.893c-.848-.973-.683-2.393.293-3.199.737-.587 1.718-.653 2.524-.297a2.223 2.223 0 0 1 .76-2.336c1.011-.816 2.486-.657 3.324.282.848.973.857 1.971.673 3.211-.153.971-.323 2.133-.686 3.536a16.119 16.119 0 0 1-3.541.005c-1.288-.177-2.499-.229-3.347-1.202Zm14.919 5.504c-2.638 1.517-10.274-.46-7.327-1.364 5.226-1.612 5.226-1.612 9.614-5.496 2.207-2.021.385 5.333-2.287 6.86Zm1.579-11.876c-.373.887-.9 1.895-1.674 2.975-1.458-.349-2.59-.758-3.547-1.106-1.248-.411-2.143-.926-2.625-2.081-.483-1.155.1-2.475 1.3-2.939a2.42 2.42 0 0 1 2.492.453c.034-.863.59-1.656 1.485-1.993 1.2-.465 2.572.095 3.054 1.25.504 1.223-.001 2.298-.485 3.441Z" fill="#fff"/></g><g clip-path="url(#j)" fill-rule="evenodd" clip-rule="evenodd"><path d="M150 94.65c0 8.33-13.833 15.087-30.865 15.087-17.031 0-30.836-6.757-30.836-15.087 0-2.415 13.805-4.369 30.836-4.369 17.032 0 30.865 1.981 30.865 4.37Z" fill="url(#k)"/><path d="M149.72 95.22c-2.021 2.144-14.956 3.772-30.584 3.772-15.657 0-28.564-1.628-30.584-3.772 1.992-2.116 14.927-3.772 30.584-3.772 15.656 0 28.563 1.656 30.584 3.772Z" fill="url(#l)"/><path d="M78.815 81.735c9.99-13.35 19.726-23.01 21.718-21.6 2.02 1.412-4.433 13.378-14.422 26.7-9.99 13.351-19.754 23.01-21.746 21.599-2.02-1.383 4.433-13.35 14.45-26.7Z" fill="#63B0B8"/><path d="M100.561 60.136c6.986 4.884 4.545 19.672-5.444 32.995-9.988 13.35-23.765 20.215-30.752 15.303-2.02-1.383 4.433-13.377 14.45-26.7 10.017-13.35 19.726-23.01 21.746-21.598Z" fill="url(#m)"/><path d="M100.898 60.678c.617 2.822-5.612 13.92-14.787 26.158-9.203 12.264-18.126 21.408-21.1 21.734-.617-2.822 5.612-13.92 14.787-26.157 9.175-12.265 18.126-21.409 21.1-21.734Z" fill="url(#n)"/></g><defs><linearGradient id="b" x1="4.598" y1="81.312" x2="210.011" y2="81.312" gradientUnits="userSpaceOnUse"><stop stop-color="#FFE2E4"/><stop offset="1" stop-color="#A4B8EA"/></linearGradient><linearGradient id="c" x1="191.108" y1="84.289" x2="135.946" y2="119.235" gradientUnits="userSpaceOnUse"><stop stop-color="#FFDDDF"/><stop offset="1" stop-color="#55E1F4"/></linearGradient><linearGradient id="d" x1="199.058" y1="127.353" x2="178.499" y2="157.904" gradientUnits="userSpaceOnUse"><stop stop-color="#FFDDDF"/><stop offset="1" stop-color="#55E1F4"/></linearGradient><linearGradient id="e" x1="75.766" y1="86.843" x2="21.06" y2="122.959" gradientUnits="userSpaceOnUse"><stop stop-color="#55E1F4" stop-opacity=".21"/><stop offset="1" stop-color="#FFDDDF"/></linearGradient><linearGradient id="f" x1="40.998" y1="102.579" x2="171.427" y2="102.579" gradientUnits="userSpaceOnUse"><stop stop-color="#71DBE9"/><stop offset="1" stop-color="#B5F3FF"/></linearGradient><linearGradient id="g" x1="43.999" y1="130.491" x2="153.939" y2="130.491" gradientUnits="userSpaceOnUse"><stop stop-color="#95DFEF"/><stop offset="1" stop-color="#47CCDE"/></linearGradient><linearGradient id="h" x1="137.999" y1="144.924" x2="247.939" y2="144.924" gradientUnits="userSpaceOnUse"><stop stop-color="#95DFEF"/><stop offset="1" stop-color="#47CCDE"/></linearGradient><linearGradient id="k" x1="88.298" y1="100.009" x2="149.966" y2="100.009" gradientUnits="userSpaceOnUse"><stop stop-color="#C6F1FB"/><stop offset="1" stop-color="#88EBF9"/></linearGradient><linearGradient id="l" x1="88.551" y1="95.22" x2="149.686" y2="95.22" gradientUnits="userSpaceOnUse"><stop stop-color="#B6E4EE"/><stop offset="1" stop-color="#80DAE7"/></linearGradient><linearGradient id="m" x1="63.995" y1="85.012" x2="104.523" y2="85.012" gradientUnits="userSpaceOnUse"><stop stop-color="#DCF9FF"/><stop offset="1" stop-color="#84ECFB"/></linearGradient><linearGradient id="n" x1="64.968" y1="84.625" x2="100.92" y2="84.625" gradientUnits="userSpaceOnUse"><stop stop-color="#B7E2EC"/><stop offset="1" stop-color="#98E9F4"/></linearGradient><clipPath id="a"><path fill="#fff" d="M0 0h210v162.614H0z"/></clipPath><clipPath id="i"><path fill="#fff" transform="matrix(.95935 -.28222 .30282 .95305 72 124.436)" d="M0 0h23.75v23.004H0z"/></clipPath><clipPath id="j"><path fill="#fff" transform="translate(64 60)" d="M0 0h86v50.035H0z"/></clipPath></defs></svg>