<svg width="226" height="143" fill="none" xmlns="http://www.w3.org/2000/svg"><path opacity=".4" d="M106.413 142.19c45.49 0 82.367-1.813 82.367-4.05s-36.877-4.05-82.367-4.05-82.368 1.813-82.368 4.05 36.877 4.05 82.368 4.05Z" fill="url(#a)"/><path opacity=".5" d="M68.97 135.994S58.667 91.95 45.488 66.441C32.31 40.93 18.293 32.509 18.293 32.509s6.645 11.427 10.833 26.582c4.216 15.128 5.305 31.088 11.867 45.895 9.996 22.398 27.977 31.008 27.977 31.008Z" fill="url(#b)"/><path opacity=".5" d="M63.749 135.431s-10.415-25.965-20.83-40.37c-10.414-14.404-19.768-18.32-19.768-18.32s5.11 6.384 9.103 15.263c3.992 8.851 6.142 18.481 11.56 26.957 8.18 12.768 19.935 16.47 19.935 16.47Z" fill="url(#c)"/><path d="M166.08 80.255c9.946 0 18.009-7.746 18.009-17.301 0-9.556-8.063-17.302-18.009-17.302-9.947 0-18.01 7.746-18.01 17.301 0 9.556 8.063 17.302 18.01 17.302Z" fill="url(#d)"/><path d="M84.075 136.692h-27.14c-2.289-19.367-2.01-38.975.783-58.342h20.996c-.837 19.367.95 38.975 5.361 58.342Z" fill="url(#e)"/><path d="M166.778 122.099c-26.19-17.14-53.469-31.49-81.419-42.97.587-10.516.587-21.057.028-31.572 27.977-11.668 55.256-26.287 81.391-43.75a376.916 376.916 0 0 1 0 118.292Z" fill="url(#f)"/><path d="M166.778 3.78a399.727 399.727 0 0 1-9.438 6.143 376.318 376.318 0 0 1-.028 106.114 911.963 911.963 0 0 1 9.466 6.036 376.921 376.921 0 0 0 0-118.292Z" fill="url(#g)"/><path d="M49.062 49.81h-5.417c-3.49 0-6.31 2.71-6.31 6.062v14.136c0 3.353 2.82 6.062 6.31 6.062h5.417c3.49 0 6.31-2.709 6.31-6.062V55.872c0-3.353-2.82-6.062-6.31-6.062Z" fill="url(#h)"/><path d="M89.576 42.031H50.234c-2.373 0-4.3 1.851-4.3 4.131v33.583c0 2.28 1.927 4.131 4.3 4.131h39.342c2.373 0 4.3-1.85 4.3-4.13V46.161c0-2.28-1.927-4.13-4.3-4.13Z" fill="url(#i)"/><path d="m56.88 17.756-3.378-.886 1.787-6.223 2.066.537-.475 6.572Z" fill="#EFBC90"/><path d="M62.073 9.038c-.167 2.71-1.312 5.177-3.071 5.311-1.648.134-3.881-1.958-4.356-4.801-.503-3.004.698-4.828 3.127-4.963 2.597-.16 4.468 1.503 4.3 4.453Z" fill="#F4CAAB"/><path d="M57.495 8.93c.53-.992 1.62-1.233 2.429-1.34.81-.08 2.15.268 2.317-.295.168-.564-.167-2.656-3.518-3.22-3.015-.482-4.914 1.127-5.668 3.22-.67 1.824.447 3.916 1.955 3.62 1.535-.24 1.843-.777 2.485-1.984Z" fill="#004A62"/><path d="M57.355 9.816c.083.483-.196.912-.615.966-.418.053-.81-.295-.893-.778-.084-.483.195-.912.614-.966.419-.053.81.295.894.778Z" fill="#F4CAAB"/><path d="M58.611 1.313c.503 1.234-.195 3.192-1.787 3.809-1.591.59-3.49-.402-3.992-1.636-.503-1.234.67-2.012 2.289-2.629 1.564-.59 2.988-.778 3.49.456Z" fill="#004A62"/><path d="M73.103 32.723c-.028.59-.977 1.261-2.29 1.368-1.2.08-2.01-.563-2.01-1.18-.028-1.341 4.356-1.1 4.3-.188ZM74.526 39.268l-.251-.053-17.45-3.112-3.072-.536-.754 6.357 3.127.134 15.134.697-6.115 14.136-.28.671 1.285.59.363-.644 9.298-15.692c.083-.16.167-.348.195-.536.168-.939-.502-1.85-1.48-2.012Z" fill="#EFBC90"/><path d="m76.202 40.127-.224-.027-19.349-3.434-3.071-.536-.81 6.303 3.127.188 18.065 1.046.978 17.918.027.725h1.424l.056-.725 1.229-19.634c.084-.886-.53-1.663-1.452-1.824Z" fill="#EFBC90"/><path d="M59.114 34.628c2.205 3.433 15.356 2.253 17.255 4.748 2.54 3.353-7.874 16.335-7.874 16.335l-3.462-1.85s5.305-9.174 5.082-9.845c-.28-.831-14.715 1.154-18.624-2.012-3.043-2.467-1.535-7.376-1.535-7.376h9.158Z" fill="url(#j)"/><path d="M58.08 34.628c1.927 4.211 17.62 2.655 19.853 6.33 1.787 2.95-.056 17.999-.056 17.999l-4.16-.107s.028-12.795-.782-13.654c-.587-.643-17.255.832-21.416-2.011-3.546-2.441-1.535-8.53-1.535-8.53h8.097v-.027Z" fill="url(#k)"/><path d="M57.354 19.124 59.7 32.053l-1.117-.912 9.856.697.894.054-.084 1.663h-.894l-9.884-.134c-.53 0-1.005-.376-1.117-.859v-.053l-2.96-12.795-.334-1.422 3.015-.563.28 1.395Z" fill="#EFBC90"/><path d="M52.692 19.419c-.223 3.085 1.843 11.132 5.138 13.894 1.954 1.637 8.432.537 8.432.537l.307-2.44s-4.858.696-5.975-2.013c-1.117-2.709-1.815-10.112-3.462-11.239-1.396-.992-4.328-.134-4.44 1.26Z" fill="url(#l)"/><path d="M54.283 16.549s1.787 1.61 3.658.644c0 0 .419 6.49 1.145 9.146.726 2.656 2.931 9.657 2.931 9.657l-13.374-.43c-.195-5.9 2.374-12.526 5.64-19.017Z" fill="#DBC6AF"/><path d="M53.64 16.012s-6.7 8.986-5.751 18.83c0 0-.614 1.905 6.645 1.878 7.26-.027 7.706-.992 7.706-.992-2.122-5.338-3.713-11.347-4.355-18.536.056 0-2.68 0-4.244-1.18Z" fill="url(#m)"/><path d="M55.819 21.136a84.463 84.463 0 0 0-2.82 4.56 47.665 47.665 0 0 0-1.257 2.333c-.39.778-.753 1.583-1.005 2.334l-.167.563-.14.617c-.084.43-.195.858-.251 1.288a74.072 74.072 0 0 0-.447 2.628c-.251 1.77-.475 3.541-.67 5.311l-.084.859-1.73-.107.027-.859c.084-1.824.195-3.621.363-5.418.084-.912.168-1.824.28-2.736.055-.456.139-.912.195-1.368l.14-.698c.055-.241.11-.51.195-.75.279-.966.614-1.825 1.005-2.683.363-.858.782-1.69 1.2-2.521a69.221 69.221 0 0 1 2.68-4.855l.755-1.261 2.624 1.556-.893 1.207Z" fill="#F4CAAB"/><path d="M52.775 18.05c-2.4 2.066-3.964 6.921-5.137 10.972-1.173 4.05-.642 10.273-.642 10.273l2.652.215s.447-6.304 1.62-8.986c1.172-2.683 6.03-8.477 5.668-10.381-.335-1.69-3.072-3.004-4.16-2.092Z" fill="url(#n)"/><path d="M47.136 46.591c-.587-.134-1.034-1.529-.782-3.272.251-1.61 1.117-2.549 1.759-2.441 1.368.241-.056 5.955-.977 5.713Z" fill="#F4CAAB"/><path d="M48.895 44.392c.279-.027.502-.725.446-1.61-.056-.831-.419-1.341-.67-1.341-.614.027-.167 3.004.224 2.95Z" fill="#F4CAAB"/><path d="m81.897 63.06-1.088-.187-3.965-1.475v.026s-.056.644-.866.778c-.614.08-1.005-.053-1.172-.16-.028-.027-.084-.054-.084-.054-.28 0-.475.429-.475.939 0 .16.028.322.056.456v.724h7.902v-.724c0-.188-.112-.322-.308-.322ZM69.695 62.041l-.725-.777-2.178-3.514-.028.026s-.447.483-1.173.108c-.53-.295-.754-.644-.81-.805 0-.054-.028-.08-.028-.107-.195-.161-.642.053-.977.456a1.588 1.588 0 0 0-.251.402l-.447.563 6.227 4.668.474-.564c.056-.16.056-.348-.084-.456Z" fill="#fff"/><path d="M72.014 31.65c-.084-.241-.81-.375-1.731-.214-.838.16-1.34.563-1.285.831.14.59 3.127-.214 3.016-.617Z" fill="#EFBC90"/><path d="m83.685 112.819-6.003-.564c-1.591-3.406-2.094-5.981-1.591-8.583.558-2.79 4.244-3.782 6.868-1.583 2.513 2.119 1.731 9.254.726 10.73Z" fill="#004A62"/><path d="m80.641 114.24-3.378-.322.614-6.169 2.066.188.698 6.303Z" fill="#EFBC90"/><path d="M84.048 105.147c.307 2.602-.363 5.097-2.01 5.526-1.536.375-3.993-1.234-4.942-3.836-.978-2.763-.168-4.667 2.093-5.204 2.43-.59 4.496.698 4.859 3.514Z" fill="#F4CAAB"/><path d="M80.027 100.991c-.754-.081-1.284-.054-1.982.214-1.09.429-2.597 1.556-3.155 4.346-.53 2.601.446 3.996-2.122 6.249l6.003.564c.949-1.341-.14-4.614-.335-5.204.223-.51.502-1.073 1.424-1.234 1.982-.322 3.741-1.931 3.797-2.494.028-.537-1.592-2.254-3.63-2.441Z" fill="#004A62"/><path d="M79.44 106.327c.168.456-.027.912-.418 1.019-.391.135-.81-.134-.977-.563-.168-.456.028-.912.418-1.019.363-.134.81.107.978.563Z" fill="#F4CAAB"/><path d="m103.788 117.244-.195.135-14.408 10.139-2.54 1.797 4.327 4.909 2.262-2.092 10.973-10.167 6.561 14.056.308.671 1.34-.483-.224-.698-5.556-17.355a1.423 1.423 0 0 0-.279-.536c-.614-.778-1.759-.966-2.569-.376Z" fill="#EFBC90"/><path d="m105.128 118.908-.196.107-17.171 9.469-2.737 1.502 3.658 5.338 2.513-1.824 14.575-10.488 12.9 13.116.53.537 1.089-.885-.447-.591-12.369-15.852c-.558-.671-1.563-.885-2.345-.429Z" fill="#EFBC90"/><path d="M89.632 124.889c4.132.805 12.313-9.254 15.524-8.852 4.3.537 7.036 16.792 7.036 16.792l-3.797 1.153s-3.351-10.058-3.993-10.354c-.837-.375-9.27 11.132-14.38 11.696-3.964.429-6.672-3.997-6.672-3.997l6.282-6.438Z" fill="url(#o)"/><path d="M87.482 126.016c4.328 2.012 15.328-8.986 19.517-7.564 3.378 1.153 12.145 13.84 12.145 13.84l-3.266 2.522s-8.656-9.844-9.857-9.978c-.893-.108-12.676 11.426-17.785 11.829-4.384.348-6.953-5.58-6.953-5.58l6.199-5.069Z" fill="url(#p)"/><path d="m81.116 114.696 8.405 10.166-1.452-.295 8.907-3.836.81-.348.753 1.502-.81.402-8.655 4.372a1.225 1.225 0 0 1-1.424-.241l-.056-.054-8.879-9.79-1.005-1.1 2.373-1.904 1.033 1.126Z" fill="#EFBC90"/><path d="M77.208 117.083c1.312 2.79 7.232 8.745 11.448 9.657 2.513.536 7.427-3.246 7.427-3.246l-.922-2.253s-3.88 2.817-6.17.966c-2.29-1.851-6.534-7.967-8.516-8.208-1.731-.242-3.853 1.824-3.267 3.084Z" fill="url(#q)"/><path d="M77.514 114.133s2.4.509 3.518-1.261c0 0 3.825 5.392 5.891 7.35 2.066 1.931 7.706 6.92 7.706 6.92l-11.81 6.25c-3.323-5.043-4.663-12.017-5.305-19.259Z" fill="#76D3F4"/><path d="M76.788 113.838s-1.005 11.078 5.11 19.125c0 0 .502 1.958 6.757-1.663 6.282-3.621 6.142-4.667 6.142-4.667-4.69-3.568-9.27-7.994-13.681-13.895 0 .027-2.346 1.368-4.328 1.1Z" fill="url(#r)"/><path d="m82.066 116.332 7.762 10.891-1.424-.403 9.325-3.299.838-.295.642 1.556-.837.348-9.103 3.836a1.198 1.198 0 0 1-1.396-.349l-.028-.053-8.264-10.542-.922-1.153 2.513-1.744.894 1.207Z" fill="#F4CAAB"/><path d="M77.96 118.478c1.118 2.924 6.478 9.415 10.695 10.622 2.484.725 8.013-2.87 8.013-2.87l-.782-2.36s-4.132 2.602-6.338.563c-2.206-2.039-6.338-8.932-8.32-9.308-1.76-.322-3.798 2.039-3.267 3.353Z" fill="url(#s)"/><path d="M101.414 119.122c.279.537-.195 1.583-1.284 2.307-1.005.671-2.038.483-2.373-.054-.699-1.153 3.238-3.084 3.657-2.253Z" fill="#EFBC90"/><path d="M100.018 118.559c-.195-.161-.893.107-1.563.724-.615.59-.81 1.18-.615 1.368.42.429 2.513-1.824 2.178-2.092Z" fill="#EFBC90"/><path d="m118.558 136.182-1.34-.215-4.887-1.77v.027s-.055.804-1.061.965c-.753.108-1.228-.053-1.424-.161-.055-.053-.083-.053-.111-.053-.335 0-.587.509-.587 1.153 0 .215.028.402.084.563v.886l9.717-.108v-.885a.396.396 0 0 0-.391-.402Z" fill="#F2F2F2"/><path d="m126.516 136.638-1.34-.215-4.887-1.77v.027s-.055.804-1.061.965c-.753.108-1.228-.053-1.424-.161-.055-.053-.083-.053-.111-.053-.335 0-.587.509-.587 1.153 0 .215.028.402.084.563v.886l9.717-.108v-.885a.466.466 0 0 0-.391-.402Z" fill="#fff"/><path d="m107.892 115.555-4.97-1.771h-.028l-.447.054c-.027 0-.027.027-.055.027l-1.871 5.123c0 .027-.028.027-.028.027l-4.523 1.716.056.296c0 .026.028.026.028.053l5.109 2.146h.056l4.523-1.717.251-.107c.028 0 .028-.027.028-.054l.028-.321 1.871-5.446c.028.027 0-.026-.028-.026Z" fill="url(#t)"/><path d="m107.166 115.715-4.467-1.555c-.112-.054-.224 0-.279.107l-1.732 4.694 4.97 2.092 1.704-4.935a.317.317 0 0 0-.196-.403Z" fill="#fff"/><path d="m105.744 121.241-5.222-2.199-4.523 1.743 5.221 2.2 4.524-1.744Z" fill="url(#u)"/><path d="m104.821 121.161-4.188-1.771-2.122.778 4.16 1.771 2.15-.778Z" fill="url(#v)"/><path d="m101.052 121.509-1.76-.751-.92.322 1.786.751.894-.322Z" fill="url(#w)"/><path d="M102.336 122.395c.223.563-.335 1.555-1.508 2.172-1.061.564-2.094.295-2.346-.268-.614-1.18 3.491-2.763 3.854-1.904Z" fill="#F4CAAB"/><path d="M100.968 121.724c-.195-.188-.893.027-1.647.59-.67.51-.922 1.1-.754 1.314.419.456 2.708-1.609 2.401-1.904Z" fill="#F4CAAB"/><path d="M78.715 25.427c-.28-.08-.559.054-.642.322l-2.01 6.09h-6.004a.491.491 0 0 0-.502.482c0 .268.223.483.502.483h6.394a.505.505 0 0 0 .503-.43l2.094-6.356c.084-.215-.056-.51-.335-.59Z" fill="#004A62"/><path d="M76.09 31.838h.307l1.954-5.981h-.307l-1.954 5.981Z" fill="#fff"/><path d="M23.095 77.867h-3.713v-6.813h2.261l1.452 6.813Z" fill="#EFBC90"/><path d="M25.832 67.594c.614 2.79.168 5.606-1.591 6.223-1.648.563-4.496-.939-5.808-3.702-1.368-2.897-.698-5.096 1.731-5.9 2.597-.832 4.97.321 5.668 3.379Z" fill="#F4CAAB"/><path d="M20.666 63.249c-2.708.214-4.188 2.548-4.02 4.881.167 2.173 2.568 3.327 2.568 3.327s.782-2.2 2.095-2.549c1.814-.483 1.033-2.038 1.87-2.226.894-.188 2.82-.858 2.792-2.092-1.228.027-2.29-1.583-5.305-1.341Z" fill="#004A62"/><path d="M20.945 69.337c.224.456.056.993-.335 1.154-.418.188-.92-.054-1.116-.537-.224-.456-.056-.992.335-1.153.39-.161.893.08 1.116.536Z" fill="#F4CAAB"/><path d="M20.666 68.855s.195 3.03.81 4.157c.53.993 2.82 2.039 4.048-.348 0 0-1.256.241-1.117-.269.168-.59 1.452-.617 1.452-.617s.252 0 .307-.241c.056-.322-.111-.858-.111-.858s-1.703.59-2.457.59c-.838 0-1.592-.564-2.318-2.441h-.614v.027Z" fill="#004A62"/><path d="m31.5 135.458-3.406-18.294-2.318-9.013-2.317-9.04-.782-3.084-6.673 2.038 1.2 2.951 3.519 8.584c1.172 2.87 2.373 5.74 3.518 8.61l5.724 17.623.25.724 1.453-.348-.168-.751Z" fill="#EFBC90"/><path d="m19.187 96.107-.28 3.166-1.507 17.864-14.072 6.33-.726.322.53 1.342.754-.215 16.138-4.694c.587-.188 1.09-.644 1.229-1.261l.056-.268 4.104-18.508.698-3.085-6.924-.993Z" fill="#EFBC90"/><path d="m14.998 94.15 12.48 2.333 3.91 35.863-4.188.563-12.202-38.76Z" fill="url(#x)"/><path d="m14.384 96.537 12.592-1.69s-1.926 22.451-5.696 25.321c-2.094 1.583-13.765 4.265-13.765 4.265L6.26 121s8.767-3.407 9.52-4.48c.783-1.126-1.395-19.983-1.395-19.983Z" fill="url(#y)"/><path d="m23.347 79.128 8.265 11.347-1.508-.403 9.745-3.54.893-.322.698 1.636-.865.375-9.494 4.104c-.53.215-1.116.08-1.451-.348l-.028-.054-8.796-10.97-.977-1.208 2.625-1.85.893 1.233Z" fill="#EFBC90"/><path d="M19.047 81.408c1.2 3.058 6.925 9.844 11.364 11.078 2.625.725 8.32-3.111 8.32-3.111l-.837-2.468s-4.328 2.763-6.645.644c-2.318-2.12-6.422-8.906-8.516-9.281-1.843-.322-4.216 1.743-3.686 3.138Z" fill="url(#z)"/><path d="M19.633 76.419s1.955 1.636 3.881.536c0 0 .67 6.814 1.536 9.603.866 2.79 3.434 10.086 3.434 10.086H14.356c-.363-6.196 2.066-13.278 5.277-20.225Z" fill="#DBC6AF"/><path d="M18.963 75.856s-6.757 9.71-5.389 20.064c0 0-.586 2.038 7.092 1.743 7.679-.268 8.098-1.287 8.098-1.287-2.43-5.553-4.3-11.856-5.25-19.42.028.026-2.848.107-4.55-1.1Z" fill="url(#A)"/><path d="M21.169 80.684c-.95 1.61-1.899 3.272-2.764 4.935-.419.832-.838 1.663-1.2 2.522-.364.831-.727 1.69-.95 2.521-.056.215-.112.403-.168.617l-.14.67c-.083.457-.139.913-.223 1.369-.14.912-.25 1.85-.335 2.79a127.607 127.607 0 0 0-.446 5.632l-.056.912-1.843-.053v-.912c0-1.932.028-3.81.112-5.74.055-.966.083-1.932.167-2.898.028-.482.084-.965.14-1.448l.111-.751c.056-.268.084-.536.168-.778.251-1.02.558-1.958.921-2.87.363-.912.726-1.824 1.145-2.71.81-1.77 1.648-3.513 2.569-5.257l.726-1.368 2.876 1.503-.81 1.314Z" fill="#F4CAAB"/><path d="M17.846 77.572c-2.429 2.28-3.825 7.484-4.886 11.776-1.033 4.319-.195 10.863-.195 10.863l2.792.108s.168-6.653 1.256-9.55c1.09-2.896 5.948-9.2 5.473-11.185-.419-1.743-3.35-3.03-4.44-2.012Z" fill="url(#B)"/><path d="M44.986 85.512c.224.59-.53 1.663-1.898 2.28-1.257.59-2.374.268-2.653-.295-.558-1.287 4.216-2.897 4.551-1.985Z" fill="#EFBC90"/><path d="M15.39 105.308c.279-.081.39-.832.195-1.744-.196-.858-.67-1.341-.95-1.287-.642.134.336 3.165.754 3.031Z" fill="#F4CAAB"/><path d="M37.084 137.469s-.977-.241-1.228-.348c-1.09-.349-3.825-1.422-3.825-1.422s-.335.536-1.201.617c-.614.08-1.089-.134-1.117-.134-.28 0-.503.402-.53.939 0 .161 0 .348.055.482l-.027.725 8.125.241.028-.751c.028-.161-.112-.322-.28-.349ZM3.662 130.576s-.028-.966-.028-1.234c.056-1.073.335-3.943.335-3.943s-.614-.161-.977-.912c-.251-.564-.167-1.047-.167-1.047-.084-.241-.559-.348-1.09-.214-.167.054-.334.107-.474.188l-.726.187 2.15 7.538.754-.188c.14-.027.251-.188.223-.375ZM41.486 88.494l.541.216 2.476-5.722-.541-.216-2.476 5.722Z" fill="#004A62"/><path d="M43.199 84.815c-.196-.215-.95-.027-1.76.536-.725.51-1.005 1.127-.837 1.341.39.51 2.904-1.555 2.597-1.877Z" fill="#EFBC90"/><path d="M13.965 107.91c-.642-.054-1.34-1.422-1.396-3.273-.028-1.716.726-2.843 1.368-2.843 1.48 0 1.033 6.196.028 6.116Z" fill="#F4CAAB"/><path d="M223.626 65.207h-23.091c-1.312 0-2.373-1.02-2.373-2.28 0-1.261 1.061-2.28 2.373-2.28h23.091c1.313 0 2.374 1.019 2.374 2.28 0 1.26-1.061 2.28-2.374 2.28Z" fill="url(#C)"/><path d="M197.435 37.015a2.392 2.392 0 0 1-2.15-1.314c-.558-1.127-.027-2.495 1.145-3.004l18.847-8.45c1.173-.536 2.597-.027 3.127 1.1.559 1.127.028 2.494-1.144 3.004l-18.819 8.45a2.713 2.713 0 0 1-1.006.214Z" fill="url(#D)"/><path d="M216.282 101.875a2.71 2.71 0 0 1-1.005-.215l-18.847-8.45c-1.172-.536-1.703-1.877-1.145-3.004a2.4 2.4 0 0 1 3.128-1.1l18.847 8.45c1.172.536 1.703 1.878 1.144 3.004a2.366 2.366 0 0 1-2.122 1.315Z" fill="url(#E)"/><defs><linearGradient id="a" x1="24.043" y1="138.14" x2="188.689" y2="138.14" gradientUnits="userSpaceOnUse"><stop stop-color="#9DDDEB"/><stop offset="1" stop-color="#6AD7E6"/></linearGradient><linearGradient id="b" x1="18.292" y1="84.272" x2="68.967" y2="84.272" gradientUnits="userSpaceOnUse"><stop stop-color="#61C1D7"/><stop offset="1" stop-color="#32A3C7"/></linearGradient><linearGradient id="c" x1="71.564" y1="143.185" x2="14.013" y2="63.399" gradientUnits="userSpaceOnUse"><stop stop-color="#B8C7EE"/><stop offset=".543" stop-color="#A3B7E9"/></linearGradient><linearGradient id="d" x1="148.07" y1="62.954" x2="184.069" y2="62.954" gradientUnits="userSpaceOnUse"><stop stop-color="#9DDDEB"/><stop offset="1" stop-color="#6AD7E6"/></linearGradient><linearGradient id="e" x1="55.4" y1="107.533" x2="84.074" y2="107.533" gradientUnits="userSpaceOnUse"><stop stop-color="#61C1D7"/><stop offset="1" stop-color="#32A3C7"/></linearGradient><linearGradient id="f" x1="85.353" y1="62.945" x2="171.443" y2="62.945" gradientUnits="userSpaceOnUse"><stop stop-color="#fff"/><stop offset="1" stop-color="#E7ECF9"/></linearGradient><linearGradient id="g" x1="169.396" y1="46.168" x2="156.976" y2="47.325" gradientUnits="userSpaceOnUse"><stop stop-color="#FFDDDF"/><stop offset="1" stop-color="#55E1F4"/></linearGradient><linearGradient id="h" x1="46.367" y1="44.07" x2="46.367" y2="78.942" gradientUnits="userSpaceOnUse"><stop stop-color="#fff"/><stop offset="1" stop-color="#E7ECF9"/></linearGradient><linearGradient id="i" x1="86.916" y1="57.025" x2="63.292" y2="78.135" gradientUnits="userSpaceOnUse"><stop stop-color="#FFDDDF"/><stop offset="1" stop-color="#55E1F4"/></linearGradient><linearGradient id="j" x1="49.603" y1="45.408" x2="76.765" y2="45.297" gradientUnits="userSpaceOnUse"><stop stop-color="#00BFC9"/><stop offset="1" stop-color="#016F92"/></linearGradient><linearGradient id="k" x1="49.438" y1="47.068" x2="78.709" y2="46.956" gradientUnits="userSpaceOnUse"><stop stop-color="#00BFC9"/><stop offset="1" stop-color="#016F92"/></linearGradient><linearGradient id="l" x1="52.675" y1="25.974" x2="66.568" y2="25.974" gradientUnits="userSpaceOnUse"><stop stop-color="#61C1D7"/><stop offset="1" stop-color="#32A3C7"/></linearGradient><linearGradient id="m" x1="47.797" y1="26.37" x2="62.24" y2="26.37" gradientUnits="userSpaceOnUse"><stop stop-color="#61C1D7"/><stop offset="1" stop-color="#32A3C7"/></linearGradient><linearGradient id="n" x1="46.876" y1="28.635" x2="56.954" y2="28.635" gradientUnits="userSpaceOnUse"><stop stop-color="#61C1D7"/><stop offset="1" stop-color="#32A3C7"/></linearGradient><linearGradient id="o" x1="83.372" y1="125.908" x2="112.188" y2="125.771" gradientUnits="userSpaceOnUse"><stop stop-color="#00BFC9"/><stop offset="1" stop-color="#016F92"/></linearGradient><linearGradient id="p" x1="81.312" y1="127.71" x2="119.138" y2="127.461" gradientUnits="userSpaceOnUse"><stop stop-color="#00BFC9"/><stop offset="1" stop-color="#016F92"/></linearGradient><linearGradient id="q" x1="77.108" y1="120.386" x2="96.072" y2="120.386" gradientUnits="userSpaceOnUse"><stop stop-color="#9DDDEB"/><stop offset="1" stop-color="#6AD7E6"/></linearGradient><linearGradient id="r" x1="76.808" y1="123.188" x2="94.762" y2="122.984" gradientUnits="userSpaceOnUse"><stop stop-color="#A3B9D6"/><stop offset="1" stop-color="#C1ABFF"/></linearGradient><linearGradient id="s" x1="77.875" y1="122.146" x2="96.657" y2="122.146" gradientUnits="userSpaceOnUse"><stop stop-color="#9DDDEB"/><stop offset="1" stop-color="#6AD7E6"/></linearGradient><linearGradient id="t" x1="95.96" y1="118.603" x2="107.971" y2="118.467" gradientUnits="userSpaceOnUse"><stop stop-color="#FFC1C2"/><stop offset="1" stop-color="#FE958F"/></linearGradient><linearGradient id="u" x1="96.863" y1="119.093" x2="104.752" y2="123.184" gradientUnits="userSpaceOnUse"><stop stop-color="#FFE2E4"/><stop offset="1" stop-color="#FFC1C2"/></linearGradient><linearGradient id="v" x1="98.927" y1="119.363" x2="104.305" y2="122.152" gradientUnits="userSpaceOnUse"><stop stop-color="#FFC1C2"/><stop offset="1" stop-color="#FE958F"/></linearGradient><linearGradient id="w" x1="98.553" y1="120.734" x2="100.844" y2="121.922" gradientUnits="userSpaceOnUse"><stop stop-color="#FFC1C2"/><stop offset="1" stop-color="#FE958F"/></linearGradient><linearGradient id="x" x1="15.011" y1="113.968" x2="31.386" y2="113.946" gradientUnits="userSpaceOnUse"><stop stop-color="#00BFC9"/><stop offset="1" stop-color="#016F92"/></linearGradient><linearGradient id="y" x1="6.275" y1="109.975" x2="26.974" y2="109.929" gradientUnits="userSpaceOnUse"><stop stop-color="#00BFC9"/><stop offset="1" stop-color="#016F92"/></linearGradient><linearGradient id="z" x1="18.971" y1="85.41" x2="38.731" y2="85.41" gradientUnits="userSpaceOnUse"><stop stop-color="#61C1D7"/><stop offset="1" stop-color="#32A3C7"/></linearGradient><linearGradient id="A" x1="13.391" y1="86.778" x2="28.763" y2="86.778" gradientUnits="userSpaceOnUse"><stop stop-color="#61C1D7"/><stop offset="1" stop-color="#32A3C7"/></linearGradient><linearGradient id="B" x1="12.444" y1="88.77" x2="22.318" y2="88.77" gradientUnits="userSpaceOnUse"><stop stop-color="#61C1D7"/><stop offset="1" stop-color="#32A3C7"/></linearGradient><linearGradient id="C" x1="198.162" y1="62.927" x2="225.984" y2="62.927" gradientUnits="userSpaceOnUse"><stop stop-color="#9DDDEB"/><stop offset="1" stop-color="#6AD7E6"/></linearGradient><linearGradient id="D" x1="195.062" y1="30.524" x2="218.614" y2="30.524" gradientUnits="userSpaceOnUse"><stop stop-color="#9DDDEB"/><stop offset="1" stop-color="#6AD7E6"/></linearGradient><linearGradient id="E" x1="195.062" y1="95.384" x2="218.614" y2="95.384" gradientUnits="userSpaceOnUse"><stop stop-color="#9DDDEB"/><stop offset="1" stop-color="#6AD7E6"/></linearGradient></defs></svg>