<svg width="72" height="68" fill="none" xmlns="http://www.w3.org/2000/svg"><path fill-rule="evenodd" clip-rule="evenodd" d="M34.954.444c6.678 4.648 4.345 18.723-5.204 31.402C20.202 44.552 7.032 51.086.354 46.411-1.577 45.094 4.592 33.68 14.167 21 23.742 8.294 33.023-.9 34.954.444Z" fill="url(#a)"/><path fill-rule="evenodd" clip-rule="evenodd" d="M35.276.96c.59 2.686-5.364 13.248-14.135 24.895C12.343 37.528 3.814 46.231.97 46.541c-.59-2.686 5.364-13.248 14.135-24.895C23.876 9.973 32.433 1.27 35.276.96Z" fill="url(#b)"/><path fill-rule="evenodd" clip-rule="evenodd" d="M69.067 30.905C72.2 36.958 64.63 46.56 52.181 52.333c-12.46 5.79-25.11 5.574-28.23-.498-.918-1.73 8.454-7.864 20.923-13.626 12.48-5.78 23.287-9.054 24.193-7.304Z" fill="url(#c)"/><path fill-rule="evenodd" clip-rule="evenodd" d="M69.097 31.415c-.661 2.233-9.52 7.814-20.954 13.116-11.465 5.31-21.503 8.508-23.78 7.64.662-2.234 9.52-7.815 20.954-13.117 11.445-5.32 21.503-8.508 23.78-7.64Z" fill="url(#d)"/><defs><linearGradient id="a" x1="0" y1="24.119" x2="38.741" y2="24.119" gradientUnits="userSpaceOnUse"><stop stop-color="#fff"/><stop offset="1" stop-color="#E1FBFF"/></linearGradient><linearGradient id="b" x1=".93" y1="23.752" x2="35.297" y2="23.752" gradientUnits="userSpaceOnUse"><stop stop-color="#C1F8FF"/><stop offset="1" stop-color="#E1FBFF"/></linearGradient><linearGradient id="c" x1="32.877" y1="35.058" x2="61.657" y2="50.961" gradientUnits="userSpaceOnUse"><stop stop-color="#fff"/><stop offset="1" stop-color="#E1FBFF"/></linearGradient><linearGradient id="d" x1="33.733" y1="35.144" x2="59.262" y2="49.251" gradientUnits="userSpaceOnUse"><stop stop-color="#C1F8FF"/><stop offset="1" stop-color="#E1FBFF"/></linearGradient></defs></svg>