<svg width="213" height="17" fill="none" xmlns="http://www.w3.org/2000/svg"><g clip-path="url(#a)" fill="#fff"><path d="M6.779 9.941H5.066v3.098h1.642c1.57 0 1.998-.577 1.998-1.585.142-1.08-.571-1.513-1.927-1.513Zm-.856-5.979h-.857V7.06h.857c1.427 0 2.212-.504 2.212-1.585 0-1.152-.785-1.513-2.212-1.513ZM7.707 16.64H0V.217h7.136c3.425 0 5.708 1.656 5.708 4.394 0 1.657-1.07 3.025-2.497 3.457 1.926.216 3.282 1.873 3.282 3.818 0 3.026-2.283 4.754-5.922 4.754ZM25.475 5.62l1.213 4.177H24.19l1.285-4.178ZM22.763.216l-5.708 16.351h5.209l.856-2.953h4.71l.856 2.953h5.566L28.543.217h-5.78ZM45.811 17c-4.495 0-7.92-2.377-7.92-7.78V.218h5.423v9.436c0 1.801.927 2.881 2.497 2.881 1.57 0 2.498-1.08 2.498-2.88V.216h5.423v8.86C53.66 14.55 50.307 17 45.812 17ZM64.864 17.001c-2.64 0-4.995-.936-6.494-2.305l2.14-3.457c1.57 1.224 2.855 1.8 4.282 1.8.856 0 1.285-.36 1.285-.936 0-.864-.571-1.08-2.64-1.657-2.926-.936-4.496-2.16-4.496-4.898 0-3.602 2.712-5.475 6.779-5.475 2.14 0 4.139.865 5.352 1.657L68.93 5.332c-1.07-.865-2.14-1.225-3.282-1.225-1.07 0-1.428.504-1.428.937 0 .504.357.864 2.498 1.44 2.925.865 4.495 2.017 4.495 5.043-.071 3.17-2.426 5.474-6.35 5.474ZM84.201 17c-4.995 0-8.491-3.457-8.491-8.355C75.781 3.602 79.42 0 84.273 0c2.569 0 4.353 1.08 5.78 2.378L87.34 5.979c-.927-.936-1.712-1.585-3.14-1.585-1.783 0-3.21 1.585-3.21 3.962 0 2.377 1.284 4.034 3.424 4.034 1.214 0 2.355-.504 3.283-1.44l2.64 3.601c-1.57 1.441-3.282 2.45-6.137 2.45ZM105.037.217V6.34h-4.067V.217h-5.423V16.64h5.423v-5.618h4.067v5.618h5.423V.217h-5.423ZM141.144.217V16.64h10.56v-4.178h-5.351V.217h-5.209ZM163.407 4.322c-1.998 0-3.425 1.657-3.425 4.034s1.427 4.178 3.425 4.178c1.998 0 3.425-1.657 3.425-4.034s-1.427-4.178-3.425-4.178Zm0 12.678c-5.067 0-8.777-3.601-8.777-8.5 0-4.898 3.639-8.5 8.777-8.5 5.066 0 8.777 3.602 8.777 8.5 0 4.899-3.711 8.5-8.777 8.5ZM188.524.217l-3.496 6.627-3.639-6.627h-5.209V16.64h5.066V8.717l2.64 4.682h2.498l2.497-4.682v7.923h5.423V.217h-5.78ZM206.15 9.941h-1.641v3.098h1.641c1.57 0 1.998-.577 1.998-1.585 0-1.08-.714-1.513-1.998-1.513Zm-.856-5.979h-.857V7.06h.857c1.427 0 2.212-.504 2.212-1.585.071-1.152-.785-1.513-2.212-1.513Zm1.784 12.678h-7.707V.217h7.136c3.425 0 5.708 1.656 5.708 4.394 0 1.657-1.07 3.025-2.497 3.457 1.926.216 3.282 1.873 3.282 3.818 0 3.026-2.354 4.754-5.922 4.754ZM128.371 5.835h-5.209v5.403h5.209V5.835ZM128.371.217h-5.209V5.69h5.209V.217Z"/><path d="M128.371 11.094h-5.209v5.474h5.209v-5.474Z"/><path d="M123.233 5.835h-5.566v5.403h5.566V5.835ZM133.865 5.835h-5.423v5.403h5.423V5.835Z"/></g><defs><clipPath id="a"><path fill="#fff" d="M0 0h213v17H0z"/></clipPath></defs></svg>