<svg width="147" height="146" fill="#FFFFFF" xmlns="http://www.w3.org/2000/svg"><circle opacity="1" cx="73.498" cy="73" transform="rotate(-180 73.498 73)" fill="#EEFEFF" r="73"/><g clip-path="url(#a)"><path d="M93.106 71.934 61.938 36.475c-.542-.611-1.439-.638-2.003-.048-.565.589-.584 1.564-.044 2.18L90.12 73l-30.23 34.392c-.54.616-.52 1.592.044 2.18.273.287.628.428.98.428.373 0 .743-.16 1.023-.476l31.168-35.458a1.644 1.644 0 0 0 0-2.132Z" fill="#fff"/></g><defs><clipPath id="a"><path fill="#fff" transform="rotate(-180 46.749 55)" d="M0 0h74v74H0z"/></clipPath></defs></svg>