<svg width="147" height="146" fill="none" xmlns="http://www.w3.org/2000/svg"><circle opacity=".2" cx="73.5" cy="73" fill="#EEFEFF" r="73"/><g clip-path="url(#a)"><path d="m52.892 74.066 31.168 35.459c.542.611 1.439.638 2.003.048.565-.589.584-1.564.045-2.18L55.878 73l30.23-34.392c.54-.616.52-1.592-.044-2.18a1.353 1.353 0 0 0-.98-.428c-.374 0-.744.16-1.024.476L52.892 71.934a1.644 1.644 0 0 0 0 2.132Z" fill="#fff"/></g><defs><clipPath id="a"><path fill="#fff" transform="translate(52.5 36)" d="M0 0h74v74H0z"/></clipPath></defs></svg>