<svg aria-hidden="true" style="position:absolute;width:0;height:0;overflow:hidden" xmlns="http://www.w3.org/2000/svg"><defs>

<symbol id="advantage1" viewBox="0 0 34 32"><path d="M25.625 16.687c-4.222 0-7.697 3.101-8.033 7.032h-1.5a7.433 7.433 0 0 0-1.891-4.326l6.21-5.899a8.069 8.069 0 0 0 2.023 1.197l.054.02a8.224 8.224 0 0 0 3.117.602h.021-.001.02a8.347 8.347 0 0 0 3.173-.622l-.056.02a8.104 8.104 0 0 0 2.565-1.644l-.003.003a7.646 7.646 0 0 0 1.707-2.386l.019-.048a7.272 7.272 0 0 0 .634-2.981c0-.919-.17-1.819-.505-2.673a.661.661 0 0 0-.61-.407h-.007a.683.683 0 0 0-.235.041l.005-.002a.64.64 0 0 0-.366.322l-.002.004a.582.582 0 0 0-.017.482l-.001-.004c.267.664.422 1.433.422 2.239 0 1.403-.47 2.697-1.262 3.731l.011-.015a6.402 6.402 0 0 0-3.113-2.644l-.043-.015c.783-.632 1.283-1.572 1.283-2.622 0-1.895-1.624-3.437-3.619-3.437s-3.619 1.543-3.619 3.437c0 1.05.499 1.991 1.282 2.622a6.407 6.407 0 0 0-3.14 2.63l-.016.028a6.108 6.108 0 0 1-1.251-3.716v-.001c0-1.711.702-3.32 1.975-4.531 1.275-1.209 2.968-1.876 4.769-1.876h.019c.974 0 1.901.199 2.743.558l-.046-.017a.684.684 0 0 0 .264.053.66.66 0 0 0 .603-.373.616.616 0 0 0-.332-.822l-.004-.001a8.217 8.217 0 0 0-3.224-.647h-.044a8.347 8.347 0 0 0-3.173.622l.056-.02a8.104 8.104 0 0 0-2.565 1.644l.003-.003a7.649 7.649 0 0 0-1.708 2.386l-.019.048a7.159 7.159 0 0 0-.634 2.971v.01c0 1.033.213 2.036.634 2.979.32.72.749 1.381 1.28 1.974l-6.208 5.9a8.194 8.194 0 0 0-4.525-1.794l-.028-.002v-1.427c4.137-.319 7.401-3.619 7.401-7.63C16.116 3.435 12.501 0 8.057 0S-.002 3.435-.002 7.656c0 4.011 3.264 7.311 7.402 7.63v1.427c-4.139.319-7.402 3.619-7.402 7.63 0 4.222 3.615 7.656 8.059 7.656 4.222 0 7.697-3.101 8.033-7.032h1.501c.337 3.931 3.811 7.032 8.033 7.032 4.444 0 8.059-3.434 8.059-7.656s-3.615-7.656-8.059-7.656zM23.322 6.093c0-1.206 1.033-2.187 2.303-2.187s2.302.981 2.302 2.187c0 1.202-1.026 2.18-2.289 2.188h-.029c-1.263-.008-2.288-.985-2.288-2.188zm2.289 3.438h.028a5.073 5.073 0 0 1 4.532 2.817l.013.03c-1.248 1.088-2.855 1.685-4.558 1.685s-3.312-.598-4.56-1.687c.842-1.695 2.56-2.84 4.545-2.845h.001zM5.756 6.093c0-1.206 1.033-2.187 2.302-2.187s2.303.981 2.303 2.187c0 1.202-1.026 2.18-2.289 2.188h-.029c-1.263-.008-2.288-.985-2.288-2.188zm2.31 3.438h.007a5.073 5.073 0 0 1 4.53 2.813l.013.029a6.879 6.879 0 0 1-4.529 1.689h-.029.002-.029a6.89 6.89 0 0 1-4.537-1.696l.008.007c.843-1.693 2.559-2.837 4.543-2.842h.023zM8.059 1.25c3.719 0 6.744 2.874 6.744 6.407a6.133 6.133 0 0 1-1.264 3.73l.011-.015a6.41 6.41 0 0 0-3.111-2.641l-.043-.015c.783-.632 1.283-1.572 1.283-2.622 0-1.895-1.623-3.437-3.619-3.437S4.441 4.2 4.441 6.094c0 1.05.499 1.991 1.283 2.622a6.409 6.409 0 0 0-3.139 2.627l-.016.028a6.11 6.11 0 0 1-1.251-3.714c0-3.533 3.025-6.407 6.743-6.407zm0 29.5c-3.718 0-6.744-2.874-6.744-6.407s3.026-6.406 6.744-6.406c3.719 0 6.744 2.873 6.744 6.406s-3.025 6.407-6.744 6.407zm13.008-1.69c.845-1.696 2.566-2.841 4.556-2.841h.002a5.07 5.07 0 0 1 4.557 2.842 6.879 6.879 0 0 1-4.529 1.689h-.029.002-.028a6.887 6.887 0 0 1-4.538-1.697l.008.007zm4.558-4.092c-1.27 0-2.303-.981-2.303-2.187s1.033-2.188 2.303-2.188c1.269 0 2.302.981 2.302 2.188s-1.033 2.187-2.302 2.187zm5.491 3.091a6.406 6.406 0 0 0-3.112-2.64l-.043-.015c.784-.632 1.283-1.572 1.283-2.622 0-1.896-1.624-3.437-3.619-3.437s-3.619 1.541-3.619 3.437c0 1.05.499 1.991 1.283 2.621a6.409 6.409 0 0 0-3.139 2.627l-.016.028a6.112 6.112 0 0 1-1.252-3.713c0-3.533 3.025-6.407 6.744-6.407s6.744 2.873 6.744 6.406a6.132 6.132 0 0 1-1.265 3.731l.011-.015zm-19.567-7.048a.677.677 0 0 0-.911.173l-.001.002-3.441 4.904-1.742-2.128a.68.68 0 0 0-.925-.108l.002-.001a.605.605 0 0 0-.114.878l-.001-.001 2.302 2.813a.67.67 0 0 0 .516.241l.029-.001h-.001a.663.663 0 0 0 .522-.276l.001-.002 3.947-5.625a.606.606 0 0 0-.18-.866l-.003-.002zm20.117-18.18c0 .345-.295.626-.658.626s-.658-.28-.658-.626.295-.625.658-.625c.363 0 .658.28.658.625z"/></symbol>

<symbol id="advantage2" viewBox="0 0 33 32"><path d="M13.053 1.127c0-.334.281-.605.628-.605s.627.271.627.605v1.027a.617.617 0 0 1-.627.605.616.616 0 0 1-.628-.605V1.127zm6.175.904c-.115-.11-.272-.177-.444-.177s-.329.067-.444.177a.595.595 0 0 0-.184.428c0 .159.067.314.184.427.115.11.272.177.444.177s.329-.067.444-.177a.597.597 0 0 0 .184-.427.598.598 0 0 0-.183-.428zm-1.072 2.621c0-.334.281-.605.627-.605.348 0 .628.271.628.605v2.397a.617.617 0 0 1-.627.605.616.616 0 0 1-.628-.605V4.652zm12.766 11.332-1.459-.175a9.663 9.663 0 0 0-1.877-2.85l.004.004 1.073-4.374a.58.58 0 0 0-.119-.514l.001.001a.637.637 0 0 0-.49-.23H27.912c-1.781 0-3.386 1.078-4.017 2.659a9.335 9.335 0 0 0-1.305-.404l-.069-.014c-.337-.077-.675.124-.755.449s.129.65.466.727a8.824 8.824 0 0 1 4.154 2.225l-.003-.003a.602.602 0 0 0 .152.15 8.382 8.382 0 0 1 1.868 2.876l.019.057a.625.625 0 0 0 .513.394l1.832.221a.56.56 0 0 1 .502.547v3.047a.561.561 0 0 1-.502.548l-1.697.205a.622.622 0 0 0-.52.414l-.001.004a8.385 8.385 0 0 1-2.767 3.96.592.592 0 0 0-.227.465v3.341c0 .3-.254.544-.566.544h-3.644a.554.554 0 0 1-.565-.544v-1.273a.617.617 0 0 0-.628-.605h-5.277a.617.617 0 0 0-.628.605v1.273c0 .3-.254.544-.566.544h-3.644a.555.555 0 0 1-.565-.544v-2.358a.602.602 0 0 0-.325-.53l-.003-.002c-2.819-1.473-4.57-4.304-4.57-7.388 0-4.631 3.916-8.399 8.729-8.399h.787c.346 0 .627-.271.627-.605s-.281-.605-.627-.605h-.788c-4.663 0-8.589 3.091-9.683 7.256h-.46c-.849 0-1.539-.664-1.539-1.481s.691-1.48 1.539-1.48c.346 0 .628-.271.628-.605s-.282-.604-.628-.604c-1.542 0-2.796 1.206-2.796 2.689s1.255 2.691 2.797 2.691h.228a9.186 9.186 0 0 0-.072 1.144c0 3.406 1.868 6.541 4.899 8.27v2.007c0 .967.817 1.753 1.821 1.753h3.644c1.005 0 1.822-.786 1.822-1.753v-.669h4.021v.669c0 .967.817 1.753 1.821 1.753h3.644c1.005 0 1.821-.786 1.821-1.753v-3.062a9.631 9.631 0 0 0 2.786-3.904l.022-.066 1.306-.157c.913-.11 1.603-.861 1.603-1.747v-3.047c0-.886-.689-1.638-1.603-1.747zm-4.386-3.983a9.999 9.999 0 0 0-1.498-.976c.347-.96 1.194-1.674 2.203-1.896l-.705 2.873zm-1.168 3.869a.645.645 0 0 0-.888 0 .593.593 0 0 0-.184.427c0 .159.067.315.184.427.115.11.272.177.444.177s.329-.067.444-.177a.593.593 0 0 0 .184-.427.597.597 0 0 0-.184-.427zM7.521 19.439c0-.334-.282-.605-.628-.605s-.628.271-.628.605v.032c.002.333.283.6.628.6h.004a.616.616 0 0 0 .624-.608v-.024zm.38 1.989a5.662 5.662 0 0 0 2.4 2.766.591.591 0 0 1 .208.833l.001-.002a.644.644 0 0 1-.866.2l.003.002a6.881 6.881 0 0 1-2.92-3.366.596.596 0 0 1 .358-.779l.004-.001a.635.635 0 0 1 .811.348zm5.78-18.002c-1.455 0-2.639 1.139-2.639 2.539 0 1.399 1.183 2.538 2.639 2.538 1.454 0 2.638-1.139 2.638-2.538s-1.183-2.538-2.638-2.538zm0 3.868c-.762 0-1.382-.596-1.382-1.329 0-.734.62-1.33 1.382-1.33s1.382.596 1.382 1.329-.62 1.33-1.382 1.33zm7.349 6.042h.566c.347 0 .628.271.628.605s-.281.605-.628.605H13.43c-.346 0-.628-.271-.628-.605s.282-.604.628-.604h3.109a2.429 2.429 0 0 1-.392-1.33c0-1.4 1.183-2.538 2.639-2.538 1.454 0 2.638 1.139 2.638 2.539 0 .487-.144.942-.392 1.329zm-3.628-1.33c0 .733.62 1.33 1.382 1.33s1.382-.597 1.382-1.33-.62-1.329-1.382-1.329c-.762 0-1.382.596-1.382 1.329z"/></symbol>

<symbol id="advantage3" viewBox="0 0 34 32"><path d="M21.649 18.934h-.162c-2.262 0-4.486.159-6.663.466l.251-.029a32.492 32.492 0 0 0-1.359-.844l-.219-.12c-2.215-1.36-4.77-2.574-7.456-3.51l-.28-.085c-2.547-.805-4.131-.778-4.7.08-2.666 3.989-.074 10.027 5.777 13.462a16.232 16.232 0 0 0 8.102 2.314h.031c1.038 0 2.043-.138 2.999-.397l-.08.018c1.234.255 2.495.383 3.76.378 6.911 0 12.533-3.829 12.533-8.533 0-2.198-6.495-3.2-12.533-3.2zM2.74 15.296a9.226 9.226 0 0 1 2.718.554l-.064-.021c2.876.99 5.352 2.164 7.67 3.574l-.173-.098c6.267 3.665 8.858 6.854 8.449 7.468-.108.149-.94.4-3.373-.368-2.875-.991-5.351-2.17-7.667-3.585l.17.097c-6.268-3.66-8.859-6.854-8.449-7.467.046-.064.256-.155.718-.155zm4.712 12.171C2.848 24.736.388 20.331 1.35 16.929c1.271 2.047 4.849 4.751 8.545 6.901 2.207 1.358 4.753 2.572 7.429 3.509l.28.085c.847.274 1.727.454 2.62.534-2.842 2.325-8.146 2.176-12.772-.491zM21.648 29.6a18.11 18.11 0 0 1-1.788-.09 6.792 6.792 0 0 0 2.429-2.148l.015-.023c.348-.533.217-1.211-.273-2.005 4.215-.032 8.58-.534 10.75-1.6-1.111 3.344-5.68 5.866-11.132 5.866zm0-5.333h-.421a27.337 27.337 0 0 0-4.679-3.927l-.1-.063a46.922 46.922 0 0 1 5.183-.278h.02-.001c7.372 0 11.394 1.408 11.394 2.134s-4.022 2.133-11.394 2.133z"/><path d="M8.004 9.536c1.156 4.517 6.654 7.798 13.074 7.798s11.918-3.28 13.103-7.798v-.053a.992.992 0 0 0 0-.298v-.054c-1.185-4.518-6.684-7.797-13.103-7.797S9.16 4.614 8.004 9.13v.054a.992.992 0 0 0 0 .298s-.029.038 0 .054zm15.308-1.84a2.84 2.84 0 0 0-1.075-.793l-.019-.007c.017-.409.36-.74.796-.767s.825.257.9.661c.075.403-.188.794-.608.906h.006zm-.524 1.638c0 .884-.766 1.6-1.709 1.6-.945 0-1.709-.717-1.709-1.6 0-.884.764-1.6 1.709-1.6.943 0 1.709.716 1.709 1.6zm-1.709-2.667c-1.574 0-2.849 1.194-2.849 2.667S19.506 12 21.079 12s2.849-1.194 2.849-2.666a2.377 2.377 0 0 0-.107-.69l.005.017a1.91 1.91 0 0 0 1.165-1.215 1.76 1.76 0 0 0-.308-1.61l.003.004.798.123c1.725 1.956 1.725 4.784 0 6.742-1.324.231-2.848.363-4.404.363s-3.08-.132-4.563-.386l.159.023c-1.725-1.958-1.725-4.785 0-6.742a26.085 26.085 0 0 1 4.4-.363h.573a1.833 1.833 0 0 0-.542 1.067h-.028zm5.976-.378c2.689.661 4.705 1.749 5.356 3.04-.649 1.29-2.666 2.378-5.356 3.04.522-.869.831-1.919.831-3.04s-.309-2.171-.847-3.067l.015.027zm-11.981 6.085c-2.684-.662-4.7-1.75-5.356-3.04.65-1.291 2.666-2.379 5.356-3.04-.523.869-.832 1.919-.832 3.04s.309 2.171.847 3.067l-.015-.027zm6.005 3.893c-4.86 0-9.115-1.995-11.057-4.95 2.182 1.718 6.3 2.816 11.057 2.816s8.859-1.066 11.041-2.8c-1.926 2.95-6.193 4.934-11.04 4.934zm0-13.867c4.86 0 9.116 1.995 11.058 4.949-2.182-1.716-6.301-2.816-11.058-2.816s-8.858 1.094-11.04 2.8C11.964 4.385 16.23 2.4 21.078 2.4z"/></symbol>

<symbol id="advantage4" viewBox="0 0 43 32"><path d="M35.567 11.285c0-1.76 1.489-3.192 3.318-3.192s3.318 1.432 3.318 3.192c0 1.255-.756 2.343-1.853 2.864l-2.613 7.362a.62.62 0 0 1-.772.365.58.58 0 0 1-.377-.747l-.001.004 2.361-6.654-.06.001a3.44 3.44 0 0 1-1.314-.259l.023.008-.005-.002a3.36 3.36 0 0 1-1.009-.64l.002.002c-.882 1.485-2.062 3.014-3.677 3.816-1.278.636-2.842.772-4.127.077-2.434-1.314-4.386-5.123-5.82-11.367l-.01.005a3.413 3.413 0 0 1-1.524.353 3.447 3.447 0 0 1-1.554-.367l.02.009c-1.434 6.24-3.384 10.047-5.815 11.364-1.715.936-3.621.457-5.089-.673l-.003-.003c-.973-.749-1.898-1.837-2.717-3.215a3.31 3.31 0 0 1-.984.63l-.022.008-.005.002a3.378 3.378 0 0 1-1.29.251l-.064-.001h.003l1.13 3.184a.581.581 0 0 1-.375.742l-.004.001a.616.616 0 0 1-.772-.36l-.001-.004-1.381-3.891C1.408 13.628.651 12.54.651 11.285c0-1.76 1.488-3.192 3.318-3.192s3.318 1.432 3.318 3.192c0 .429-.088.839-.249 1.213.435.794.96 1.583 1.549 2.268.493-1.031 1.223-2.947 1.187-5.222-.968-.558-1.617-1.577-1.617-2.74 0-1.76 1.488-3.192 3.318-3.192s3.318 1.432 3.318 3.192c0 .708-.241 1.363-.648 1.893.465 1.12 1.23 2.541 2.437 3.752 1.05-2.294 1.789-5.058 2.254-7.177a3.084 3.084 0 0 1-.727-1.99c0-1.76 1.488-3.193 3.318-3.193s3.318 1.432 3.318 3.193c0 .753-.273 1.445-.727 1.991.466 2.12 1.204 4.883 2.254 7.177 1.207-1.211 1.972-2.632 2.436-3.752a3.073 3.073 0 0 1-.648-1.894c0-1.76 1.489-3.192 3.318-3.192s3.318 1.432 3.318 3.192c0 1.162-.648 2.181-1.616 2.74-.035 2.274.694 4.191 1.187 5.221a13.298 13.298 0 0 0 1.549-2.267 3.013 3.013 0 0 1-.249-1.212v-.001zM33.48 6.804c0-1.114-.942-2.021-2.101-2.021s-2.1.907-2.1 2.021c0 1.102.963 2.021 2.1 2.021s2.101-.933 2.101-2.021zm-2.559 3.162a3.373 3.373 0 0 1-1.272-.438l.016.009c-.564 1.252-1.46 2.764-2.833 4.03.074.135.149.266.226.395.813 1.346 1.96 2.669 3.389 2.845 1.021.125 1.991-.374 2.749-.987.059-.048.118-.098.177-.148-.489-.931-1.446-3.074-1.507-5.709a3.463 3.463 0 0 1-.943.003zm-7.393-6.684c0-1.115-.942-2.021-2.1-2.021s-2.101.906-2.101 2.021c0 1.077.879 1.96 1.983 2.018 1.177.065 2.218-.883 2.218-2.018zm-9.952 3.521c0-1.114-.942-2.021-2.1-2.021s-2.101.907-2.101 2.021c0 1.1.957 2.021 2.101 2.021s2.1-.926 2.1-2.021zm-1.643 3.162a3.47 3.47 0 0 1-.944-.003c-.061 2.635-1.018 4.779-1.507 5.709-.008.017.227.19.31.253l.025.019c.73.55 1.641.98 2.591.864 1.428-.175 2.575-1.499 3.388-2.845.076-.129.152-.261.226-.396-1.373-1.266-2.268-2.777-2.833-4.029-.376.22-.802.369-1.256.429zm-5.865 1.319c0-1.114-.942-2.021-2.1-2.021s-2.101.907-2.101 2.021c0 1.1.956 2.021 2.1 2.021 1.14-.002 2.101-.923 2.101-2.021zm30.716 0c0 1.381 1.507 2.381 2.848 1.889.79-.291 1.353-1.027 1.353-1.889 0-1.114-.942-2.021-2.101-2.021s-2.1.907-2.1 2.021zM7.488 31.555c-1.652 0-2.995-1.293-2.995-2.882 0-1.317.925-2.43 2.182-2.772l-1.958-5.518a.581.581 0 0 1 .375-.742l.004-.001a.616.616 0 0 1 .772.36l.001.004 2.055 5.789h27.007l.823-2.318a.616.616 0 0 1 .777-.363l-.004-.001a.58.58 0 0 1 .377.747l.001-.004-.727 2.048c1.257.341 2.182 1.454 2.182 2.772 0 1.589-1.343 2.882-2.995 2.882H7.486zm27.879-4.591H7.487c-.979 0-1.777.766-1.777 1.709s.797 1.71 1.777 1.71h27.88c.98 0 1.777-.766 1.777-1.709s-.797-1.71-1.777-1.71z"/><path d="m40.35 14.149-.723-1.521-.631.3-.233.658 1.587.563zm-2.613 7.362zm-.772.364zm-.379-.743-1.588-.563 1.587.564zm2.361-6.655 1.587.564.812-2.288-2.427.04.028 1.684zm-1.35-.25-.645 1.556.011.004.634-1.56zm-.005-.001.645-1.556-.01-.004-.635 1.56zm-1.007-.639 1.145-1.235-1.529-1.416-1.064 1.792 1.448.859zm-3.676 3.816zm-4.128.077h-.001zM22.962 6.114l1.641-.377-.48-2.088-1.915.958.754 1.507zm-.01.005.751 1.507.003-.001-.754-1.507zm-2.227.282.34-1.649-.341 1.648zm-.832-.287.757-1.505-1.918-.964-.48 2.092 1.641.377zm-5.815 11.364-.803-1.48-.005.003.808 1.478zm-5.089-.673-1.048 1.32.01.008.01.008 1.027-1.336zm-.003-.002 1.048-1.319-.009-.008-.009-.007-1.029 1.333zm-2.717-3.216 1.448-.861-1.064-1.791-1.528 1.416 1.145 1.235zm-1.007.639-.635-1.56-.009.004.644 1.556zm-.005.001.633 1.561.012-.005-.645-1.556zm-1.35.25.025-1.684-2.423-.036.811 2.284 1.587-.563zm1.13 3.184zm-.379.744zm-.773-.365-1.587.563 1.587-.564zm-1.381-3.89 1.587-.564-.233-.658-.631-.3-.723 1.521zm4.533-1.652-1.548-.663-.323.752.392.718 1.478-.808zm1.55 2.267-1.276 1.099 1.682 1.952 1.112-2.324-1.519-.727zm1.187-5.221 1.684-.026-.015-.955-.828-.477-.842 1.459zm4.371-.847L12.809 7.67l-.593.772.373.899 1.555-.645zm2.437 3.752-1.192 1.189 1.713 1.718 1.011-2.206-1.531-.701zm2.254-7.177 1.645.362.177-.805-.526-.633-1.295 1.076zm5.183 0-1.295-1.076-.527.633.177.805 1.645-.362zm2.254 7.177-1.532.701 1.011 2.206 1.714-1.718-1.193-1.189zm2.436-3.752 1.556.645.373-.899-.594-.772-1.336 1.027zm4.371.847-.842-1.459-.827.477-.015.956 1.684.025zm1.188 5.221-1.519.728 1.113 2.324 1.682-1.954-1.276-1.098zm1.548-2.267 1.478.808.392-.718-.323-.752-1.548.663zm-6.538-5.695zm.387 2.733.848-1.454-1.615-.941-.768 1.704 1.535.692zm1.256.429-.222 1.669h.002l.221-1.669zm-4.089 3.601-1.142-1.238-.97.894.637 1.155 1.475-.812zm.226.395-1.448.861.006.008 1.442-.87zm3.388 2.846-.205 1.672h.001l.205-1.672zm2.749-.987zm.177-.148 1.101 1.273 1.011-.874-.623-1.183-1.491.783zm-1.508-5.71 1.684-.039-.045-1.893-1.875.264.236 1.667zM19.326 3.281zm1.984 2.018.093-1.682H21.4l-.09 1.682zM10.989 9.962l.236-1.667-1.875-.264-.044 1.893 1.683.039zm.944.003-.222-1.67-.006.001.228 1.669zm-2.451 5.707-1.491-.784-.003.005 1.493.779zm.31.252h.001zm.025.019-1.014 1.345h.001l1.014-1.345zm2.591.864zm3.388-2.846 1.442.871.005-.008-1.447-.862zm.226-.396 1.476.813.636-1.155-.969-.894-1.143 1.238zm-2.833-4.029 1.535-.692-.768-1.704-1.615.941.848 1.454zm-9.221 3.771-.002 1.684h.004l-.003-1.684zm35.665-.133zM6.675 25.901l.442 1.625 1.753-.477-.608-1.712-1.587.563zm-1.958-5.518-1.587.563 1.587-.564zm.379-.743zm.773.364 1.587-.563-1.587.564zm2.054 5.789-1.588.563.398 1.12h1.189v-1.684zm27.008 0v1.684h1.19l.397-1.121-1.587-.564zm.823-2.318zm.773-.365zm.379.743 1.587.563-1.587-.564zm-.727 2.048-1.587-.564-.608 1.713 1.753.477.442-1.625zm2.706-19.493c-2.698 0-5.002 2.125-5.002 4.877h3.368c0-.77.673-1.508 1.634-1.508V6.409zm5.002 4.877c0-2.751-2.304-4.877-5.002-4.877v3.368c.962 0 1.634.739 1.634 1.508h3.368zm-2.813 4.385c1.634-.777 2.814-2.427 2.814-4.385H40.52c0 .552-.333 1.077-.893 1.343l1.447 3.042zm-1.749 6.404 2.613-7.362-3.175-1.127-2.612 7.362 3.175 1.127zm-2.886 1.401c1.139.375 2.457-.194 2.886-1.401l-3.175-1.127a1.066 1.066 0 0 1 1.348-.67l-.008-.002-1.052 3.2zm-1.44-2.906c-.442 1.244.271 2.522 1.44 2.906l1.053-3.2a1.104 1.104 0 0 1 .68 1.427l.002-.008-3.175-1.126zm2.361-6.655-2.362 6.654 3.175 1.127 2.362-6.654-3.175-1.127zm-.397 1.874c.64.26 1.329.385 2.013.374l-.056-3.368h-.032c-.237 0-.462-.046-.669-.131l.012.004-1.268 3.121zm-.016-.007.005.003 1.29-3.112-.005-.003-1.29 3.112zm-1.506-.958c.428.397.931.721 1.483.95l.033.012 1.27-3.12a1.648 1.648 0 0 1-.498-.314l.001.001-2.289 2.471zm-1.783 4.088c2.058-1.022 3.444-2.896 4.376-4.464l-2.897-1.72c-.833 1.402-1.806 2.585-2.978 3.168l1.499 3.016zm-5.677.051c1.882 1.018 4.04.765 5.677-.051l-1.499-3.016c-.918.456-1.888.476-2.577.104l-1.602 2.963zM21.32 6.49c.735 3.198 1.62 5.858 2.678 7.923 1.048 2.046 2.344 3.663 3.983 4.549l1.601-2.964c-.794-.429-1.691-1.373-2.585-3.121-.885-1.728-1.693-4.094-2.393-7.141l-3.283.755zm2.385 1.135.01-.005-1.507-3.013-.01.005 1.507 3.013zm-3.32.426a5.156 5.156 0 0 0 3.318-.424L22.2 4.612a1.753 1.753 0 0 1-1.146.138l.012.002-.68 3.299zm-1.249-.432c.399.2.82.344 1.249.432l.68-3.299a1.64 1.64 0 0 1-.425-.148l.009.004-1.514 3.01zm-4.256 11.34c1.637-.887 2.931-2.504 3.979-4.55 1.057-2.066 1.941-4.724 2.675-7.918l-3.283-.755c-.7 3.044-1.507 5.41-2.392 7.138-.894 1.747-1.79 2.693-2.585 3.123l1.605 2.962zm-6.918-.819c1.805 1.389 4.436 2.175 6.924.817L13.271 16c-.941.514-2.123.342-3.254-.529L7.962 18.14zm-.023-.018.003.003 2.095-2.638-.003-.003-2.095 2.638zm-3.118-3.675c.899 1.516 1.958 2.78 3.136 3.688l2.058-2.666c-.766-.591-1.56-1.501-2.298-2.743l-2.897 1.72zm1.077 1.338a5.033 5.033 0 0 0 1.519-.966l-.003.003-2.29-2.471a1.642 1.642 0 0 1-.486.309l-.011.004 1.271 3.12zm.004-.001.005-.003-1.289-3.112-.005.003 1.288 3.112zm-1.933.379c.657 0 1.314-.127 1.922-.375l-1.267-3.12a1.73 1.73 0 0 1-.655.126v3.368zm-.088-.001h.088v-3.368h-.036l-.051 3.368zm2.743.936-1.13-3.183-3.175 1.126 1.13 3.184 3.175-1.127zm-1.44 2.907c1.168-.384 1.881-1.662 1.44-2.906l-3.175 1.126a1.103 1.103 0 0 1 .674-1.417l.008-.002 1.053 3.2zm-2.887-1.401c.43 1.212 1.743 1.777 2.886 1.401l-1.052-3.2a1.07 1.07 0 0 1 1.339.664l.002.008-3.175 1.127zM.916 14.712l1.381 3.891 3.175-1.126-1.381-3.891-3.175 1.126zm-1.95-3.427c0 1.958 1.18 3.608 2.814 4.385l1.447-3.042c-.559-.266-.893-.792-.893-1.343h-3.368zm5.003-4.877c-2.698 0-5.002 2.125-5.002 4.877h3.368c0-.77.672-1.508 1.634-1.508V6.409zm5.002 4.877c0-2.751-2.304-4.877-5.002-4.877v3.368c.961 0 1.634.739 1.634 1.508h3.368zm-.385 1.875a4.685 4.685 0 0 0 .385-1.874v-.001H5.603c0 .194-.04.378-.113.549l3.096 1.326zm1.277.506a11.551 11.551 0 0 1-1.317-1.915l-.03-.06-2.955 1.615a15.007 15.007 0 0 0 1.769 2.58l-.017-.021 2.552-2.198zM8.09 9.57c.029 1.917-.589 3.565-1.022 4.467l3.037 1.456c.556-1.16 1.394-3.344 1.352-5.976l-3.368.052zM6.473 6.803c0 1.812 1.013 3.364 2.459 4.199l1.684-2.917c-.49-.283-.775-.769-.775-1.282H6.473zm5.002-4.876c-2.698 0-5.002 2.125-5.002 4.877h3.368c0-.77.673-1.508 1.634-1.508V1.928zm5.002 4.876c0-2.751-2.304-4.877-5.002-4.877v3.368c.961 0 1.634.739 1.634 1.508h3.368zm-.996 2.919a4.745 4.745 0 0 0 .996-2.919h-3.368c0 .317-.106.616-.3.867l2.672 2.052zm2.294 1.538c-1.001-1.005-1.661-2.213-2.074-3.208l-3.112 1.291c.516 1.244 1.387 2.878 2.8 4.295l2.386-2.377zm-.584-6.35c-.456 2.079-1.164 4.706-2.14 6.837l3.062 1.402c1.125-2.456 1.894-5.357 2.368-7.516l-3.29-.723zm-.767-1.629c0 1.169.426 2.237 1.117 3.068l2.59-2.153a1.412 1.412 0 0 1-.338-.914h-3.368zm5.003-4.878c-2.697 0-5.002 2.126-5.002 4.877h3.368c0-.77.674-1.509 1.634-1.509v-3.368zm5.002 4.878c0-2.751-2.304-4.877-5.002-4.877v3.368c.961 0 1.634.739 1.634 1.509h3.368zm-1.115 3.068a4.766 4.766 0 0 0 1.117-3.067h-3.368c0 .337-.12.652-.338.915l2.589 2.153zm2.491 5.398c-.976-2.131-1.684-4.758-2.141-6.837l-3.29.723c.475 2.159 1.243 5.059 2.368 7.516l3.063-1.402zm-.65-3.696c-.413.995-1.073 2.204-2.074 3.208l2.386 2.378c1.412-1.417 2.284-3.052 2.8-4.296L27.155 8.05zm-.778-1.248c0 1.099.376 2.111.997 2.92l2.671-2.052a1.41 1.41 0 0 1-.3-.867h-3.368zm5.002-4.876c-2.697 0-5.002 2.125-5.002 4.877h3.368c0-.77.674-1.508 1.634-1.508V1.928zm5.002 4.876c0-2.751-2.303-4.877-5.002-4.877v3.368c.962 0 1.634.739 1.634 1.508h3.368zm-2.458 4.199c1.447-.835 2.459-2.387 2.459-4.199h-3.368c0 .513-.285.999-.774 1.282l1.684 2.917zm1.864 3.035c-.432-.901-1.052-2.551-1.021-4.467l-3.368-.052c-.04 2.632.797 4.817 1.352 5.976l3.037-1.456zm-1.448-2.347c-.408.75-.855 1.397-1.36 1.992l.014-.017 2.552 2.198a14.877 14.877 0 0 0 1.713-2.481l.039-.077-2.957-1.615zm-.455-.404c0 .664.138 1.298.386 1.875l3.096-1.326a1.372 1.372 0 0 1-.113-.548v-.001h-3.368zm-2.505-4.819c.291 0 .417.213.417.337h3.368c0-2.105-1.758-3.705-3.785-3.705v3.368zm-.416.336c0-.124.126-.337.416-.337V3.098c-2.026 0-3.784 1.6-3.784 3.705h3.368zm.416.337a.452.452 0 0 1-.31-.128c-.086-.082-.106-.16-.106-.209h-3.368c0 2.097 1.784 3.705 3.784 3.705V7.14zm.417-.337c0 .038-.018.118-.109.206a.448.448 0 0 1-.307.131h-.001v3.368c2.009 0 3.785-1.631 3.785-3.705h-3.368zm-2.978 4.188a4.967 4.967 0 0 0 1.856.64l.026.003.445-3.339a1.694 1.694 0 0 1-.639-.218l.008.004-1.696 2.909zm-.843 3.813c1.589-1.466 2.601-3.19 3.226-4.575l-3.07-1.385c-.505 1.119-1.284 2.419-2.44 3.485l2.284 2.476zm.531-1.704a12.12 12.12 0 0 1-.198-.345l-2.951 1.624c.083.151.167.298.253.444l2.895-1.722zm2.146 2.035c-.25-.031-.581-.177-.99-.552-.408-.374-.802-.897-1.16-1.491l-2.884 1.74c.453.751 1.038 1.564 1.765 2.232.724.666 1.682 1.272 2.86 1.415l.41-3.343zm1.484-.625c-.617.499-1.132.668-1.485.624l-.408 3.343c1.688.207 3.113-.621 4.012-1.348l-2.118-2.619zm.135-.113-.135.113 2.119 2.619c.073-.059.146-.12.219-.184l-2.203-2.547zm-2.089-4.395c.069 2.998 1.149 5.407 1.7 6.454l2.981-1.569c-.428-.813-1.261-2.692-1.314-4.963l-3.368.078zm.519 1.633c.455.06.931.061 1.399-.005l-.471-3.336a1.722 1.722 0 0 1-.497 0l.009.001-.441 3.339zm-9.274-8.692c.29 0 .416.214.416.337h3.368c0-2.105-1.758-3.705-3.784-3.705v3.368zm-.416.338c0-.124.126-.337.417-.337V-.424c-2.027 0-3.785 1.6-3.785 3.705h3.368zm.389.337c-.273-.015-.389-.217-.389-.337h-3.368c0 2.034 1.642 3.597 3.579 3.7l.179-3.364zm.443-.337c0 .04-.019.124-.117.213a.454.454 0 0 1-.311.123h-.014.001l-.185 3.363c2.078.115 3.995-1.535 3.995-3.699h-3.368zM11.475 6.467c.29 0 .416.213.416.337h3.368c0-2.105-1.757-3.705-3.784-3.705v3.368zm-.416.336c0-.124.126-.337.417-.337V3.098c-2.027 0-3.785 1.6-3.785 3.705h3.368zm.416.337a.449.449 0 0 1-.312-.126c-.084-.082-.105-.16-.105-.211H7.69c0 2.089 1.772 3.705 3.785 3.705V7.14zm.416-.337c0 .046-.02.126-.106.209a.453.453 0 0 1-.31.129v3.368c2.016 0 3.784-1.624 3.784-3.705h-3.368zm-1.136 4.827c.461.065.937.067 1.406.003l-.456-3.337a1.687 1.687 0 0 1-.49-.002l.009.001-.47 3.335zm.218 4.826c.55-1.047 1.63-3.456 1.699-6.454l-3.367-.078c-.053 2.271-.886 4.15-1.314 4.963l2.981 1.569zm-.179-1.887a5.41 5.41 0 0 1-.17-.127l.017.013c-.028-.022-.025-.021-.006-.004.002.003.055.048.118.12a1.652 1.652 0 0 1 .415 1.102c0 .284-.071.552-.196.787l.004-.009-2.987-1.558a1.679 1.679 0 0 0 .24 1.908l-.001-.002c.074.084.144.147.168.168.063.056.128.108.168.14.089.069.188.141.227.171l2.003-2.708zm.038.03-.038-.029-2.003 2.708.014.01.002.002s-.002 0-.004-.003l2.029-2.69zm1.372.535c-.322.04-.793-.1-1.373-.536l-2.027 2.69c.88.664 2.23 1.384 3.81 1.191l-.41-3.343zm2.15-2.043c-.359.595-.753 1.117-1.16 1.491-.409.376-.74.522-.989.552l.41 3.343c1.178-.143 2.135-.749 2.859-1.415.727-.668 1.312-1.48 1.765-2.232l-2.883-1.74zm.193-.336c-.066.118-.132.234-.199.345l2.894 1.723c.088-.146.172-.295.255-.445l-2.952-1.624zm-2.893-2.527c.625 1.386 1.637 3.11 3.226 4.576l2.284-2.476c-1.155-1.066-1.934-2.366-2.44-3.485l-3.07 1.385zm.502 1.407a5.072 5.072 0 0 0 1.905-.656l-.024.013-1.696-2.909a1.672 1.672 0 0 1-.632.214l.446 3.339zm-8.187-.687c.29 0 .416.213.416.337h3.368c0-2.105-1.757-3.705-3.784-3.705v3.368zm-.417.337c0-.124.126-.337.417-.337V7.579c-2.027 0-3.785 1.6-3.785 3.705h3.368zm.417.337a.454.454 0 0 1-.312-.127c-.084-.081-.105-.16-.105-.21H.184c0 2.089 1.771 3.705 3.783 3.705l.003-3.368zm.416-.337c0 .046-.019.125-.105.207a.461.461 0 0 1-.315.131l.006 3.368c2.003-.003 3.783-1.613 3.783-3.705H4.386zm34.667.308a.463.463 0 0 1-.416-.065l.001.001c-.144-.096-.168-.197-.168-.244h-3.368c0 2.645 2.762 4.334 5.114 3.469l-1.162-3.161zm.25-.308c0 .099-.067.241-.25.308l1.162 3.162c1.398-.514 2.456-1.845 2.456-3.469h-3.368zm-.417-.337c.291 0 .417.213.417.337h3.368c0-2.105-1.758-3.705-3.785-3.705v3.368zm-.416.337c0-.124.126-.337.416-.337V7.579c-2.027 0-3.784 1.6-3.784 3.705h3.368zM2.808 28.675c0 2.579 2.159 4.565 4.679 4.565v-3.368c-.783 0-1.31-.599-1.31-1.197H2.809zm3.425-4.399c-1.931.525-3.425 2.259-3.425 4.398h3.368c0-.498.355-.989.94-1.148l-.884-3.251zm-3.104-3.329 1.959 5.518 3.175-1.127-1.96-5.518-3.175 1.127zm1.44-2.907c-1.168.384-1.881 1.662-1.44 2.906l3.175-1.126a1.103 1.103 0 0 1-.674 1.417l-.008.002-1.053-3.2zm2.886 1.401c-.429-1.212-1.743-1.777-2.885-1.401l1.051 3.2a1.07 1.07 0 0 1-1.338-.665l-.002-.008 3.175-1.127zm2.055 5.788L7.455 19.44 4.28 20.567l2.055 5.789 3.175-1.127zm25.421-1.12H7.922v3.368h27.009v-3.368zm-.764-1.198-.823 2.318 3.175 1.127.823-2.318-3.175-1.127zm2.886-1.401c-1.143-.376-2.456.19-2.886 1.402l3.175 1.126a1.071 1.071 0 0 1-1.348.67l.008.002 1.052-3.2zm1.44 2.906c.442-1.244-.271-2.522-1.44-2.906l-1.051 3.2a1.104 1.104 0 0 1-.68-1.427l-.002.008 3.174 1.126zm-.726 2.049.727-2.048-3.175-1.127-.727 2.048 3.175 1.127zm2.278 2.209c0-2.138-1.493-3.874-3.425-4.397l-.883 3.251c.584.158.94.65.94 1.147h3.368zm-4.678 4.566c2.52 0 4.679-1.986 4.679-4.566h-3.368c0 .598-.527 1.197-1.31 1.197v3.368zm-27.88 0h27.88v-3.368H7.487v3.368zm0-4.592h27.88V25.28H7.487v3.368zm-.092.026a.04.04 0 0 1-.003.015c-.001.002 0-.002.008-.008a.127.127 0 0 1 .083-.031h.005v-3.368c-1.848 0-3.461 1.46-3.461 3.394h3.368zm.092.026h-.006a.127.127 0 0 1-.083-.031c-.007-.007-.008-.011-.008-.008a.03.03 0 0 1 .003.013H4.025c0 1.934 1.613 3.395 3.461 3.395v-3.368zm27.88 0H7.487v3.368h27.88V28.7zm.092-.025c0-.005.002-.011.003-.014s0 .002-.008.008a.127.127 0 0 1-.083.031h-.005v3.368c1.848 0 3.461-1.46 3.461-3.394h-3.368zm-.092-.027c.045 0 .073.016.088.03.008.008.008.011.008.008a.03.03 0 0 1-.003-.013h3.368c0-1.933-1.613-3.394-3.461-3.394v3.368z"/></symbol></defs></svg>