<svg aria-hidden="true" style="position:absolute;width:0;height:0;overflow:hidden" xmlns="http://www.w3.org/2000/svg"><defs>

<symbol id="advantage1" viewBox="0 0 34 32"><path d="M25.625 16.687c-4.222 0-7.697 3.101-8.033 7.032h-1.5a7.433 7.433 0 0 0-1.891-4.326l6.21-5.899a8.069 8.069 0 0 0 2.023 1.197l.054.02a8.224 8.224 0 0 0 3.117.602h.021-.001.02a8.347 8.347 0 0 0 3.173-.622l-.056.02a8.104 8.104 0 0 0 2.565-1.644l-.003.003a7.646 7.646 0 0 0 1.707-2.386l.019-.048a7.272 7.272 0 0 0 .634-2.981c0-.919-.17-1.819-.505-2.673a.661.661 0 0 0-.61-.407h-.007a.683.683 0 0 0-.235.041l.005-.002a.64.64 0 0 0-.366.322l-.002.004a.582.582 0 0 0-.017.482l-.001-.004c.267.664.422 1.433.422 2.239 0 1.403-.47 2.697-1.262 3.731l.011-.015a6.402 6.402 0 0 0-3.113-2.644l-.043-.015c.783-.632 1.283-1.572 1.283-2.622 0-1.895-1.624-3.437-3.619-3.437s-3.619 1.543-3.619 3.437c0 1.05.499 1.991 1.282 2.622a6.407 6.407 0 0 0-3.14 2.63l-.016.028a6.108 6.108 0 0 1-1.251-3.716v-.001c0-1.711.702-3.32 1.975-4.531 1.275-1.209 2.968-1.876 4.769-1.876h.019c.974 0 1.901.199 2.743.558l-.046-.017a.684.684 0 0 0 .264.053.66.66 0 0 0 .603-.373.616.616 0 0 0-.332-.822l-.004-.001a8.217 8.217 0 0 0-3.224-.647h-.044a8.347 8.347 0 0 0-3.173.622l.056-.02a8.104 8.104 0 0 0-2.565 1.644l.003-.003a7.649 7.649 0 0 0-1.708 2.386l-.019.048a7.159 7.159 0 0 0-.634 2.971v.01c0 1.033.213 2.036.634 2.979.32.72.749 1.381 1.28 1.974l-6.208 5.9a8.194 8.194 0 0 0-4.525-1.794l-.028-.002v-1.427c4.137-.319 7.401-3.619 7.401-7.63C16.116 3.435 12.501 0 8.057 0S-.002 3.435-.002 7.656c0 4.011 3.264 7.311 7.402 7.63v1.427c-4.139.319-7.402 3.619-7.402 7.63 0 4.222 3.615 7.656 8.059 7.656 4.222 0 7.697-3.101 8.033-7.032h1.501c.337 3.931 3.811 7.032 8.033 7.032 4.444 0 8.059-3.434 8.059-7.656s-3.615-7.656-8.059-7.656zM23.322 6.093c0-1.206 1.033-2.187 2.303-2.187s2.302.981 2.302 2.187c0 1.202-1.026 2.18-2.289 2.188h-.029c-1.263-.008-2.288-.985-2.288-2.188zm2.289 3.438h.028a5.073 5.073 0 0 1 4.532 2.817l.013.03c-1.248 1.088-2.855 1.685-4.558 1.685s-3.312-.598-4.56-1.687c.842-1.695 2.56-2.84 4.545-2.845h.001zM5.756 6.093c0-1.206 1.033-2.187 2.302-2.187s2.303.981 2.303 2.187c0 1.202-1.026 2.18-2.289 2.188h-.029c-1.263-.008-2.288-.985-2.288-2.188zm2.31 3.438h.007a5.073 5.073 0 0 1 4.53 2.813l.013.029a6.879 6.879 0 0 1-4.529 1.689h-.029.002-.029a6.89 6.89 0 0 1-4.537-1.696l.008.007c.843-1.693 2.559-2.837 4.543-2.842h.023zM8.059 1.25c3.719 0 6.744 2.874 6.744 6.407a6.133 6.133 0 0 1-1.264 3.73l.011-.015a6.41 6.41 0 0 0-3.111-2.641l-.043-.015c.783-.632 1.283-1.572 1.283-2.622 0-1.895-1.623-3.437-3.619-3.437S4.441 4.2 4.441 6.094c0 1.05.499 1.991 1.283 2.622a6.409 6.409 0 0 0-3.139 2.627l-.016.028a6.11 6.11 0 0 1-1.251-3.714c0-3.533 3.025-6.407 6.743-6.407zm0 29.5c-3.718 0-6.744-2.874-6.744-6.407s3.026-6.406 6.744-6.406c3.719 0 6.744 2.873 6.744 6.406s-3.025 6.407-6.744 6.407zm13.008-1.69c.845-1.696 2.566-2.841 4.556-2.841h.002a5.07 5.07 0 0 1 4.557 2.842 6.879 6.879 0 0 1-4.529 1.689h-.029.002-.028a6.887 6.887 0 0 1-4.538-1.697l.008.007zm4.558-4.092c-1.27 0-2.303-.981-2.303-2.187s1.033-2.188 2.303-2.188c1.269 0 2.302.981 2.302 2.188s-1.033 2.187-2.302 2.187zm5.491 3.091a6.406 6.406 0 0 0-3.112-2.64l-.043-.015c.784-.632 1.283-1.572 1.283-2.622 0-1.896-1.624-3.437-3.619-3.437s-3.619 1.541-3.619 3.437c0 1.05.499 1.991 1.283 2.621a6.409 6.409 0 0 0-3.139 2.627l-.016.028a6.112 6.112 0 0 1-1.252-3.713c0-3.533 3.025-6.407 6.744-6.407s6.744 2.873 6.744 6.406a6.132 6.132 0 0 1-1.265 3.731l.011-.015zm-19.567-7.048a.677.677 0 0 0-.911.173l-.001.002-3.441 4.904-1.742-2.128a.68.68 0 0 0-.925-.108l.002-.001a.605.605 0 0 0-.114.878l-.001-.001 2.302 2.813a.67.67 0 0 0 .516.241l.029-.001h-.001a.663.663 0 0 0 .522-.276l.001-.002 3.947-5.625a.606.606 0 0 0-.18-.866l-.003-.002zm20.117-18.18c0 .345-.295.626-.658.626s-.658-.28-.658-.626.295-.625.658-.625c.363 0 .658.28.658.625z"/></symbol>

<symbol id="advantage2" viewBox="0 0 33 32"><path d="M13.053 1.127c0-.334.281-.605.628-.605s.627.271.627.605v1.027a.617.617 0 0 1-.627.605.616.616 0 0 1-.628-.605V1.127zm6.175.904c-.115-.11-.272-.177-.444-.177s-.329.067-.444.177a.595.595 0 0 0-.184.428c0 .159.067.314.184.427.115.11.272.177.444.177s.329-.067.444-.177a.597.597 0 0 0 .184-.427.598.598 0 0 0-.183-.428zm-1.072 2.621c0-.334.281-.605.627-.605.348 0 .628.271.628.605v2.397a.617.617 0 0 1-.627.605.616.616 0 0 1-.628-.605V4.652zm12.766 11.332-1.459-.175a9.663 9.663 0 0 0-1.877-2.85l.004.004 1.073-4.374a.58.58 0 0 0-.119-.514l.001.001a.637.637 0 0 0-.49-.23H27.912c-1.781 0-3.386 1.078-4.017 2.659a9.335 9.335 0 0 0-1.305-.404l-.069-.014c-.337-.077-.675.124-.755.449s.129.65.466.727a8.824 8.824 0 0 1 4.154 2.225l-.003-.003a.602.602 0 0 0 .152.15 8.382 8.382 0 0 1 1.868 2.876l.019.057a.625.625 0 0 0 .513.394l1.832.221a.56.56 0 0 1 .502.547v3.047a.561.561 0 0 1-.502.548l-1.697.205a.622.622 0 0 0-.52.414l-.001.004a8.385 8.385 0 0 1-2.767 3.96.592.592 0 0 0-.227.465v3.341c0 .3-.254.544-.566.544h-3.644a.554.554 0 0 1-.565-.544v-1.273a.617.617 0 0 0-.628-.605h-5.277a.617.617 0 0 0-.628.605v1.273c0 .3-.254.544-.566.544h-3.644a.555.555 0 0 1-.565-.544v-2.358a.602.602 0 0 0-.325-.53l-.003-.002c-2.819-1.473-4.57-4.304-4.57-7.388 0-4.631 3.916-8.399 8.729-8.399h.787c.346 0 .627-.271.627-.605s-.281-.605-.627-.605h-.788c-4.663 0-8.589 3.091-9.683 7.256h-.46c-.849 0-1.539-.664-1.539-1.481s.691-1.48 1.539-1.48c.346 0 .628-.271.628-.605s-.282-.604-.628-.604c-1.542 0-2.796 1.206-2.796 2.689s1.255 2.691 2.797 2.691h.228a9.186 9.186 0 0 0-.072 1.144c0 3.406 1.868 6.541 4.899 8.27v2.007c0 .967.817 1.753 1.821 1.753h3.644c1.005 0 1.822-.786 1.822-1.753v-.669h4.021v.669c0 .967.817 1.753 1.821 1.753h3.644c1.005 0 1.821-.786 1.821-1.753v-3.062a9.631 9.631 0 0 0 2.786-3.904l.022-.066 1.306-.157c.913-.11 1.603-.861 1.603-1.747v-3.047c0-.886-.689-1.638-1.603-1.747zm-4.386-3.983a9.999 9.999 0 0 0-1.498-.976c.347-.96 1.194-1.674 2.203-1.896l-.705 2.873zm-1.168 3.869a.645.645 0 0 0-.888 0 .593.593 0 0 0-.184.427c0 .159.067.315.184.427.115.11.272.177.444.177s.329-.067.444-.177a.593.593 0 0 0 .184-.427.597.597 0 0 0-.184-.427zM7.521 19.439c0-.334-.282-.605-.628-.605s-.628.271-.628.605v.032c.002.333.283.6.628.6h.004a.616.616 0 0 0 .624-.608v-.024zm.38 1.989a5.662 5.662 0 0 0 2.4 2.766.591.591 0 0 1 .208.833l.001-.002a.644.644 0 0 1-.866.2l.003.002a6.881 6.881 0 0 1-2.92-3.366.596.596 0 0 1 .358-.779l.004-.001a.635.635 0 0 1 .811.348zm5.78-18.002c-1.455 0-2.639 1.139-2.639 2.539 0 1.399 1.183 2.538 2.639 2.538 1.454 0 2.638-1.139 2.638-2.538s-1.183-2.538-2.638-2.538zm0 3.868c-.762 0-1.382-.596-1.382-1.329 0-.734.62-1.33 1.382-1.33s1.382.596 1.382 1.329-.62 1.33-1.382 1.33zm7.349 6.042h.566c.347 0 .628.271.628.605s-.281.605-.628.605H13.43c-.346 0-.628-.271-.628-.605s.282-.604.628-.604h3.109a2.429 2.429 0 0 1-.392-1.33c0-1.4 1.183-2.538 2.639-2.538 1.454 0 2.638 1.139 2.638 2.539 0 .487-.144.942-.392 1.329zm-3.628-1.33c0 .733.62 1.33 1.382 1.33s1.382-.597 1.382-1.33-.62-1.329-1.382-1.329c-.762 0-1.382.596-1.382 1.329z"/></symbol>

<symbol id="advantage3" viewBox="0 0 34 32"><path d="M21.649 18.934h-.162c-2.262 0-4.486.159-6.663.466l.251-.029a32.492 32.492 0 0 0-1.359-.844l-.219-.12c-2.215-1.36-4.77-2.574-7.456-3.51l-.28-.085c-2.547-.805-4.131-.778-4.7.08-2.666 3.989-.074 10.027 5.777 13.462a16.232 16.232 0 0 0 8.102 2.314h.031c1.038 0 2.043-.138 2.999-.397l-.08.018c1.234.255 2.495.383 3.76.378 6.911 0 12.533-3.829 12.533-8.533 0-2.198-6.495-3.2-12.533-3.2zM2.74 15.296a9.226 9.226 0 0 1 2.718.554l-.064-.021c2.876.99 5.352 2.164 7.67 3.574l-.173-.098c6.267 3.665 8.858 6.854 8.449 7.468-.108.149-.94.4-3.373-.368-2.875-.991-5.351-2.17-7.667-3.585l.17.097c-6.268-3.66-8.859-6.854-8.449-7.467.046-.064.256-.155.718-.155zm4.712 12.171C2.848 24.736.388 20.331 1.35 16.929c1.271 2.047 4.849 4.751 8.545 6.901 2.207 1.358 4.753 2.572 7.429 3.509l.28.085c.847.274 1.727.454 2.62.534-2.842 2.325-8.146 2.176-12.772-.491zM21.648 29.6a18.11 18.11 0 0 1-1.788-.09 6.792 6.792 0 0 0 2.429-2.148l.015-.023c.348-.533.217-1.211-.273-2.005 4.215-.032 8.58-.534 10.75-1.6-1.111 3.344-5.68 5.866-11.132 5.866zm0-5.333h-.421a27.337 27.337 0 0 0-4.679-3.927l-.1-.063a46.922 46.922 0 0 1 5.183-.278h.02-.001c7.372 0 11.394 1.408 11.394 2.134s-4.022 2.133-11.394 2.133z"/><path d="M8.004 9.536c1.156 4.517 6.654 7.798 13.074 7.798s11.918-3.28 13.103-7.798v-.053a.992.992 0 0 0 0-.298v-.054c-1.185-4.518-6.684-7.797-13.103-7.797S9.16 4.614 8.004 9.13v.054a.992.992 0 0 0 0 .298s-.029.038 0 .054zm15.308-1.84a2.84 2.84 0 0 0-1.075-.793l-.019-.007c.017-.409.36-.74.796-.767s.825.257.9.661c.075.403-.188.794-.608.906h.006zm-.524 1.638c0 .884-.766 1.6-1.709 1.6-.945 0-1.709-.717-1.709-1.6 0-.884.764-1.6 1.709-1.6.943 0 1.709.716 1.709 1.6zm-1.709-2.667c-1.574 0-2.849 1.194-2.849 2.667S19.506 12 21.079 12s2.849-1.194 2.849-2.666a2.377 2.377 0 0 0-.107-.69l.005.017a1.91 1.91 0 0 0 1.165-1.215 1.76 1.76 0 0 0-.308-1.61l.003.004.798.123c1.725 1.956 1.725 4.784 0 6.742-1.324.231-2.848.363-4.404.363s-3.08-.132-4.563-.386l.159.023c-1.725-1.958-1.725-4.785 0-6.742a26.085 26.085 0 0 1 4.4-.363h.573a1.833 1.833 0 0 0-.542 1.067h-.028zm5.976-.378c2.689.661 4.705 1.749 5.356 3.04-.649 1.29-2.666 2.378-5.356 3.04.522-.869.831-1.919.831-3.04s-.309-2.171-.847-3.067l.015.027zm-11.981 6.085c-2.684-.662-4.7-1.75-5.356-3.04.65-1.291 2.666-2.379 5.356-3.04-.523.869-.832 1.919-.832 3.04s.309 2.171.847 3.067l-.015-.027zm6.005 3.893c-4.86 0-9.115-1.995-11.057-4.95 2.182 1.718 6.3 2.816 11.057 2.816s8.859-1.066 11.041-2.8c-1.926 2.95-6.193 4.934-11.04 4.934zm0-13.867c4.86 0 9.116 1.995 11.058 4.949-2.182-1.716-6.301-2.816-11.058-2.816s-8.858 1.094-11.04 2.8C11.964 4.385 16.23 2.4 21.078 2.4z"/></symbol>

<symbol id="advantage4" viewBox="0 0 43 32"><path d="M35.567 11.285c0-1.76 1.489-3.192 3.318-3.192s3.318 1.432 3.318 3.192c0 1.255-.756 2.343-1.853 2.864l-2.613 7.362a.62.62 0 0 1-.772.365.58.58 0 0 1-.377-.747l-.001.004 2.361-6.654-.06.001a3.44 3.44 0 0 1-1.314-.259l.023.008-.005-.002a3.36 3.36 0 0 1-1.009-.64l.002.002c-.882 1.485-2.062 3.014-3.677 3.816-1.278.636-2.842.772-4.127.077-2.434-1.314-4.386-5.123-5.82-11.367l-.01.005a3.413 3.413 0 0 1-1.524.353 3.447 3.447 0 0 1-1.554-.367l.02.009c-1.434 6.24-3.384 10.047-5.815 11.364-1.715.936-3.621.457-5.089-.673l-.003-.003c-.973-.749-1.898-1.837-2.717-3.215a3.31 3.31 0 0 1-.984.63l-.022.008-.005.002a3.378 3.378 0 0 1-1.29.251l-.064-.001h.003l1.13 3.184a.581.581 0 0 1-.375.742l-.004.001a.616.616 0 0 1-.772-.36l-.001-.004-1.381-3.891C1.408 13.628.651 12.54.651 11.285c0-1.76 1.488-3.192 3.318-3.192s3.318 1.432 3.318 3.192c0 .429-.088.839-.249 1.213.435.794.96 1.583 1.549 2.268.493-1.031 1.223-2.947 1.187-5.222-.968-.558-1.617-1.577-1.617-2.74 0-1.76 1.488-3.192 3.318-3.192s3.318 1.432 3.318 3.192c0 .708-.241 1.363-.648 1.893.465 1.12 1.23 2.541 2.437 3.752 1.05-2.294 1.789-5.058 2.254-7.177a3.084 3.084 0 0 1-.727-1.99c0-1.76 1.488-3.193 3.318-3.193s3.318 1.432 3.318 3.193c0 .753-.273 1.445-.727 1.991.466 2.12 1.204 4.883 2.254 7.177 1.207-1.211 1.972-2.632 2.436-3.752a3.073 3.073 0 0 1-.648-1.894c0-1.76 1.489-3.192 3.318-3.192s3.318 1.432 3.318 3.192c0 1.162-.648 2.181-1.616 2.74-.035 2.274.694 4.191 1.187 5.221a13.298 13.298 0 0 0 1.549-2.267 3.013 3.013 0 0 1-.249-1.212v-.001zM33.48 6.804c0-1.114-.942-2.021-2.101-2.021s-2.1.907-2.1 2.021c0 1.102.963 2.021 2.1 2.021s2.101-.933 2.101-2.021zm-2.559 3.162a3.373 3.373 0 0 1-1.272-.438l.016.009c-.564 1.252-1.46 2.764-2.833 4.03.074.135.149.266.226.395.813 1.346 1.96 2.669 3.389 2.845 1.021.125 1.991-.374 2.749-.987.059-.048.118-.098.177-.148-.489-.931-1.446-3.074-1.507-5.709a3.463 3.463 0 0 1-.943.003zm-7.393-6.684c0-1.115-.942-2.021-2.1-2.021s-2.101.906-2.101 2.021c0 1.077.879 1.96 1.983 2.018 1.177.065 2.218-.883 2.218-2.018zm-9.952 3.521c0-1.114-.942-2.021-2.1-2.021s-2.101.907-2.101 2.021c0 1.1.957 2.021 2.101 2.021s2.1-.926 2.1-2.021zm-1.643 3.162a3.47 3.47 0 0 1-.944-.003c-.061 2.635-1.018 4.779-1.507 5.709-.008.017.227.19.31.253l.025.019c.73.55 1.641.98 2.591.864 1.428-.175 2.575-1.499 3.388-2.845.076-.129.152-.261.226-.396-1.373-1.266-2.268-2.777-2.833-4.029-.376.22-.802.369-1.256.429zm-5.865 1.319c0-1.114-.942-2.021-2.1-2.021s-2.101.907-2.101 2.021c0 1.1.956 2.021 2.1 2.021 1.14-.002 2.101-.923 2.101-2.021zm30.716 0c0 1.381 1.507 2.381 2.848 1.889.79-.291 1.353-1.027 1.353-1.889 0-1.114-.942-2.021-2.101-2.021s-2.1.907-2.1 2.021zM7.488 31.555c-1.652 0-2.995-1.293-2.995-2.882 0-1.317.925-2.43 2.182-2.772l-1.958-5.518a.581.581 0 0 1 .375-.742l.004-.001a.616.616 0 0 1 .772.36l.001.004 2.055 5.789h27.007l.823-2.318a.616.616 0 0 1 .777-.363l-.004-.001a.58.58 0 0 1 .377.747l.001-.004-.727 2.048c1.257.341 2.182 1.454 2.182 2.772 0 1.589-1.343 2.882-2.995 2.882H7.486zm27.879-4.591H7.487c-.979 0-1.777.766-1.777 1.709s.797 1.71 1.777 1.71h27.88c.98 0 1.777-.766 1.777-1.709s-.797-1.71-1.777-1.71z"/><path d="m40.35 14.149-.723-1.521-.631.3-.233.658 1.587.563zm-2.613 7.362zm-.772.364zm-.379-.743-1.588-.563 1.587.564zm2.361-6.655 1.587.564.812-2.288-2.427.04.028 1.684zm-1.35-.25-.645 1.556.011.004.634-1.56zm-.005-.001.645-1.556-.01-.004-.635 1.56zm-1.007-.639 1.145-1.235-1.529-1.416-1.064 1.792 1.448.859zm-3.676 3.816zm-4.128.077h-.001zM22.962 6.114l1.641-.377-.48-2.088-1.915.958.754 1.507zm-.01.005.751 1.507.003-.001-.754-1.507zm-2.227.282.34-1.649-.341 1.648zm-.832-.287.757-1.505-1.918-.964-.48 2.092 1.641.377zm-5.815 11.364-.803-1.48-.005.003.808 1.478zm-5.089-.673-1.048 1.32.01.008.01.008 1.027-1.336zm-.003-.002 1.048-1.319-.009-.008-.009-.007-1.029 1.333zm-2.717-3.216 1.448-.861-1.064-1.791-1.528 1.416 1.145 1.235zm-1.007.639-.635-1.56-.009.004.644 1.556zm-.005.001.633 1.561.012-.005-.645-1.556zm-1.35.25.025-1.684-2.423-.036.811 2.284 1.587-.563zm1.13 3.184zm-.379.744zm-.773-.365-1.587.563 1.587-.564zm-1.381-3.89 1.587-.564-.233-.658-.631-.3-.723 1.521zm4.533-1.652-1.548-.663-.323.752.392.718 1.478-.808zm1.55 2.267-1.276 1.099 1.682 1.952 1.112-2.324-1.519-.727zm1.187-5.221 1.684-.026-.015-.955-.828-.477-.842 1.459zm4.371-.847L12.809 7.67l-.593.772.373.899 1.555-.645zm2.437 3.752-1.192 1.189 1.713 1.718 1.011-2.206-1.531-.701zm2.254-7.177 1.645.362.177-.805-.526-.633-1.295 1.076zm5.183 0-1.295-1.076-.527.633.177.805 1.645-.362zm2.254 7.177-1.532.701 1.011 2.206 1.714-1.718-1.193-1.189zm2.436-3.752 1.556.645.373-.899-.594-.772-1.336 1.027zm4.371.847-.842-1.459-.827.477-.015.956 1.684.025zm1.188 5.221-1.519.728 1.113 2.324 1.682-1.954-1.276-1.098zm1.548-2.267 1.478.808.392-.718-.323-.752-1.548.663zm-6.538-5.695zm.387 2.733.848-1.454-1.615-.941-.768 1.704 1.535.692zm1.256.429-.222 1.669h.002l.221-1.669zm-4.089 3.601-1.142-1.238-.97.894.637 1.155 1.475-.812zm.226.395-1.448.861.006.008 1.442-.87zm3.388 2.846-.205 1.672h.001l.205-1.672zm2.749-.987zm.177-.148 1.101 1.273 1.011-.874-.623-1.183-1.491.783zm-1.508-5.71 1.684-.039-.045-1.893-1.875.264.236 1.667zM19.326 3.281zm1.984 2.018.093-1.682H21.4l-.09 1.682zM10.989 9.962l.236-1.667-1.875-.264-.044 1.893 1.683.039zm.944.003-.222-1.67-.006.001.228 1.669zm-2.451 5.707-1.491-.784-.003.005 1.493.779zm.31.252h.001zm.025.019-1.014 1.345h.001l1.014-1.345zm2.591.864zm3.388-2.846 1.442.871.005-.008-1.447-.862zm.226-.396 1.476.813.636-1.155-.969-.894-1.143 1.238zm-2.833-4.029 1.535-.692-.768-1.704-1.615.941.848 1.454zm-9.221 3.771-.002 1.684h.004l-.003-1.684zm35.665-.133zM6.675 25.901l.442 1.625 1.753-.477-.608-1.712-1.587.563zm-1.958-5.518-1.587.563 1.587-.564zm.379-.743zm.773.364 1.587-.563-1.587.564zm2.054 5.789-1.588.563.398 1.12h1.189v-1.684zm27.008 0v1.684h1.19l.397-1.121-1.587-.564zm.823-2.318zm.773-.365zm.379.743 1.587.563-1.587-.564zm-.727 2.048-1.587-.564-.608 1.713 1.753.477.442-1.625zm2.706-19.493c-2.698 0-5.002 2.125-5.002 4.877h3.368c0-.77.673-1.508 1.634-1.508V6.409zm5.002 4.877c0-2.751-2.304-4.877-5.002-4.877v3.368c.962 0 1.634.739 1.634 1.508h3.368zm-2.813 4.385c1.634-.777 2.814-2.427 2.814-4.385H40.52c0 .552-.333 1.077-.893 1.343l1.447 3.042zm-1.749 6.404 2.613-7.362-3.175-1.127-2.612 7.362 3.175 1.127zm-2.886 1.401c1.139.375 2.457-.194 2.886-1.401l-3.175-1.127a1.066 1.066 0 0 1 1.348-.67l-.008-.002-1.052 3.2zm-1.44-2.906c-.442 1.244.271 2.522 1.44 2.906l1.053-3.2a1.104 1.104 0 0 1 .68 1.427l.002-.008-3.175-1.126zm2.361-6.655-2.362 6.654 3.175 1.127 2.362-6.654-3.175-1.127zm-.397 1.874c.64.26 1.329.385 2.013.374l-.056-3.368h-.032c-.237 0-.462-.046-.669-.131l.012.004-1.268 3.121zm-.016-.007.005.003 1.29-3.112-.005-.003-1.29 3.112zm-1.506-.958c.428.397.931.721 1.483.95l.033.012 1.27-3.12a1.648 1.648 0 0 1-.498-.314l.001.001-2.289 2.471zm-1.783 4.088c2.058-1.022 3.444-2.896 4.376-4.464l-2.897-1.72c-.833 1.402-1.806 2.585-2.978 3.168l1.499 3.016zm-5.677.051c1.882 1.018 4.04.765 5.677-.051l-1.499-3.016c-.918.456-1.888.476-2.577.104l-1.602 2.963zM21.32 6.49c.735 3.198 1.62 5.858 2.678 7.923 1.048 2.046 2.344 3.663 3.983 4.549l1.601-2.964c-.794-.429-1.691-1.373-2.585-3.121-.885-1.728-1.693-4.094-2.393-7.141l-3.283.755zm2.385 1.135.01-.005-1.507-3.013-.01.005 1.507 3.013zm-3.32.426a5.156 5.156 0 0 0 3.318-.424L22.2 4.612a1.753 1.753 0 0 1-1.146.138l.012.002-.68 3.299zm-1.249-.432c.399.2.82.344 1.249.432l.68-3.299a1.64 1.64 0 0 1-.425-.148l.009.004-1.514 3.01zm-4.256 11.34c1.637-.887 2.931-2.504 3.979-4.55 1.057-2.066 1.941-4.724 2.675-7.918l-3.283-.755c-.7 3.044-1.507 5.41-2.392 7.138-.894 1.747-1.79 2.693-2.585 3.123l1.605 2.962zm-6.918-.819c1.805 1.389 4.436 2.175 6.924.817L13.271 16c-.941.514-2.123.342-3.254-.529L7.962 18.14zm-.023-.018.003.003 2.095-2.638-.003-.003-2.095 2.638zm-3.118-3.675c.899 1.516 1.958 2.78 3.136 3.688l2.058-2.666c-.766-.591-1.56-1.501-2.298-2.743l-2.897 1.72zm1.077 1.338a5.033 5.033 0 0 0 1.519-.966l-.003.003-2.29-2.471a1.642 1.642 0 0 1-.486.309l-.011.004 1.271 3.12zm.004-.001.005-.003-1.289-3.112-.005.003 1.288 3.112zm-1.933.379c.657 0 1.314-.127 1.922-.375l-1.267-3.12a1.73 1.73 0 0 1-.655.126v3.368zm-.088-.001h.088v-3.368h-.036l-.051 3.368zm2.743.936-1.13-3.183-3.175 1.126 1.13 3.184 3.175-1.127zm-1.44 2.907c1.168-.384 1.881-1.662 1.44-2.906l-3.175 1.126a1.103 1.103 0 0 1 .674-1.417l.008-.002 1.053 3.2zm-2.887-1.401c.43 1.212 1.743 1.777 2.886 1.401l-1.052-3.2a1.07 1.07 0 0 1 1.339.664l.002.008-3.175 1.127zM.916 14.712l1.381 3.891 3.175-1.126-1.381-3.891-3.175 1.126zm-1.95-3.427c0 1.958 1.18 3.608 2.814 4.385l1.447-3.042c-.559-.266-.893-.792-.893-1.343h-3.368zm5.003-4.877c-2.698 0-5.002 2.125-5.002 4.877h3.368c0-.77.672-1.508 1.634-1.508V6.409zm5.002 4.877c0-2.751-2.304-4.877-5.002-4.877v3.368c.961 0 1.634.739 1.634 1.508h3.368zm-.385 1.875a4.685 4.685 0 0 0 .385-1.874v-.001H5.603c0 .194-.04.378-.113.549l3.096 1.326zm1.277.506a11.551 11.551 0 0 1-1.317-1.915l-.03-.06-2.955 1.615a15.007 15.007 0 0 0 1.769 2.58l-.017-.021 2.552-2.198zM8.09 9.57c.029 1.917-.589 3.565-1.022 4.467l3.037 1.456c.556-1.16 1.394-3.344 1.352-5.976l-3.368.052zM6.473 6.803c0 1.812 1.013 3.364 2.459 4.199l1.684-2.917c-.49-.283-.775-.769-.775-1.282H6.473zm5.002-4.876c-2.698 0-5.002 2.125-5.002 4.877h3.368c0-.77.673-1.508 1.634-1.508V1.928zm5.002 4.876c0-2.751-2.304-4.877-5.002-4.877v3.368c.961 0 1.634.739 1.634 1.508h3.368zm-.996 2.919a4.745 4.745 0 0 0 .996-2.919h-3.368c0 .317-.106.616-.3.867l2.672 2.052zm2.294 1.538c-1.001-1.005-1.661-2.213-2.074-3.208l-3.112 1.291c.516 1.244 1.387 2.878 2.8 4.295l2.386-2.377zm-.584-6.35c-.456 2.079-1.164 4.706-2.14 6.837l3.062 1.402c1.125-2.456 1.894-5.357 2.368-7.516l-3.29-.723zm-.767-1.629c0 1.169.426 2.237 1.117 3.068l2.59-2.153a1.412 1.412 0 0 1-.338-.914h-3.368zm5.003-4.878c-2.697 0-5.002 2.126-5.002 4.877h3.368c0-.77.674-1.509 1.634-1.509v-3.368zm5.002 4.878c0-2.751-2.304-4.877-5.002-4.877v3.368c.961 0 1.634.739 1.634 1.509h3.368zm-1.115 3.068a4.766 4.766 0 0 0 1.117-3.067h-3.368c0 .337-.12.652-.338.915l2.589 2.153zm2.491 5.398c-.976-2.131-1.684-4.758-2.141-6.837l-3.29.723c.475 2.159 1.243 5.059 2.368 7.516l3.063-1.402zm-.65-3.696c-.413.995-1.073 2.204-2.074 3.208l2.386 2.378c1.412-1.417 2.284-3.052 2.8-4.296L27.155 8.05zm-.778-1.248c0 1.099.376 2.111.997 2.92l2.671-2.052a1.41 1.41 0 0 1-.3-.867h-3.368zm5.002-4.876c-2.697 0-5.002 2.125-5.002 4.877h3.368c0-.77.674-1.508 1.634-1.508V1.928zm5.002 4.876c0-2.751-2.303-4.877-5.002-4.877v3.368c.962 0 1.634.739 1.634 1.508h3.368zm-2.458 4.199c1.447-.835 2.459-2.387 2.459-4.199h-3.368c0 .513-.285.999-.774 1.282l1.684 2.917zm1.864 3.035c-.432-.901-1.052-2.551-1.021-4.467l-3.368-.052c-.04 2.632.797 4.817 1.352 5.976l3.037-1.456zm-1.448-2.347c-.408.75-.855 1.397-1.36 1.992l.014-.017 2.552 2.198a14.877 14.877 0 0 0 1.713-2.481l.039-.077-2.957-1.615zm-.455-.404c0 .664.138 1.298.386 1.875l3.096-1.326a1.372 1.372 0 0 1-.113-.548v-.001h-3.368zm-2.505-4.819c.291 0 .417.213.417.337h3.368c0-2.105-1.758-3.705-3.785-3.705v3.368zm-.416.336c0-.124.126-.337.416-.337V3.098c-2.026 0-3.784 1.6-3.784 3.705h3.368zm.416.337a.452.452 0 0 1-.31-.128c-.086-.082-.106-.16-.106-.209h-3.368c0 2.097 1.784 3.705 3.784 3.705V7.14zm.417-.337c0 .038-.018.118-.109.206a.448.448 0 0 1-.307.131h-.001v3.368c2.009 0 3.785-1.631 3.785-3.705h-3.368zm-2.978 4.188a4.967 4.967 0 0 0 1.856.64l.026.003.445-3.339a1.694 1.694 0 0 1-.639-.218l.008.004-1.696 2.909zm-.843 3.813c1.589-1.466 2.601-3.19 3.226-4.575l-3.07-1.385c-.505 1.119-1.284 2.419-2.44 3.485l2.284 2.476zm.531-1.704a12.12 12.12 0 0 1-.198-.345l-2.951 1.624c.083.151.167.298.253.444l2.895-1.722zm2.146 2.035c-.25-.031-.581-.177-.99-.552-.408-.374-.802-.897-1.16-1.491l-2.884 1.74c.453.751 1.038 1.564 1.765 2.232.724.666 1.682 1.272 2.86 1.415l.41-3.343zm1.484-.625c-.617.499-1.132.668-1.485.624l-.408 3.343c1.688.207 3.113-.621 4.012-1.348l-2.118-2.619zm.135-.113-.135.113 2.119 2.619c.073-.059.146-.12.219-.184l-2.203-2.547zm-2.089-4.395c.069 2.998 1.149 5.407 1.7 6.454l2.981-1.569c-.428-.813-1.261-2.692-1.314-4.963l-3.368.078zm.519 1.633c.455.06.931.061 1.399-.005l-.471-3.336a1.722 1.722 0 0 1-.497 0l.009.001-.441 3.339zm-9.274-8.692c.29 0 .416.214.416.337h3.368c0-2.105-1.758-3.705-3.784-3.705v3.368zm-.416.338c0-.124.126-.337.417-.337V-.424c-2.027 0-3.785 1.6-3.785 3.705h3.368zm.389.337c-.273-.015-.389-.217-.389-.337h-3.368c0 2.034 1.642 3.597 3.579 3.7l.179-3.364zm.443-.337c0 .04-.019.124-.117.213a.454.454 0 0 1-.311.123h-.014.001l-.185 3.363c2.078.115 3.995-1.535 3.995-3.699h-3.368zM11.475 6.467c.29 0 .416.213.416.337h3.368c0-2.105-1.757-3.705-3.784-3.705v3.368zm-.416.336c0-.124.126-.337.417-.337V3.098c-2.027 0-3.785 1.6-3.785 3.705h3.368zm.416.337a.449.449 0 0 1-.312-.126c-.084-.082-.105-.16-.105-.211H7.69c0 2.089 1.772 3.705 3.785 3.705V7.14zm.416-.337c0 .046-.02.126-.106.209a.453.453 0 0 1-.31.129v3.368c2.016 0 3.784-1.624 3.784-3.705h-3.368zm-1.136 4.827c.461.065.937.067 1.406.003l-.456-3.337a1.687 1.687 0 0 1-.49-.002l.009.001-.47 3.335zm.218 4.826c.55-1.047 1.63-3.456 1.699-6.454l-3.367-.078c-.053 2.271-.886 4.15-1.314 4.963l2.981 1.569zm-.179-1.887a5.41 5.41 0 0 1-.17-.127l.017.013c-.028-.022-.025-.021-.006-.004.002.003.055.048.118.12a1.652 1.652 0 0 1 .415 1.102c0 .284-.071.552-.196.787l.004-.009-2.987-1.558a1.679 1.679 0 0 0 .24 1.908l-.001-.002c.074.084.144.147.168.168.063.056.128.108.168.14.089.069.188.141.227.171l2.003-2.708zm.038.03-.038-.029-2.003 2.708.014.01.002.002s-.002 0-.004-.003l2.029-2.69zm1.372.535c-.322.04-.793-.1-1.373-.536l-2.027 2.69c.88.664 2.23 1.384 3.81 1.191l-.41-3.343zm2.15-2.043c-.359.595-.753 1.117-1.16 1.491-.409.376-.74.522-.989.552l.41 3.343c1.178-.143 2.135-.749 2.859-1.415.727-.668 1.312-1.48 1.765-2.232l-2.883-1.74zm.193-.336c-.066.118-.132.234-.199.345l2.894 1.723c.088-.146.172-.295.255-.445l-2.952-1.624zm-2.893-2.527c.625 1.386 1.637 3.11 3.226 4.576l2.284-2.476c-1.155-1.066-1.934-2.366-2.44-3.485l-3.07 1.385zm.502 1.407a5.072 5.072 0 0 0 1.905-.656l-.024.013-1.696-2.909a1.672 1.672 0 0 1-.632.214l.446 3.339zm-8.187-.687c.29 0 .416.213.416.337h3.368c0-2.105-1.757-3.705-3.784-3.705v3.368zm-.417.337c0-.124.126-.337.417-.337V7.579c-2.027 0-3.785 1.6-3.785 3.705h3.368zm.417.337a.454.454 0 0 1-.312-.127c-.084-.081-.105-.16-.105-.21H.184c0 2.089 1.771 3.705 3.783 3.705l.003-3.368zm.416-.337c0 .046-.019.125-.105.207a.461.461 0 0 1-.315.131l.006 3.368c2.003-.003 3.783-1.613 3.783-3.705H4.386zm34.667.308a.463.463 0 0 1-.416-.065l.001.001c-.144-.096-.168-.197-.168-.244h-3.368c0 2.645 2.762 4.334 5.114 3.469l-1.162-3.161zm.25-.308c0 .099-.067.241-.25.308l1.162 3.162c1.398-.514 2.456-1.845 2.456-3.469h-3.368zm-.417-.337c.291 0 .417.213.417.337h3.368c0-2.105-1.758-3.705-3.785-3.705v3.368zm-.416.337c0-.124.126-.337.416-.337V7.579c-2.027 0-3.784 1.6-3.784 3.705h3.368zM2.808 28.675c0 2.579 2.159 4.565 4.679 4.565v-3.368c-.783 0-1.31-.599-1.31-1.197H2.809zm3.425-4.399c-1.931.525-3.425 2.259-3.425 4.398h3.368c0-.498.355-.989.94-1.148l-.884-3.251zm-3.104-3.329 1.959 5.518 3.175-1.127-1.96-5.518-3.175 1.127zm1.44-2.907c-1.168.384-1.881 1.662-1.44 2.906l3.175-1.126a1.103 1.103 0 0 1-.674 1.417l-.008.002-1.053-3.2zm2.886 1.401c-.429-1.212-1.743-1.777-2.885-1.401l1.051 3.2a1.07 1.07 0 0 1-1.338-.665l-.002-.008 3.175-1.127zm2.055 5.788L7.455 19.44 4.28 20.567l2.055 5.789 3.175-1.127zm25.421-1.12H7.922v3.368h27.009v-3.368zm-.764-1.198-.823 2.318 3.175 1.127.823-2.318-3.175-1.127zm2.886-1.401c-1.143-.376-2.456.19-2.886 1.402l3.175 1.126a1.071 1.071 0 0 1-1.348.67l.008.002 1.052-3.2zm1.44 2.906c.442-1.244-.271-2.522-1.44-2.906l-1.051 3.2a1.104 1.104 0 0 1-.68-1.427l-.002.008 3.174 1.126zm-.726 2.049.727-2.048-3.175-1.127-.727 2.048 3.175 1.127zm2.278 2.209c0-2.138-1.493-3.874-3.425-4.397l-.883 3.251c.584.158.94.65.94 1.147h3.368zm-4.678 4.566c2.52 0 4.679-1.986 4.679-4.566h-3.368c0 .598-.527 1.197-1.31 1.197v3.368zm-27.88 0h27.88v-3.368H7.487v3.368zm0-4.592h27.88V25.28H7.487v3.368zm-.092.026a.04.04 0 0 1-.003.015c-.001.002 0-.002.008-.008a.127.127 0 0 1 .083-.031h.005v-3.368c-1.848 0-3.461 1.46-3.461 3.394h3.368zm.092.026h-.006a.127.127 0 0 1-.083-.031c-.007-.007-.008-.011-.008-.008a.03.03 0 0 1 .003.013H4.025c0 1.934 1.613 3.395 3.461 3.395v-3.368zm27.88 0H7.487v3.368h27.88V28.7zm.092-.025c0-.005.002-.011.003-.014s0 .002-.008.008a.127.127 0 0 1-.083.031h-.005v3.368c1.848 0 3.461-1.46 3.461-3.394h-3.368zm-.092-.027c.045 0 .073.016.088.03.008.008.008.011.008.008a.03.03 0 0 1-.003-.013h3.368c0-1.933-1.613-3.394-3.461-3.394v3.368z"/></symbol>

<symbol id="icon-work1" viewBox="0 0 33 32"><path fill="#fff" style="fill:var(--color1, #fff)" d="M32.771 15.766c0 8.707-7.336 15.766-16.386 15.766S-.001 24.473-.001 15.766 7.335 0 16.385 0s16.386 7.059 16.386 15.766z"/><path fill="none" opacity=".9" stroke="#000" style="stroke:var(--color2, #000)" stroke-width=".774" d="m19.922 23.66-.003.001c-4.915 1.859-10.45-.49-12.376-5.224-1.89-4.702.525-10.027 5.438-11.886 4.921-1.831 10.456.521 12.378 5.225 1.919 4.698-.492 10.051-5.437 11.884zM8.223 12.502l-.006.004c-1.089.633-1.515 2.014-.833 3.13.332.542.79.867 1.285 1.093.38.174.804.299 1.21.419l.31.093.005.001.004.001c.834.234 1.817.417 3.002.48l.263.014.108-.238c.468-1.038.77-1.928 1.022-2.669l.063-.188.001-.004c.339-1.026.519-1.992-.133-3.058l-.003-.004a2.413 2.413 0 0 0-3.219-.808 2.257 2.257 0 0 0-1.122 1.549l-.002.014a2.357 2.357 0 0 0-.787-.132c-.429 0-.832.112-1.181.309l.012-.006zm12.045 2.458.239.1 1.712-2.685.327.211v-.001l.093-.143c.521-.806 1.117-1.729.852-2.917l-.001-.002c-.283-1.236-1.548-1.995-2.797-1.732a2.321 2.321 0 0 0-1.583 1.144 2.405 2.405 0 0 0-1.929-.4l.016-.003h-.003c-1.253.265-2.068 1.473-1.786 2.71.27 1.18 1.057 1.796 2.06 2.32.74.414 1.628.908 2.799 1.398zm-6.948 4.511a1.962 1.962 0 0 0-.473.116.818.818 0 0 0-.366.267.595.595 0 0 0-.098.483.884.884 0 0 0 .197.369c.164.193.416.374.698.538.289.168.639.334 1.022.487.744.306 1.613.551 2.516.695l.067.009c.881.13 1.783.137 2.473-.122.697-.261 1.362-.853 1.924-1.522a10.945 10.945 0 0 0 1.389-2.133l.029-.064c.176-.362.318-.712.414-1.024.094-.305.154-.604.141-.855a.86.86 0 0 0-.112-.404l.002.004a.612.612 0 0 0-.39-.29l-.004-.001a.83.83 0 0 0-.451.035 1.944 1.944 0 0 0-.426.216c-2.098 1.316-3.102 1.944-4.145 2.334-1.041.389-2.126.542-4.409.862z"/></symbol>

<symbol id="icon-work2" viewBox="0 0 33 32"><path fill="#fff" style="fill:var(--color1, #fff)" d="M32.771 15.766c0 8.707-7.336 15.766-16.386 15.766S-.001 24.473-.001 15.766 7.335 0 16.385 0s16.386 7.059 16.386 15.766z"/><path style="fill:var(--color2, #000)" d="m28.567 22.799-.024-.022-3.625-2.949c.545-.803.87-1.794.87-2.861v-.015.001c0-1.291-.47-2.51-1.328-3.462a.324.324 0 0 0 .008-.072v-5.99c0-.596-.485-1.081-1.081-1.081H8.364c-.596 0-1.081.485-1.081 1.081v4.182a.32.32 0 0 0 .638 0V7.429a.444.444 0 0 1 .443-.443h4.832v3.095a.32.32 0 0 0 .43.299l-.002.001 2.253-.812 2.253.812a.315.315 0 0 0 .292-.04l-.001.001a.32.32 0 0 0 .136-.261V6.986h4.831c.245 0 .443.198.444.443v5.469a5.106 5.106 0 0 0-3.205-1.122h-.016.001-.014c-1.425 0-2.715.58-3.647 1.516a5.16 5.16 0 0 0-.9 1.208l-.014.027h-4.836a.683.683 0 0 0-.682.682v3.419c0 .376.306.682.682.682h4.802c.259.501.575.93.948 1.303a5.127 5.127 0 0 0 3.647 1.516h.015-.001a5.137 5.137 0 0 0 2.917-.899l.302.333v1.483a.358.358 0 0 1-.358.358h-4.822a.32.32 0 0 0 0 .638h4.822c.55 0 .996-.447.996-.996v-.779l2.19 2.417c.243.249.583.404.958.404h.002a1.34 1.34 0 0 0 .949-2.29zM17.917 9.627l-1.934-.697a.31.31 0 0 0-.219.001l.002-.001-1.934.697V6.986h4.085v2.641zm-4.033 5.54v3.507h-1.216v-3.507h1.216zm-2.728 3.463v-3.42c0-.024.02-.044.044-.044h.829v3.507H11.2a.044.044 0 0 1-.044-.044zm3.366.044v-3.507h1.23a5.121 5.121 0 0 0-.316 1.788c0 .616.107 1.207.303 1.755l-.011-.036h-1.206zm2.879 1.49a4.545 4.545 0 0 1 0-6.419 4.497 4.497 0 0 1 3.197-1.33h.013-.001c1.212 0 2.352.472 3.209 1.33a4.497 4.497 0 0 1 1.33 3.197v.013-.001a4.506 4.506 0 0 1-1.33 3.21 4.497 4.497 0 0 1-3.197 1.329h-.013.001-.013a4.497 4.497 0 0 1-3.197-1.329zm10.715 4.083a.706.706 0 0 1-.991.005l-3.093-3.413a5.24 5.24 0 0 0 .493-.496l.005-.006 3.595 2.925a.703.703 0 0 1-.01.985zm-10.742-.841a.32.32 0 0 1 0 .638H8.278a.997.997 0 0 1-.996-.996V12.886a.32.32 0 0 1 .638 0v10.162a.36.36 0 0 0 .358.358h9.096zm3.236-10.117c.979 0 1.899.381 2.591 1.074.662.664 1.071 1.579 1.071 2.591s-.409 1.927-1.071 2.591a3.632 3.632 0 0 1-2.582 1.074H20.6a3.627 3.627 0 0 1-2.581-1.073 3.632 3.632 0 0 1-1.074-2.582v-.01c0-.979.381-1.899 1.074-2.591a3.63 3.63 0 0 1 2.581-1.074h.01-.001zm-.016 1.921a.044.044 0 0 0-.044-.044h-1.255v3.507h1.255c.024 0 .044-.02.044-.044V15.21zm-1.937-.044h-.489a2.983 2.983 0 0 0-.583 1.779v.017c0 .641.201 1.234.542 1.722l-.006-.01h.536v-3.507zm1.954 4.814c.808 0 1.568-.315 2.14-.887.547-.548.885-1.304.885-2.14s-.338-1.592-.885-2.14a3 3 0 0 0-2.132-.886h-.017c-.68 0-1.307.226-1.81.606l.008-.005h1.75c.376 0 .681.306.681.682v3.419a.683.683 0 0 1-.681.682h-1.836a2.982 2.982 0 0 0 1.889.669h.008z"/></symbol>

<symbol id="icon-work3" viewBox="0 0 33 32"><path fill="#fff" style="fill:var(--color1, #fff)" d="M32.771 15.766c0 8.707-7.336 15.766-16.386 15.766S-.001 24.473-.001 15.766 7.335 0 16.385 0s16.386 7.059 16.386 15.766z"/><path style="fill:var(--color2, #000)" d="m19.873 7.045-.081-.021a.834.834 0 0 1-.625-.964l.174-.857a.836.836 0 0 1 .391-.547.888.888 0 0 1 .688-.096l-.006-.001.201.052c.23.06.427.211.539.413s.132.444.055.661l-.294.826a.867.867 0 0 1-.82.563.859.859 0 0 1-.228-.03l.006.001zm.065-1.73-.174.857a.249.249 0 0 0 .185.288h.002l.081.021a.26.26 0 0 0 .31-.157l.001-.002.294-.826a.233.233 0 0 0-.017-.198l.001.001a.251.251 0 0 0-.159-.122h-.002l-.201-.052a.278.278 0 0 0-.204.03l.001-.001a.245.245 0 0 0-.116.162v.002zm2.809 3.253a.884.884 0 0 1-.612-.243l-.059-.057a.808.808 0 0 1-.039-1.136l-.001.001.597-.659a.883.883 0 0 1 .621-.285h.001a.888.888 0 0 1 .641.244l.147.141a.819.819 0 0 1 .253.617.823.823 0 0 1-.295.598L24 7.79l-.684.574a.877.877 0 0 1-.564.204h-.004zm.343-1.71-.596.659a.242.242 0 0 0 .012.338l.059.057a.267.267 0 0 0 .353.012l.684-.574a.243.243 0 0 0 .013-.362l-.147-.141a.26.26 0 0 0-.18-.073h-.011a.258.258 0 0 0-.186.085zm-1.895 5.534h-.391a3.846 3.846 0 0 0-.029-.15l.005.028a1.327 1.327 0 0 0-.481-.768l-.003-.002c.243-.188.418-.457.484-.771a3.852 3.852 0 0 0-.005-1.634l.005.025a1.359 1.359 0 0 0-1.313-1.063 228.668 228.668 0 0 0-9.321-.035l.191-.002h-.002a.297.297 0 0 0-.297.297c.003.162.139.29.309.287 3.024-.047 6.088-.035 9.106.038a.758.758 0 0 1 .733.596 3.32 3.32 0 0 1-.004 1.396l.004-.022a.762.762 0 0 1-.731.596H8.418a.761.761 0 0 1-.732-.591l-.001-.005a3.257 3.257 0 0 1 .004-1.396l-.004.022a.764.764 0 0 1 .733-.596l.677-.015h.034l.008-.001a.297.297 0 0 0 .297-.297v-.001a.298.298 0 0 0-.298-.286h-.013.001-.009l-.712.016a1.36 1.36 0 0 0-1.314 1.063 3.852 3.852 0 0 0 .005 1.634l-.005-.025c.067.314.243.582.485.77a1.32 1.32 0 0 0-.485.771 3.845 3.845 0 0 0 .005 1.634l-.005-.025c.067.313.243.582.485.77a1.318 1.318 0 0 0-.485.77 3.845 3.845 0 0 0 .005 1.634l-.005-.026c.067.314.243.582.485.77a1.32 1.32 0 0 0-.485.771 3.852 3.852 0 0 0 .005 1.634l-.005-.025c.067.314.243.582.485.77a1.317 1.317 0 0 0-.485.771 3.852 3.852 0 0 0 .005 1.634l-.005-.025a1.36 1.36 0 0 0 1.314 1.063 233.519 233.519 0 0 0 10.113.021l-.229.003c.039-.001.069-.034.088-.083.426.088.868.135 1.32.135h1.5c3.459 0 6.274-2.708 6.274-6.037s-2.814-6.036-6.274-6.036zm-13.51-.005a.763.763 0 0 1 .732-.596h11.037a.76.76 0 0 1 .73.591l.001.005.001.005h-.491a6.37 6.37 0 0 0-4.627 1.965H8.417a.76.76 0 0 1-.731-.59l-.001-.005a3.25 3.25 0 0 1 .004-1.396l-.004.022zm0 3.15a.763.763 0 0 1 .732-.596h6.161a5.82 5.82 0 0 0-1.078 2.531l-.005.034H8.417a.761.761 0 0 1-.731-.59l-.001-.005a3.257 3.257 0 0 1 .004-1.396l-.004.022zm0 3.148a.763.763 0 0 1 .732-.596h5.015a5.799 5.799 0 0 0 .446 2.603l-.014-.038H8.417a.762.762 0 0 1-.732-.59l-.001-.005a3.257 3.257 0 0 1 .004-1.396l-.004.022zm.734 5.119a.761.761 0 0 1-.733-.59l-.001-.005a3.257 3.257 0 0 1 .004-1.396l-.004.022a.762.762 0 0 1 .732-.596h5.728a6.22 6.22 0 0 0 2.794 2.612c-2.837.036-5.697.021-8.52-.046zm5.61-5.376c0-2.452 1.69-4.53 4.008-5.214-1.862 1.048-3.115 2.993-3.115 5.214s1.253 4.166 3.115 5.214c-2.318-.684-4.008-2.763-4.008-5.214zm7.167 5.453c-3.125 0-5.667-2.446-5.667-5.453s2.542-5.452 5.667-5.452 5.667 2.446 5.667 5.452-2.542 5.453-5.667 5.453zm0-9.971c-2.59 0-4.697 2.027-4.697 4.519s2.107 4.519 4.697 4.519c.919 0 1.808-.255 2.572-.738a.285.285 0 0 0 .087-.405l.001.001a.312.312 0 0 0-.421-.083l.001-.001a4.144 4.144 0 0 1-2.228.642h-.012.001c-2.255 0-4.09-1.765-4.09-3.935s1.835-3.934 4.09-3.934 4.089 1.765 4.089 3.934c0 .951-.357 1.869-1.006 2.584a.284.284 0 0 0 .029.411.31.31 0 0 0 .429-.028 4.399 4.399 0 0 0 1.156-2.967v-.001c0-2.492-2.107-4.519-4.697-4.519zm2.211-3.465.022.077a.864.864 0 0 0 1.001.602l.891-.168a.87.87 0 0 0 .566-.374l.002-.003a.807.807 0 0 0 .102-.655l-.054-.194a.848.848 0 0 0-.424-.517l-.005-.002a.892.892 0 0 0-.694-.05l.006-.002-.859.284a.829.829 0 0 0-.555 1.002zm.752-.45.859-.284a.27.27 0 0 1 .206.016l-.001-.001a.253.253 0 0 1 .128.153v.002l.054.194a.239.239 0 0 1-.031.197l.001-.001a.257.257 0 0 1-.168.112h-.002l-.891.168a.26.26 0 0 1-.299-.177v-.002l-.021-.077a.248.248 0 0 1 .164-.299l.002-.001z"/></symbol>

<symbol id="icon-work4" viewBox="0 0 33 32"><path fill="#fff" style="fill:var(--color1, #fff)" d="M32.771 15.766c0 8.707-7.336 15.766-16.386 15.766S-.001 24.473-.001 15.766 7.335 0 16.385 0s16.386 7.059 16.386 15.766z"/><path style="fill:var(--color2, #000)" d="M11.841 8.503a.36.36 0 0 1-.359.352h-.014a.359.359 0 0 1-.359-.351V7.239c0-.195.164-.353.366-.353s.365.158.365.352v1.265zm-3.035-.347c-.067-.064-.158-.103-.259-.103s-.192.039-.259.103a.343.343 0 0 0 0 .498l.93.894a.37.37 0 0 0 .259.103h.001c.1 0 .19-.039.257-.103a.343.343 0 0 0 0-.498l-.929-.894zm12.846 9.299 3.758-1.796a.35.35 0 0 0 .203-.317l-.001-.028v.001a.356.356 0 0 0-.253-.307l-.003-.001-6.094-1.823a.37.37 0 0 0-.457.23l-.001.003a.35.35 0 0 0 .237.44l.002.001 5.223 1.563-3.397 1.624a.345.345 0 0 0-.096.564l3.942 3.793-2.666 2.565-3.942-3.793a.372.372 0 0 0-.32-.098h.002a.365.365 0 0 0-.267.189l-.001.002-1.688 3.269-3.804-11.776 4.217 1.262a.37.37 0 0 0 .458-.231.35.35 0 0 0-.238-.441l-.002-.001-4.882-1.461a.37.37 0 0 0-.367.088.343.343 0 0 0-.09.356l-.001-.002 4.283 13.253c.05.145.185.248.344.248h.008c.14 0 .262-.079.324-.194l.001-.002 1.867-3.616 3.841 3.695a.375.375 0 0 0 .518 0l3.182-3.063a.343.343 0 0 0 0-.498l-3.841-3.695zm-7.92-7.907a.37.37 0 0 1-.257.103h-.003a.37.37 0 0 1-.257-.103.343.343 0 0 1 0-.498l.93-.894a.375.375 0 0 1 .518 0 .343.343 0 0 1 0 .498l-.929.894zm-4.514 3.35-.929.894a.343.343 0 0 0 0 .498.374.374 0 0 0 .258.103h.001c.1 0 .191-.039.257-.103l.929-.894a.343.343 0 0 0 0-.498.372.372 0 0 0-.516 0zm-.204-1.675a.36.36 0 0 0-.359-.352H7.327a.359.359 0 0 0-.359.351c0 .195.164.352.365.352H8.655a.36.36 0 0 0 .359-.352zm8.764 2.228-.024.001a.372.372 0 0 1-.337-.215l-.001-.002a.349.349 0 0 1 .134-.426l.001-.001a.38.38 0 0 1 .411.004l-.001-.001a.35.35 0 0 1 .147.381.368.368 0 0 1-.328.26h-.001z"/></symbol>

<symbol id="icon-work5" viewBox="0 0 33 32"><path fill="#fff" style="fill:var(--color1, #fff)" d="M32.771 15.766c0 8.707-7.336 15.766-16.386 15.766S-.001 24.473-.001 15.766 7.335 0 16.385 0s16.386 7.059 16.386 15.766z"/><path style="fill:var(--color2, #000)" d="M8.642 19.34a.346.346 0 0 1-.123-.074l-2.455-2.362a.325.325 0 0 1-.001-.472l3.234-3.112c-.888-1.09-1.442-2.391-.78-3.027.435-.419 1.168-.33 1.941.021l1.516-1.459c-.365-.743-.457-1.449-.022-1.867.663-.637 2.013-.104 3.147.75l3.234-3.112a.368.368 0 0 1 .49 0l2.455 2.361a.325.325 0 0 1 .001.472l-8.839 8.505h7.31c-.352-.441-.697-.974-.697-1.336 0-.555.358-1.053.898-1.249a1.421 1.421 0 0 1 1.53.365l.001.001a1.422 1.422 0 0 1 1.541-.363l-.01-.003c.54.196.898.694.898 1.249 0 .361-.345.894-.697 1.336H24.959c.186 0 .337.149.341.334v8.016a.341.341 0 0 1-.341.334H8.981a.341.341 0 0 1-.341-.334v-4.973zm11.8-5.38a.682.682 0 0 0-.694.668c.212.524.519.969.903 1.334l.002.002h1.662c.386-.367.692-.812.895-1.311l.009-.025c0-.369-.311-.668-.694-.668s-.694.299-.694.668v.09a.341.341 0 0 1-.341.334h-.014a.341.341 0 0 1-.341-.334v-.091a.682.682 0 0 0-.694-.668zm4.165 2.671h-5.9v7.347h5.9v-7.347zm-6.594 0h-2.082v7.347h2.082v-7.347zm-2.777 7.347v-7.347h-3.47v-.018l-2.449 2.356h.019v5.01h5.9zm-3.527-12.033 1.964 1.889 1.963-1.889-1.963-1.889-1.964 1.889zm8.835-4.723-1.963-1.889-4.418 4.252 1.963 1.887 4.418-4.25zm-7.804.15a.413.413 0 0 0-.296.086l.001-.001c-.222.214-.055 1.033.783 2.08l1.379-1.326c-.805-.596-1.48-.839-1.867-.839zm-.005 2.643a6.821 6.821 0 0 1-.391-.528l-.016-.025-1.238 1.191c.195.12.388.251.575.392l1.069-1.029zm-3.431.663a.413.413 0 0 0-.296.086l.001-.001c-.222.213-.056 1.033.783 2.08l1.379-1.326c-.805-.596-1.48-.84-1.867-.84zm3.878 3.629-1.963-1.889-4.416 4.25 1.961 1.889 4.418-4.251zm9.547-5.604a1.421 1.421 0 0 1 1.53.365l.001.001a1.422 1.422 0 0 1 1.541-.363l-.01-.003c.54.196.898.693.898 1.249 0 .725-1.639 2.671-2.43 2.671s-2.429-1.946-2.429-2.672c0-.555.358-1.052.898-1.249zm1.537 3.253c.388-.049 1.722-1.585 1.73-2.004 0-.369-.311-.668-.694-.668s-.694.299-.694.668v.09a.341.341 0 0 1-.341.334H24.254a.341.341 0 0 1-.341-.334v-.091c0-.369-.311-.668-.694-.668s-.694.299-.694.668c.008.419 1.342 1.955 1.741 2.004zm-.005-6.345h-.007a.341.341 0 0 0-.341.334v.334h-.353a.341.341 0 0 0-.341.334.341.341 0 0 0 .341.334h.354v.334a.341.341 0 0 0 .341.334h.014a.341.341 0 0 0 .341-.334v-.334h.354a.341.341 0 0 0 .341-.334.341.341 0 0 0-.341-.334h-.354v-.334a.341.341 0 0 0-.341-.334h-.007zm-4.86 5.677h.006a.341.341 0 0 0 .341-.334.342.342 0 0 0-.341-.335H19.394a.341.341 0 0 0-.341.334.34.34 0 0 0 .341.333h.007zm-2.776 4.007h.007a.341.341 0 0 0 .341-.334v-.334h.354a.341.341 0 0 0 .341-.334.341.341 0 0 0-.341-.334h-.354v-.334a.341.341 0 0 0-.341-.334H16.619a.341.341 0 0 0-.341.334v.334h-.354a.341.341 0 0 0-.341.334.341.341 0 0 0 .341.334h.353v.334a.341.341 0 0 0 .341.334h.007zm9.024-.667h.006a.341.341 0 0 0 .341-.334.341.341 0 0 0-.341-.334H25.642a.341.341 0 0 0-.341.334.341.341 0 0 0 .341.334h.007z"/></symbol>

<symbol id="timeline-work" viewBox="0 0 1 32"><path fill="none" stroke="#fff" style="stroke:var(--color1, #fff)" stroke-width=".2" d="M.1.499c0 .217.184.4.419.4s.419-.183.419-.4-.184-.4-.419-.4S.1.282.1.499zm0 6.552c0 .217.184.399.419.399s.419-.183.419-.399-.184-.399-.419-.399S.1 6.835.1 7.051zm0 8.35c0 .217.184.399.419.399s.419-.183.419-.399-.184-.399-.419-.399-.419.183-.419.399zm0 9.268c0 .217.184.399.419.399s.419-.183.419-.399c0-.217-.184-.399-.419-.399s-.419.183-.419.399zm0 6.832c0 .217.184.399.419.399s.419-.183.419-.399c0-.217-.184-.399-.419-.399s-.419.183-.419.399z"/><path fill="#fff" style="fill:var(--color1, #fff)" d="M.439.839h.2v5.873h-.2zm0 6.672h.2v7.431h-.2zm0 8.349h.2v8.35h-.2zm0 9.229h.2v5.992h-.2z"/></symbol>

<symbol id="icon-acc1" viewBox="0 0 41 32"><path style="fill:var(--color1, #000)" opacity=".1" d="M35.147 8.518a6.774 6.774 0 0 1-2.243-2.136C30.421 2.551 25.989.001 20.94.001c-4.76 0-8.971 2.268-11.518 5.736a7.682 7.682 0 0 1-2.179 1.986C3.366 10.09.819 14.278.908 19.031c.133 7.191 6.316 12.96 13.814 12.894a14.408 14.408 0 0 0 4.052-.619l-.102.027a15.877 15.877 0 0 1 7.4-.386c.724.138 1.558.216 2.409.216 7.052 0 12.789-5.534 12.749-12.296-.029-4.376-2.454-8.212-6.085-10.348z"/><path style="fill:var(--color1, #000)" opacity=".3" d="M24.949 30.075c1.114-.099 3.126-.579 3.882-1.572.697-.918-.152-2.165.363-3.064s3.401-1.407 4.216-2.438c.967-1.224-1.124-2.395-.108-3.224s4.382-1.642 4.706-2.696-1.006-1.101.245-3.012c1.06-1.619 2.478-3.737 1.315-4.734-1.237-1.063-2.9.569-3.793 1.873-1.153 1.675-2.12-.23-3.362.508-1.124.668-1.242 4.692-2.115 5.44-.869.748-2.424.047-3.641 1.36-1.222 1.313.29 3.567-.358 4.569s-2.302.499-3.229 1.925c-.932 1.426 1.88 5.063 1.88 5.063z"/><path style="fill:var(--color1, #000)" opacity=".3" d="M26.613 29.435c.609.292 1.816.668 2.537.391.668-.259.648-1.167 1.222-1.473.569-.306 2.233.325 3.003.047.913-.334.226-1.586 1.03-1.699s2.822.508 3.342.066c.525-.442-.147-.88 1.143-1.482 1.094-.508 2.542-1.167 2.277-2.042-.285-.932-1.693-.602-2.596-.207-1.163.513-1.016-.777-1.909-.781-.805-.005-2.223 2.042-2.925 2.16s-1.271-.725-2.346-.423c-1.075.301-1.055 1.934-1.727 2.254s-1.359-.456-2.321-.005c-.962.442-.731 3.195-.731 3.195zM.082 19.785c-.962 3.685 6.895 5.722 6.861 6.447s-4.073.108-3.327 2.099c.692 1.845 6.993 2.767 11.689.842.137-.057 3.607-5.416 1.315-8.696s-3.204 2.202-4.314 2.023c-1.109-.179 1.571-6.856-.658-8.376-2.306-1.576-3.204 3.252-4.284 2.47-1.021-.739-1.33-7.647-4.25-6.847a1.95 1.95 0 0 0-.329.118c-.059.028-.123.056-.182.089-3.396 1.793 2.699 9.256 1.242 9.487-1.453.24-3.278-1.52-3.764.344z"/><path style="fill:var(--color1, #000)" d="m15.509 19.996-6.969 1.7 18.454 2.361 6.282-1.7-17.767-2.361z"/><path style="fill:var(--color1, #000)" d="M27.092 23.918 8.638 21.651v6.234l18.454 3.211v-7.178zM33.276 22.358l-6.184 1.606v7.132l6.184-2.267v-6.471z"/><path fill="#fff" style="fill:var(--color2, #fff)" d="M15.855 23.989c-1.105.638-1.468 2.018-.812 3.083.665 1.07 2.099 1.419 3.204.782 1.114-.633 1.475-2.02.812-3.083s-2.097-1.413-3.204-.781zm-.816 2.334a.436.436 0 0 1 .058-.628.482.482 0 0 1 .495-.058.436.436 0 0 1 .148-.458l.001-.001a.479.479 0 0 1 .653.055c.166.191.168.387.132.63-.03.191-.063.419-.135.694a3.185 3.185 0 0 1-.71 0l.014.001c-.253-.035-.491-.045-.657-.236zm2.929 1.081c-.518.298-2.017-.09-1.438-.268 1.026-.316 1.026-.316 1.887-1.079.433-.397.076 1.047-.449 1.347zm.31-2.331a2.975 2.975 0 0 1-.329.584 6.226 6.226 0 0 1-.696-.217c-.245-.081-.421-.182-.515-.409s.02-.486.255-.577a.474.474 0 0 1 .489.09.44.44 0 0 1 .292-.391.469.469 0 0 1 .6.245c.099.24 0 .451-.095.676z"/><path style="fill:var(--color1, #000)" d="M29.448 18.582c0 1.635-2.716 2.962-6.059 2.962s-6.054-1.327-6.054-2.962c0-.474 2.71-.858 6.054-.858s6.059.389 6.059.858z"/><path style="fill:var(--color1, #000)" d="M29.393 18.694c-.397.421-2.936.741-6.004.741-3.074 0-5.608-.32-6.004-.741.391-.415 2.93-.741 6.004-.741s5.607.325 6.004.741z"/><path fill="#63b0b8" style="fill:var(--color3, #63b0b8)" d="M15.473 16.046c1.961-2.621 3.873-4.517 4.264-4.241.397.277-.87 2.626-2.831 5.242-1.961 2.621-3.878 4.517-4.269 4.24-.397-.271.87-2.621 2.837-5.242z"/><path style="fill:var(--color1, #000)" d="M19.742 11.806c1.372.959.892 3.862-1.069 6.478-1.961 2.621-4.666 3.969-6.037 3.004-.397-.271.87-2.626 2.837-5.242 1.967-2.621 3.873-4.517 4.269-4.24z"/><path style="fill:var(--color1, #000)" d="M19.808 11.912c.121.554-1.102 2.733-2.903 5.135-1.807 2.408-3.558 4.203-4.142 4.267-.121-.554 1.102-2.733 2.903-5.135 1.801-2.408 3.558-4.203 4.142-4.267z"/></symbol>

<symbol id="icon-acc2" viewBox="0 0 40 32"><path style="fill:var(--color1, #000)" opacity=".4" d="M21.084 25.128c7.136 0 12.92-.284 12.92-.635s-5.785-.635-12.92-.635-12.92.284-12.92.635 5.785.635 12.92.635z"/><path style="fill:var(--color1, #000)" opacity=".5" d="M15.211 24.156s-1.616-6.909-3.683-10.91C9.461 9.244 7.262 7.923 7.262 7.923s1.042 1.792 1.699 4.17c.662 2.373.832 4.877 1.861 7.199 1.568 3.513 4.389 4.864 4.389 4.864z"/><path style="fill:var(--color1, #000)" opacity=".5" d="M14.392 24.068s-1.634-4.073-3.267-6.333c-1.634-2.259-3.101-2.874-3.101-2.874s.802 1.001 1.428 2.394c.626 1.388.963 2.899 1.813 4.229 1.283 2.003 3.127 2.584 3.127 2.584z"/><path style="fill:var(--color1, #000)" d="M30.444 15.413c1.56 0 2.825-1.215 2.825-2.714s-1.265-2.714-2.825-2.714c-1.56 0-2.825 1.215-2.825 2.714s1.265 2.714 2.825 2.714zM17.58 24.265h-4.257a35.19 35.19 0 0 1 .123-9.152h3.293a34.507 34.507 0 0 0 .841 9.152z"/><path style="fill:var(--color1, #000)" d="M30.553 21.976a76.098 76.098 0 0 0-12.772-6.74c.092-1.65.092-3.303.004-4.952a74.764 74.764 0 0 0 12.767-6.863c.466 2.789.732 6.002.732 9.278s-.266 6.489-.779 9.62l.046-.342z"/><path style="fill:var(--color1, #000)" d="M30.553 3.416c-.258.184-.741.502-1.228.813l-.252.151c.374 2.496.587 5.377.587 8.307 0 2.941-.215 5.833-.631 8.659l.039-.321c1.065.654 1.549.967 2.032 1.282l-.547-.335c.466-2.789.732-6.002.732-9.278s-.266-6.489-.779-9.62l.046.342zM12.088 10.637h-.85c-.547 0-.99.425-.99.951v2.217c0 .526.442.951.99.951h.85c.547 0 .99-.425.99-.951v-2.217c0-.526-.442-.951-.99-.951z"/><path style="fill:var(--color1, #000)" d="M18.443 9.417h-6.171a.662.662 0 0 0-.675.648v5.268c0 .358.302.648.675.648h6.171c.372 0 .674-.29.674-.648v-5.268a.661.661 0 0 0-.674-.648z"/><path fill="#efbc90" style="fill:var(--color4, #efbc90)" d="m13.315 5.609-.53-.139.28-.976.324.084-.075 1.031z"/><path fill="#f4caab" style="fill:var(--color5, #f4caab)" d="M14.129 4.241c-.026.425-.206.812-.482.833-.258.021-.609-.307-.683-.753-.079-.471.11-.757.491-.779.407-.025.701.236.675.699z"/><path fill="#004a62" style="fill:var(--color6, #004a62)" d="M13.411 4.224c.083-.156.254-.193.381-.21.127-.013.337.042.363-.046s-.026-.416-.552-.505c-.473-.076-.771.177-.889.505-.105.286.07.614.307.568.241-.038.289-.122.39-.311z"/><path fill="#f4caab" style="fill:var(--color5, #f4caab)" d="M13.389 4.363c.013.076-.031.143-.096.152s-.127-.046-.14-.122c-.013-.076.031-.143.096-.152s.127.046.14.122z"/><path fill="#004a62" style="fill:var(--color6, #004a62)" d="M13.586 3.03c.079.194-.031.501-.28.598-.25.093-.547-.063-.626-.257s.105-.316.359-.412c.245-.093.469-.122.547.072z"/><path fill="#efbc90" style="fill:var(--color4, #efbc90)" d="M15.859 7.957c-.004.093-.153.198-.359.215-.188.013-.315-.088-.315-.185-.004-.21.683-.173.675-.029zm.223 1.026-.039-.008-3.219-.572-.118.997.491.021 2.374.109-.959 2.217-.044.105.202.093.057-.101 1.459-2.461a.302.302 0 0 0 .031-.084.278.278 0 0 0-.232-.316z"/><path fill="#efbc90" style="fill:var(--color4, #efbc90)" d="m16.345 9.118-.035-.004-3.517-.623-.127.989.491.03 2.834.164.153 2.811.004.114h.223l.009-.114.193-3.08a.266.266 0 0 0-.228-.286z"/><path style="fill:var(--color1, #000)" d="M13.665 8.255c.346.538 2.409.353 2.707.745.399.526-1.235 2.562-1.235 2.562l-.543-.29s.832-1.439.797-1.544c-.044-.13-2.308.181-2.921-.316-.477-.387-.241-1.157-.241-1.157h1.437z"/><path style="fill:var(--color1, #000)" d="M13.503 8.255c.302.661 2.764.416 3.114.993.28.463-.009 2.823-.009 2.823l-.653-.017s.004-2.007-.123-2.142c-.092-.101-2.707.13-3.359-.315-.556-.383-.241-1.338-.241-1.338h1.27v-.004z"/><path fill="#efbc90" style="fill:var(--color4, #efbc90)" d="m13.389 5.823.368 2.028-.175-.143 1.686.118-.013.261h-.14l-1.55-.021a.18.18 0 0 1-.175-.135v-.008l-.464-2.007-.052-.223.473-.088.044.219z"/><path style="fill:var(--color1, #000)" d="M12.658 5.87c-.035.484.289 1.746.806 2.18.306.257 1.323.084 1.323.084l.048-.383s-.762.109-.937-.316c-.175-.425-.285-1.586-.543-1.763-.219-.156-.679-.021-.696.198z"/><path fill="#dbc6af" style="fill:var(--color7, #dbc6af)" d="M12.907 5.419s.28.253.574.101c0 0 .066 1.018.18 1.435s.46 1.515.46 1.515l-2.098-.067c-.031-.925.372-1.965.885-2.983z"/><path style="fill:var(--color1, #000)" d="M12.806 5.335s-1.051 1.41-.902 2.954c0 0-.096.299 1.042.295s1.209-.156 1.209-.156a10.194 10.194 0 0 1-.683-2.908c.009 0-.42 0-.666-.185z"/><path fill="#f4caab" style="fill:var(--color5, #f4caab)" d="M13.148 6.139c-.123.181-.269.414-.408.652l-.034.063c-.05.082-.115.202-.178.324l-.02.042a2.996 2.996 0 0 0-.158.366l-.026.088-.022.097c-.013.067-.031.135-.039.202-.015.066-.04.206-.062.347l-.008.065c-.039.278-.075.555-.105.833l-.013.135-.271-.017.004-.135a18.276 18.276 0 0 1 .101-1.279c.009-.072.022-.143.031-.215l.022-.109c.009-.038.017-.08.031-.118.044-.152.096-.286.158-.421.057-.135.123-.265.188-.395.159-.317.298-.566.447-.809l-.027.047.118-.198.412.244-.14.189z"/><path style="fill:var(--color1, #000)" d="M12.671 5.655c-.376.324-.622 1.086-.806 1.721s-.101 1.611-.101 1.611l.416.034s.07-.989.254-1.41c.184-.421.946-1.33.889-1.628-.053-.265-.482-.471-.653-.328z"/><path fill="#f4caab" style="fill:var(--color5, #f4caab)" d="M11.786 10.132c-.092-.021-.162-.24-.123-.513.039-.253.175-.4.276-.383.215.038-.009.934-.153.896z"/><path fill="#f4caab" style="fill:var(--color5, #f4caab)" d="M12.062 9.787c.044-.004.079-.114.07-.253-.009-.13-.066-.21-.105-.21-.096.004-.026.471.035.463z"/><path fill="#fff" style="fill:var(--color2, #fff)" d="m17.239 12.715-.171-.029-.622-.231v.004s-.009.101-.136.122c-.096.013-.158-.008-.184-.025a.055.055 0 0 0-.013-.008c-.044 0-.075.067-.075.147 0 .025.004.05.009.072v.114h1.24v-.114c0-.03-.018-.05-.048-.05zm-1.914-.16-.114-.122-.342-.551-.004.004s-.07.076-.184.017a.272.272 0 0 1-.127-.126c0-.008-.004-.013-.004-.017-.031-.025-.101.008-.153.072a.244.244 0 0 0-.039.061l-.001.002-.07.088.977.732.074-.088c.009-.025.009-.055-.013-.072z"/><path fill="#efbc90" style="fill:var(--color4, #efbc90)" d="M15.688 7.788c-.013-.038-.127-.059-.272-.034-.131.025-.21.088-.202.13.022.093.491-.034.473-.097z"/><path fill="#004a62" style="fill:var(--color6, #004a62)" d="m17.519 20.521-.942-.088c-.25-.534-.328-.938-.25-1.346.088-.438.666-.593 1.078-.248.394.332.272 1.452.114 1.683z"/><path fill="#efbc90" style="fill:var(--color4, #efbc90)" d="m17.042 20.744-.53-.05.096-.968.324.029.11.989z"/><path fill="#f4caab" style="fill:var(--color5, #f4caab)" d="M17.576 19.317c.048.408-.057.8-.315.867-.241.059-.626-.194-.775-.602-.153-.433-.026-.732.329-.816.381-.093.705.11.762.551z"/><path fill="#004a62" style="fill:var(--color6, #004a62)" d="M16.945 18.665a.598.598 0 0 0-.311.034c-.171.067-.407.244-.495.682-.083.408.07.627-.333.98l.942.088c.149-.21-.022-.724-.053-.816.035-.08.079-.168.223-.194.311-.05.587-.303.596-.391.004-.084-.25-.354-.569-.383z"/><path fill="#f4caab" style="fill:var(--color5, #f4caab)" d="M16.854 19.502c.026.072-.004.143-.066.16-.061.021-.127-.021-.153-.088-.026-.072.004-.143.066-.16.057-.021.127.017.153.088z"/><path fill="#efbc90" style="fill:var(--color4, #efbc90)" d="m20.673 21.215-.031.021-2.659 1.872.679.77.355-.328 1.721-1.595 1.029 2.205.048.105.21-.076-.035-.11-.872-2.722a.218.218 0 0 0-.044-.084.295.295 0 0 0-.403-.059z"/><path fill="#efbc90" style="fill:var(--color4, #efbc90)" d="m20.883 21.476-.031.017-3.123 1.721.574.837.394-.286 2.286-1.645 2.107 2.142.171-.139-.07-.093-1.94-2.487a.292.292 0 0 0-.368-.067z"/><path style="fill:var(--color1, #000)" d="M18.452 22.414c.648.126 1.931-1.452 2.435-1.389.674.084 1.104 2.634 1.104 2.634l-.596.181s-.526-1.578-.626-1.624c-.131-.059-1.454 1.746-2.256 1.835-.622.067-1.047-.627-1.047-.627l.985-1.01z"/><path style="fill:var(--color1, #000)" d="M18.115 22.591c.679.316 2.404-1.41 3.061-1.186.53.181 1.905 2.171 1.905 2.171l-.512.396s-1.358-1.544-1.546-1.565c-.14-.017-1.988 1.792-2.79 1.856-.688.055-1.091-.875-1.091-.875l.972-.795z"/><path fill="#efbc90" style="fill:var(--color4, #efbc90)" d="m17.116 20.815 1.318 1.595-.228-.046 1.524-.656.118.236-.127.063-1.358.686a.192.192 0 0 1-.224-.038l-.009-.008-1.55-1.708.372-.299.162.177z"/><path style="fill:var(--color1, #000)" d="M16.503 21.189c.206.438 1.134 1.372 1.796 1.515.394.084 1.165-.509 1.165-.509l-.145-.353s-.609.442-.968.152c-.359-.29-1.025-1.25-1.336-1.288-.272-.038-.604.286-.512.484z"/><path fill="#76d3f4" style="fill:var(--color8, #76d3f4)" d="M16.551 20.727s.377.08.552-.198c0 0 .6.846.924 1.153.324.303 1.209 1.085 1.209 1.085l-1.853.98c-.521-.791-.731-1.885-.832-3.021z"/><path style="fill:var(--color1, #000)" d="M16.437 20.68s-.158 1.738.802 3c0 0 .079.307 1.06-.261.985-.568.963-.732.963-.732a10.846 10.846 0 0 1-2.146-2.18c0 .004-.368.215-.679.173z"/><path fill="#f4caab" style="fill:var(--color5, #f4caab)" d="m17.265 21.072 1.218 1.708-.223-.063 1.594-.564.101.244-.131.055-1.428.602a.19.19 0 0 1-.219-.054l-.004-.008-1.296-1.654-.145-.181.394-.274.14.189z"/><path style="fill:var(--color1, #000)" d="M16.621 21.408c.175.459 1.016 1.477 1.677 1.666.39.114 1.257-.45 1.257-.45l-.123-.37s-.648.408-.994.088c-.346-.32-.994-1.401-1.305-1.46-.276-.05-.596.32-.512.526z"/><path fill="#efbc90" style="fill:var(--color4, #efbc90)" d="M20.3 21.509c.044.084-.031.248-.201.362-.158.105-.32.076-.372-.008-.11-.181.508-.484.574-.353z"/><path fill="#efbc90" style="fill:var(--color4, #efbc90)" d="M20.081 21.421c-.031-.025-.14.017-.245.114-.096.093-.127.185-.096.215.066.067.394-.286.342-.328z"/><path fill="#f2f2f2" style="fill:var(--color9, #f2f2f2)" d="m22.989 24.185-.21-.034-.767-.278v.004s-.009.126-.166.151a.364.364 0 0 1-.223-.025c-.009-.008-.013-.008-.017-.008-.053 0-.092.08-.092.181 0 .034.004.063.013.088v.139l1.524-.017v-.14a.061.061 0 0 0-.061-.062z"/><path fill="#fff" style="fill:var(--color2, #fff)" d="m24.238 24.257-.21-.034-.767-.278v.004s-.009.126-.166.151a.364.364 0 0 1-.223-.025c-.009-.008-.013-.008-.017-.008-.053 0-.092.08-.092.181 0 .034.004.063.013.088v.139l1.524-.017v-.139a.073.073 0 0 0-.061-.063z"/><path style="fill:var(--color1, #000)" d="m21.316 20.95-.78-.278h-.004l-.07.008c-.004 0-.004.004-.009.004l-.294.804c0 .004-.004.004-.004.004l-.709.269.009.046c0 .004.004.004.004.008l.802.337h.009l.709-.269.039-.017c.004 0 .004-.004.004-.008l.004-.05.294-.854c.004.004 0-.004-.004-.004z"/><path fill="#fff" style="fill:var(--color2, #fff)" d="m21.203 20.975-.701-.244c-.018-.008-.035 0-.044.017l-.272.736.78.328.267-.774a.041.041 0 0 0 .003-.016.05.05 0 0 0-.033-.047z"/><path style="fill:var(--color1, #000)" d="m20.979 21.842-.819-.345-.709.273.819.345.71-.274z"/><path style="fill:var(--color1, #000)" d="m20.835 21.829-.657-.278-.333.122.653.278.337-.122zM20.243 21.884l-.276-.118-.144.05.28.118.14-.05z"/><path fill="#f4caab" style="fill:var(--color5, #f4caab)" d="M20.445 22.023c.035.088-.053.244-.237.341-.166.088-.328.046-.368-.042-.096-.185.548-.433.605-.299z"/><path fill="#f4caab" style="fill:var(--color5, #f4caab)" d="M20.23 21.918c-.031-.029-.14.004-.258.093-.105.08-.145.173-.118.206.066.072.425-.252.377-.299z"/><path fill="#004a62" style="fill:var(--color6, #004a62)" d="M16.74 6.812c-.044-.013-.088.008-.101.05l-.315.955h-.944a.077.077 0 0 0-.077.076c0 .042.035.076.079.076H16.386c.04 0 .072-.029.078-.067l.328-.997c.013-.034-.009-.08-.053-.093z"/><path fill="#fff" style="fill:var(--color2, #fff)" d="M16.328 7.818h.048l.306-.938h-.048l-.306.938z"/><path fill="#efbc90" style="fill:var(--color4, #efbc90)" d="M8.015 15.038h-.582v-1.069h.355l.228 1.069z"/><path fill="#f4caab" style="fill:var(--color5, #f4caab)" d="M8.444 13.427c.096.438.026.879-.25.976-.258.088-.705-.147-.911-.581-.215-.454-.109-.799.272-.925.407-.13.78.05.889.53z"/><path fill="#004a62" style="fill:var(--color6, #004a62)" d="M7.634 12.745c-.425.034-.657.4-.631.766.026.341.403.522.403.522s.123-.345.329-.4c.285-.076.162-.32.293-.349.14-.03.442-.135.438-.328-.193.004-.359-.248-.832-.21z"/><path fill="#f4caab" style="fill:var(--color5, #f4caab)" d="M7.678 13.7c.035.072.009.156-.053.181-.066.03-.145-.008-.175-.084-.035-.072-.009-.156.053-.181s.14.013.175.084z"/><path fill="#004a62" style="fill:var(--color6, #004a62)" d="M7.634 13.624s.031.475.127.652c.083.156.442.32.635-.055 0 0-.197.038-.175-.042.026-.093.228-.097.228-.097s.04 0 .048-.038a.38.38 0 0 0-.017-.135s-.267.093-.385.093c-.131 0-.25-.088-.364-.383h-.096v.004z"/><path fill="#efbc90" style="fill:var(--color4, #efbc90)" d="m9.333 24.072-.534-2.87-.364-1.414-.363-1.418-.123-.484-1.047.32.188.463.552 1.346c.184.45.372.9.552 1.351l.898 2.764.039.114.228-.055-.026-.118z"/><path fill="#efbc90" style="fill:var(--color4, #efbc90)" d="m7.402 17.899-.044.497-.236 2.802-2.321 1.043.083.21.118-.034 2.531-.736a.28.28 0 0 0 .193-.198l.009-.042.644-2.903.11-.484-1.086-.156z"/><path style="fill:var(--color1, #000)" d="m6.745 17.592 1.958.366.613 5.626-.657.088-1.914-6.08z"/><path style="fill:var(--color1, #000)" d="m6.648 17.967 1.975-.265s-.302 3.522-.893 3.972c-.328.248-2.159.669-2.159.669l-.197-.538s1.375-.534 1.493-.703c.123-.177-.219-3.135-.219-3.135z"/><path fill="#efbc90" style="fill:var(--color4, #efbc90)" d="m8.054 15.236 1.296 1.78-.237-.063 1.669-.606.11.257-.136.059-1.489.644a.193.193 0 0 1-.228-.055l-.004-.008-1.38-1.721-.153-.19.412-.29.14.193z"/><path style="fill:var(--color1, #000)" d="M7.38 15.593c.188.48 1.086 1.544 1.783 1.738.412.114 1.305-.488 1.305-.488l-.131-.387s-.679.433-1.042.101c-.364-.332-1.007-1.397-1.336-1.456-.289-.05-.661.273-.578.492z"/><path fill="#dbc6af" style="fill:var(--color7, #dbc6af)" d="M7.472 14.811s.307.257.609.084c0 0 .105 1.069.241 1.506s.539 1.582.539 1.582H6.645c-.057-.972.324-2.083.828-3.173z"/><path style="fill:var(--color1, #000)" d="M7.367 14.723s-1.06 1.523-.845 3.147c0 0-.092.32 1.113.273 1.204-.042 1.27-.202 1.27-.202a10.86 10.86 0 0 1-.824-3.046c.004.004-.447.017-.714-.173z"/><path fill="#f4caab" style="fill:var(--color5, #f4caab)" d="M7.713 15.48c-.149.252-.298.513-.434.774a6.508 6.508 0 0 0-.188.396 2.89 2.89 0 0 0-.149.395c-.009.034-.018.063-.026.097l-.022.105c-.013.072-.022.143-.035.215a6.183 6.183 0 0 0-.051.41l-.002.027c-.024.217-.049.522-.067.829l-.003.054-.009.143-.289-.008v-.143c0-.303.004-.598.018-.901.009-.151.013-.303.026-.454.004-.076.013-.152.022-.227l.017-.118c.009-.042.013-.084.026-.122.039-.16.088-.307.144-.45s.114-.286.18-.425c.127-.278.258-.551.403-.825l.114-.215.451.236-.127.206z"/><path style="fill:var(--color1, #000)" d="M7.192 14.992c-.381.358-.6 1.174-.766 1.847-.162.677-.031 1.704-.031 1.704l.438.017s.026-1.043.197-1.498c.171-.454.933-1.443.859-1.755-.066-.273-.526-.475-.696-.316z"/><path fill="#efbc90" style="fill:var(--color4, #efbc90)" d="M11.449 16.237c.035.093-.083.261-.298.358-.197.093-.372.042-.416-.046-.088-.202.661-.454.714-.311z"/><path fill="#f4caab" style="fill:var(--color5, #f4caab)" d="M6.806 19.342c.044-.013.061-.131.031-.274-.031-.135-.105-.21-.149-.202-.101.021.053.496.118.475z"/><path fill="#004a62" style="fill:var(--color6, #004a62)" d="M10.209 24.387s-.153-.038-.193-.055c-.171-.055-.6-.223-.6-.223s-.053.084-.188.097c-.096.013-.171-.021-.175-.021-.044 0-.079.063-.083.147 0 .025 0 .055.009.076l-.004.114 1.274.038.004-.118c.004-.025-.018-.05-.044-.055zm-5.242-1.081-.004-.194c.009-.168.053-.619.053-.619s-.096-.025-.153-.143c-.039-.088-.026-.164-.026-.164-.013-.038-.088-.055-.171-.034a.407.407 0 0 0-.074.029l-.114.029.337 1.182.118-.029c.022-.004.039-.029.035-.059zm5.933-6.601.085.034.388-.898-.085-.034-.388.898z"/><path fill="#efbc90" style="fill:var(--color4, #efbc90)" d="M11.168 16.128c-.031-.034-.149-.004-.276.084-.114.08-.158.177-.131.21.061.08.456-.244.407-.294z"/><path fill="#f4caab" style="fill:var(--color5, #f4caab)" d="M6.583 19.751c-.101-.008-.21-.223-.219-.513-.004-.269.114-.446.215-.446.232 0 .162.972.004.959z"/><path style="fill:var(--color1, #000)" d="M39.471 13.052h-3.622c-.206 0-.372-.16-.372-.358s.166-.358.372-.358h3.622c.206 0 .372.16.372.358s-.166.358-.372.358zM35.362 8.63h-.002a.375.375 0 0 1-.334-.204l-.001-.002a.348.348 0 0 1 .18-.471l2.956-1.325a.374.374 0 0 1 .49.173.348.348 0 0 1-.179.471L35.52 8.597a.445.445 0 0 1-.157.034zM38.319 18.804a.406.406 0 0 1-.16-.035l.003.001-2.956-1.325a.35.35 0 0 1-.18-.471.378.378 0 0 1 .493-.172l-.002-.001 2.956 1.325a.349.349 0 0 1 .179.471.372.372 0 0 1-.333.206z"/></symbol>

<symbol id="icon-acc3" viewBox="0 0 56 32"><path style="fill:var(--color1, #000)" d="M48.034 0H8.216C6.557 0 5.21 1.3 5.21 2.9v25.945c0 1.601 1.347 2.9 3.006 2.9h39.818c1.659 0 3.006-1.3 3.006-2.9V2.9C51.048 1.3 49.7 0 48.034 0z"/><path fill="#fff" style="fill:var(--color2, #fff)" d="M49.21 4.14v23.691c0 .21-.023.413-.07.608-.288 1.172-1.386 2.044-2.694 2.044H9.813c-1.527 0-2.765-1.187-2.765-2.652V4.14c0-1.465 1.238-2.652 2.765-2.652h36.633c1.526 0 2.764 1.188 2.764 2.652z"/><path style="fill:var(--color1, #000)" d="M49.21 24.164v3.667c0 .21-.023.413-.07.608a2.979 2.979 0 0 1-1.885.661c-1.62 0-2.936-1.27-2.936-2.833s1.316-2.832 2.936-2.832a3.029 3.029 0 0 1 1.955.729z"/><path style="fill:var(--color1, #000)" d="M0 27.951v.894c0 1.601 1.651 2.9 3.691 2.9h48.867c2.041 0 3.691-1.3 3.691-2.9v-.894H-.001z"/><path style="fill:var(--color1, #000)" opacity=".4" d="M48.057 12.706H30.652v.624h17.405v-.624zM48.057 14.351H30.652v.624h17.405v-.624zM48.057 15.989H30.652v.624h17.405v-.624zM48.057 17.628H30.652v.623h17.405v-.624zM48.057 19.265H30.652v.624h17.405v-.624z"/><path style="fill:var(--color1, #000)" opacity=".6" d="M38.627 8.197h-5.085v.579h5.085v-.579zM38.627 9.37h-5.085v.579h5.085V9.37z"/><path style="fill:var(--color1, #000)" opacity=".5" d="M48.361 8.197h-5.085v.579h5.085v-.579zM48.361 9.37h-5.085v.579h5.085V9.37z"/><path style="fill:var(--color1, #000)" d="M42.271 7.995h-2.048a.203.203 0 0 0-.203.195v1.315c0 .105.093.196.203.196h.631l.389.398.389-.398h.631c.109 0 .203-.09.203-.195V8.191c.008-.105-.086-.195-.195-.195zM32.412 8.033c-.008 0-.016-.008-.023-.008-.327-.105-.677.128-.802.443-.132-.316-.475-.556-.802-.443-.008 0-.016.008-.023.008-.397.15-.529.646-.28.999.28.383 1.106 1.074 1.106 1.074s.833-.691 1.106-1.074c.249-.353.109-.857-.281-.999z"/><path style="fill:var(--color1, #000)" opacity=".35" d="M24.858 3.441H13.005v.601h11.853v-.601zM33.541 4.794H13.005v.601h20.536v-.601z"/><path style="fill:var(--color1, #000)" opacity=".5" d="M10.459 5.808c.856 0 1.55-.67 1.55-1.495s-.694-1.495-1.55-1.495c-.856 0-1.55.669-1.55 1.495s.694 1.495 1.55 1.495z"/><path style="fill:var(--color1, #000)" opacity=".35" d="M24.858 24.067H13.005v.601h11.853v-.601zM33.541 25.412H13.005v.601h20.536v-.601z"/><path style="fill:var(--color1, #000)" opacity=".5" d="M10.459 26.433c.856 0 1.55-.669 1.55-1.495s-.694-1.495-1.55-1.495c-.856 0-1.55.669-1.55 1.495s.694 1.495 1.55 1.495z"/><path style="fill:var(--color1, #000)" d="M28.846 6.732H7.89v14.524h20.956V6.732z"/><path style="fill:var(--color1, #000)" d="M24.897 11.383c.736 0 1.332-.575 1.332-1.285s-.596-1.285-1.332-1.285c-.735 0-1.331.575-1.331 1.285s.596 1.285 1.331 1.285zM14.633 12.563l-6.105 8.694h12.211l-6.105-8.694z"/><path style="fill:var(--color1, #000)" d="m21.541 14.757-4.564 6.499h9.127l-4.564-6.5z"/><path fill="#004a62" style="fill:var(--color6, #004a62)" d="M49.397 7.221c.864-.601 1.908-.188 2.048.676.179 1.127-.047 2.029.242 2.772.452 1.157.327 2.292.327 2.292-1.184-1.556-2.406-.909-3.084-2.479-.218-.496-.366-2.69.467-3.261z"/><path fill="#e0ba90" style="fill:var(--color10, #e0ba90)" d="M49.739 11.008h1.036V9.1h-.631l-.405 1.909z"/><path fill="#e7c8aa" style="fill:var(--color11, #e7c8aa)" d="M48.976 8.13c-.171.781-.047 1.578.444 1.751.459.158 1.261-.263 1.627-1.037.382-.819.195-1.428-.483-1.653-.732-.248-1.394.075-1.589.939z"/><path fill="#e0ba90" style="fill:var(--color10, #e0ba90)" d="m47.605 27.23.693-4.861.864-5.733 1.916.398-.249.849-1.41 4.718-1.378 4.719-.062.21-.405-.083.031-.218z"/><path fill="#e0ba90" style="fill:var(--color10, #e0ba90)" d="m51.811 16.636.031.887.187 5.162 2.461 3.539-.327.248-.156-.158-2.983-3.118a.403.403 0 0 1-.109-.208v-.002l-.016-.075-.895-5.215-.148-.879 1.955-.18z"/><path style="fill:var(--color1, #000)" d="M51.461 16.47h-2.718l-1.176 9.122 1.581.218 2.313-9.339z"/><path style="fill:var(--color1, #000)" d="M52.2 16.47h-2.609s.475 5.831.864 6.514c.467.819 2.313 2.727 2.313 2.727l1.254-.932s-1.324-1.803-1.643-2.652c-.312-.857-.179-5.658-.179-5.658z"/><path fill="#e0ba90" style="fill:var(--color10, #e0ba90)" d="M49.529 11.549A19.62 19.62 0 0 1 49 13.243l.046-.146c-.093.255-.187.511-.288.751a5.308 5.308 0 0 1-.356.724l.014-.025c-.117.203-.296.413-.467.616-.179.203-.358.413-.553.608a33.39 33.39 0 0 1-1.162 1.159l-.014.014-.194.18.358.376.202-.173c.467-.395.88-.765 1.283-1.147l-.013.013c.213-.196.411-.392.602-.595l.006-.006c.101-.105.194-.21.296-.323.047-.06.093-.113.148-.173.047-.068.093-.127.14-.195.171-.255.304-.511.428-.774.1-.194.215-.451.319-.714l.023-.067c.161-.365.359-.891.537-1.425l.047-.161.14-.421-.895-.248-.117.458z"/><path style="fill:var(--color1, #000)" d="m47.154 15.854 1.137 1.225s1.114-1.548 1.651-2.51c.678-1.21 1.589-3.088.6-3.554-1.293-.616-1.604 2.69-1.994 3.336-.312.526-1.394 1.503-1.394 1.503z"/><path fill="#96d1f1" style="fill:var(--color12, #96d1f1)" d="M50.798 10.842s-.561.473-1.114.158c0 0-.195 1.969-.444 2.773-1.936 6.85-2.242 7.798-2.549 8.745l1.653-5.897 3.972.067c.109-1.803-.592-3.84-1.519-5.846z"/><path fill="#e7c8aa" style="fill:var(--color11, #e7c8aa)" d="M50.386 12.277c.451.374.852.73 1.24 1.099l-.01-.009c.197.191.385.379.569.571l.007.007c.176.183.342.379.495.585l.011.016c.039.053.07.098.101.15l.101.173c.062.113.133.233.195.353.124.24.249.481.366.729.121.223.348.715.566 1.211l.111.284.101.241.49-.18-.086-.248a36.648 36.648 0 0 0-.6-1.555c-.109-.255-.218-.511-.335-.767-.054-.127-.117-.255-.179-.383l-.101-.195-.117-.203c-.163-.255-.35-.481-.529-.699-.187-.218-.382-.428-.576-.639a25.4 25.4 0 0 0-1.215-1.195l-.327-.3-.623.669.343.286z"/><path style="fill:var(--color1, #000)" d="M50.939 10.617s1.939 2.803 1.542 5.785c0 0 .163.586-2.033.503-2.204-.083-2.328-.376-2.328-.376a20.19 20.19 0 0 0 1.511-5.598s.825.03 1.308-.316z"/><path style="fill:var(--color1, #000)" d="m52.909 16.583 1.659-.398s-.755-1.713-1.386-2.622c-.794-1.142-2.087-2.795-2.983-2.171-1.168.812 1.721 2.623 2.134 3.261.327.511.576 1.931.576 1.931z"/><path fill="#e7c8aa" style="fill:var(--color11, #e7c8aa)" d="M55.323 18.875c.156-.105.117-.541-.156-1.007-.249-.428-.608-.601-.771-.503-.366.203.693 1.668.927 1.51z"/><path fill="#e7c8aa" style="fill:var(--color11, #e7c8aa)" d="M54.568 18.431c-.078.015-.226-.15-.312-.406-.078-.241-.039-.428.039-.451.171-.06.397.826.273.857z"/><path fill="#e0ba90" style="fill:var(--color10, #e0ba90)" d="M44.911 18.311c.125.135.569.06 1.028-.248.42-.285.561-.646.452-.789-.257-.331-1.666.826-1.48 1.037z"/><path fill="#e0ba90" style="fill:var(--color10, #e0ba90)" d="M45.292 17.544c-.023-.075.133-.233.389-.338.242-.098.436-.082.467-.008.078.165-.818.466-.857.346z"/><path fill="#fff" style="fill:var(--color2, #fff)" d="m46.009 27.703.319-.053 1.168-.436v.008s.016.195.257.233a.553.553 0 0 0 .343-.045.098.098 0 0 1 .023-.015c.078 0 .14.12.14.278a.624.624 0 0 1-.016.135v.21h-2.336V27.8c.016-.052.054-.09.101-.098zm7.157-.03.195-.248.561-1.082.008.008s.148.135.35 0a.582.582 0 0 0 .226-.256c0-.015.008-.023.008-.03.054-.053.195 0 .296.113.031.038.062.075.078.113l.148.158-1.729 1.518-.148-.158a.12.12 0 0 1 .008-.136z"/><path fill="#004a62" style="fill:var(--color6, #004a62)" d="M50.324 6.965c.233 0 .397.023.599.12.319.157.748.548.833 1.42.078.812-.257 1.21.459 1.976.81.594 2.258.496 2.087 1.826-.163 1.33-2.001 1.157-2.43.496-.436-.669-.389-1.262-.631-1.683s-.662-.173-.872-.639c-.249-.436.179-1.412.257-1.585-.054-.165-.117-.346-.397-.413-.592-.158-1.083-.691-1.083-.872.008-.165.545-.646 1.176-.646z"/><path fill="#e7c8aa" style="fill:var(--color11, #e7c8aa)" d="M50.347 8.618c-.062.128-.016.278.093.323.117.053.257-.015.319-.15.062-.128.016-.278-.093-.323-.117-.053-.257.015-.319.15z"/></symbol>

<symbol id="icon-acc4" viewBox="0 0 41 32"><path style="fill:var(--color1, #000)" opacity=".4" d="M23.282 19.28c-.371.258-1.809 1.036-3.293 1.293 0 0 .659-.503-.166-.85-1.56.108-4.099.204-6.765.252l-1.087.018a272.87 272.87 0 0 1-3.082.024H8.39c-1.669-.006-3.165-.036-4.239-.096-.166-.012-.32-.018-.467-.03-.543-.042-.927-.096-1.113-.162-1.758-.617-3.638-3.269-1.848-4.485.448-.3 1.906-.497 3.881-.617h.013c.15-.011.357-.022.564-.029l.03-.001c.179-.006.358-.018.537-.024.083-.006.166-.006.249-.012l.575-.018c.064 0 .122-.006.185-.006.077 0 .154-.006.237-.006s.16-.006.243-.006c.147-.006.294-.006.441-.012.07 0 .147-.006.224-.006s.16 0 .237-.006c5.959-.09 13.516.24 15.121.617 3.306.796 1.669 3.03.019 4.162zM39.861 12.58c-.198.132-.716.21-1.464.246h-.045l-.109.006c-.665.03-1.49.03-2.417.006-.281-.006-.569-.012-.863-.024-.243-.006-.486-.018-.735-.024-.032 0-.07-.006-.102-.006-.332-.012-.665-.03-1.01-.048h-.013c-.262-.012-.531-.024-.793-.042-3.798-.204-8.024-.545-10.192-.695-.825.347-.537 1.263-.537 1.263-1.298-.461-1.279-1.748-1.745-1.742-2.372.03-2.698-3.82-.908-4.126 1.752-.3 10.262-.653 16.151-.371l.678.036c.026 0 .057.006.083.006.032 0 .064.006.09.006h.045c.358.024.71.048 1.042.078h.026c.115.012.224.018.332.03l.333.036.185.018c1.522.168 2.59.419 2.884.772.607.713-.038 3.994-.914 4.575zM34.957 27.483c-.102.018-.205.03-.307.042-.013 0-.032.006-.051.006a3.394 3.394 0 0 1-.275.012c-.218.006-.492.012-.812.012h-.154c-.665 0-1.515-.018-2.455-.048-3.843-.126-9.284-.461-10.684-.832-.141.575.236 1.353.236 1.353a5.752 5.752 0 0 1-1.976-1.868c-.524-.174-1.426-.287-1.752-.431-1.17-.527-1.279-2.76.013-3.341 1.125-.509 9.009-.647 14.527-.311.045 0 .096.006.141.006.07.006.147.012.217.012l.256.018c.141.012.275.018.409.03.208.014.373.029.538.047l-.058-.005c.262.024.518.048.761.072h.013c.23.024.454.048.659.078l.16.018c1.151.156 1.963.347 2.231.581 1.394 1.192.831 4.096-1.637 4.551z"/><path fill="#deb88e" style="fill:var(--color13, #deb88e)" d="m35.66 6.083 1.279-.084-.173-2.293-.78.054-.326 2.323z"/><path fill="#e5c6a8" style="fill:var(--color14, #e5c6a8)" d="M34.458 2.694c-.147.952.083 1.892.71 2.06.582.156 1.535-.419 1.912-1.377.403-1.012.115-1.725-.748-1.946-.914-.234-1.714.215-1.873 1.263z"/><path fill="#004a62" style="fill:var(--color6, #004a62)" d="M36.094 2.963c-.121-.383-.486-.545-.774-.629s-.786-.054-.799-.263.262-.916 1.496-.886c1.119.03 1.675.725 1.79 1.503.102.683-.454 1.335-.972 1.138-.518-.192-.595-.401-.742-.862z"/><path fill="#e5c6a8" style="fill:var(--color14, #e5c6a8)" d="M36.088 3.281c-.064.162.006.335.154.383s.313-.042.377-.21c.064-.162-.006-.335-.153-.383s-.313.048-.377.21z"/><path fill="#004a62" style="fill:var(--color6, #004a62)" d="M36.274.233c-.275.401-.166 1.132.358 1.449.531.317 1.279.096 1.554-.3s-.09-.748-.62-1.066c-.524-.317-1.017-.479-1.292-.084z"/><path fill="#deb88e" style="fill:var(--color13, #deb88e)" d="m36.35 6.628-.345.401-2.858 3.341-3.203-1.365-.281.533 3.414 1.706a.432.432 0 0 0 .511-.09l.013-.018 3.6-3.838-.85-.671z"/><path style="fill:var(--color1, #000)" d="M37.584 7.843c-.46.994-2.577 3.126-4.098 3.473-.902.204-2.717-1.114-2.717-1.114l.32-.802s1.426.976 2.244.305c.825-.671 2.327-2.856 3.043-2.952.639-.078 1.42.641 1.209 1.09z"/><path style="fill:var(--color1, #000)" d="M38.774 12.346c0 .228-.115.383-.377.479h-.045l-.109.006c-.665.03-1.49.03-2.417.006-.192.048-.384.096-.563.126a47.226 47.226 0 0 1-.838-.02l.077.002a4.953 4.953 0 0 1-.227-.02l.023.002c-.185-.024-.211-.072-.166-.144a.551.551 0 0 1 .064-.084c.032-.036.064-.078.102-.12.086-.105.172-.222.252-.343l.01-.016a.136.136 0 0 1 .025-.036c.313-.521.422-1.06.435-1.611a7.988 7.988 0 0 0-.026-.886c-.032-.449-.077-.898-.077-1.359a4.775 4.775 0 0 1 .167-1.299c.117-.392.281-.734.488-1.044l-.009.014h.121c.243-.006.799-.036 1.247-.246.088-.037.164-.081.233-.133l-.003.002c.249.365.505.928.742 1.611.486 1.425.882 3.371.869 5.114z"/><path fill="#e5c6a8" style="fill:var(--color14, #e5c6a8)" d="M37.354 11.819v-.024l-.307-4.659-.032-.515-1.119.09.058.509.499 4.335-3.357 1.168.204.563.313-.09 3.446-.976a.403.403 0 0 0 .294-.388v-.014.001z"/><path style="fill:var(--color1, #000)" d="M37.277 12.1c-.23.335-.85.575-1.458.731-.192.048-.384.096-.563.126-.499.096-.889.138-.889.138l-.051-.114-.032-.072-.064-.138-.038-.09-.141-.305-.038-.09s.249-.03.569-.126c.531-.156 1.247-.485 1.311-1.126.026-.281.007-.695-.026-1.156-.026-.335-.058-.694-.09-1.054-.045-.539-.077-1.066-.051-1.473.006-.078.013-.156.026-.222a.4.4 0 0 0 .013-.09c.032-.15.07-.269.134-.341.403-.479 1.535-.294 1.72.174.038.096.07.204.102.323.32 1.239.345 3.766-.435 4.904z"/><path fill="#deb88e" style="fill:var(--color13, #deb88e)" d="M28.633 8.556c-.102.186.064.563.46.815.364.233.742.174.857-.012.269-.407-1.151-1.096-1.317-.802z"/><path fill="#deb88e" style="fill:var(--color13, #deb88e)" d="M29.145 8.358c.077-.06.326.036.569.257.224.204.288.419.217.485-.153.156-.901-.653-.786-.742z"/><path fill="#e5c6a8" style="fill:var(--color14, #e5c6a8)" d="M31.855 13.334c.07.198.48.341.946.252.435-.084.646-.383.588-.587-.134-.461-1.643.024-1.535.335z"/><path fill="#e5c6a8" style="fill:var(--color14, #e5c6a8)" d="M32.06 12.849c.006-.09.256-.198.595-.204.313-.012.524.096.524.192.013.204-1.132.156-1.119.012z"/><path fill="#deb88e" style="fill:var(--color13, #deb88e)" d="m7.252 12.424-1.26-.108.224-2.269.774.072.262 2.305z"/><path fill="#e5c6a8" style="fill:var(--color14, #e5c6a8)" d="M8.531 9.095c.121.946-.128 1.874-.748 2.024-.582.144-1.509-.449-1.861-1.407-.371-1.012-.07-1.712.787-1.91.908-.21 1.688.252 1.822 1.293z"/><path fill="#004a62" style="fill:var(--color6, #004a62)" d="M6.945 9.388c.742-.12.62-.671.908-.754s.607.054.627-.156c.019-.204-.237-.916-1.464-.904-1.113.006-1.618.641-1.637 1.413-.019.724.543 1.245.767 1.185.345-.102.179-.683.799-.784z"/><path fill="#e5c6a8" style="fill:var(--color14, #e5c6a8)" d="M6.798 9.526c.058.162-.013.329-.153.377-.147.048-.307-.048-.371-.21-.058-.162.013-.329.154-.377.147-.048.313.048.371.21z"/><path fill="#004a62" style="fill:var(--color6, #004a62)" d="M6.229 8.287s-1.835-.701-2.5.114c-.735.898.102 1.761-.077 2.545-.128.539-1.017.928-1.17 1.766s.256 1.671.927 1.694c.978.036 1.406-.892 1.4-1.635-.006-.856-.473-1.251-.339-1.653.141-.401.428-.479.582-1.317.16-.832-.268-1.479 1.177-1.515z"/><path fill="#deb88e" style="fill:var(--color13, #deb88e)" d="M11.536 18.687a47.848 47.848 0 0 1-1.503-1.258 31.952 31.952 0 0 1-.722-.653c-.115-.108-.23-.221-.345-.335l-.16-.168c-.045-.054-.096-.102-.141-.162a6.775 6.775 0 0 1-.512-.754 14 14 0 0 1-.415-.727l-.045-.093a30.533 30.533 0 0 1-.825-1.7l-.211-.473-1.023.419.237.461c.3.587.614 1.156.953 1.724.173.281.345.563.531.838.192.275.39.551.627.82.057.066.121.132.192.198l.192.174a22.844 22.844 0 0 0 1.108.922l.056.042c.524.407 1.061.802 1.605 1.197l.256.186.396-.461-.249-.198z"/><path style="fill:var(--color1, #000)" d="M5.417 13.077c.115 1.09 1.266 2.521 2.244 3.682s2.749 2.263 2.986 2.311c.185.036.652-.533.633-.676-.013-.102-1.822-1.431-2.391-2.305-.569-.88-1.298-3.407-1.956-3.706-.582-.263-1.567.204-1.515.695z"/><path style="fill:var(--color1, #000)" d="M9.452 19.771s-.045.12-.556.245h-.499c.013.03.025.066.038.096-.428.072-1.036.132-1.899.162-1.509.06-2.129-.15-2.378-.353-.205-.168-.166-.329-.166-.329-.173-1.395.006-2.76.32-3.952 0-.006.006-.012.006-.024.109-.421.211-.751.327-1.074l-.027.086c.102-.3.211-.575.313-.838v-.006c.492-1.191.978-1.952.991-1.976.032.024.07.054.109.072.294.185.652.275.953.317.09.012.173.024.249.03.198.018.333.012.333.012.051.461.115.904.186 1.341.051.317.102.629.16.934.038.216.083.425.128.635.038.192.083.377.128.563.006.042.019.078.025.12l.173.683.096.353c.026.096.058.192.083.287.064.216.128.425.192.635.272.861.515 1.518.783 2.163l-.066-.181z"/><path fill="#deb88e" style="fill:var(--color13, #deb88e)" d="M13.122 20.202c-.141.162-.678.084-1.228-.263-.505-.317-.684-.737-.556-.91.288-.383 2.008.928 1.784 1.174z"/><path fill="#deb88e" style="fill:var(--color13, #deb88e)" d="M12.649 19.322c.025-.09-.16-.263-.473-.383-.288-.114-.524-.084-.563.006-.083.192.991.515 1.036.377z"/><path style="fill:var(--color1, #000)" d="M8.646 20.627s-4.175.293-4.891-.629c-.026-.03-.045-.072-.064-.114-.262-.629.09-2.467.62-4.245 0-.006.006-.012.006-.024.102-.335.205-.665.313-.988.142-.434.244-.712.352-.987l-.051.149v-.006c.358-.94.722-1.694.991-1.976l.109.042 1.253.467s-.013.144-.026.389a16.3 16.3 0 0 0-.026.922 15.778 15.778 0 0 0 .007.926l-.001-.027c.006.389.032.796.07 1.21.006.042.006.078.013.12.006.048.006.096.013.144.019.15.032.3.058.443.013.102.032.204.051.299.019.114.045.228.064.335.006.024.013.048.013.072.268 1.192.633 2.239.869 2.868.013.03.026.066.038.096.134.329.217.515.217.515z"/><path fill="#deb88e" style="fill:var(--color13, #deb88e)" d="m10.385 15.412-.32.06-3.485.671.332-2.916-.019-.473-1.042-.114-.026.509-.173 3.473v.024c0 .036 0 .078.013.12a.426.426 0 0 0 .518.281l4.335-1.06-.134-.575z"/><path fill="#deb88e" style="fill:var(--color13, #deb88e)" d="M11.613 15.46c.038.204-.249.509-.71.629-.422.114-.754-.06-.806-.263-.109-.461 1.458-.683 1.515-.365z"/><path fill="#deb88e" style="fill:var(--color13, #deb88e)" d="M11.204 15.1c-.051-.078-.32-.06-.62.078-.281.126-.409.311-.371.395.096.186 1.068-.347.991-.473z"/><path style="fill:var(--color1, #000)" d="M6.453 12.412c.908.18.671 1.353.614 1.778-.051.425-.403 1.533-.205 1.677s2.66-.491 2.749-.347c.096.138.198.677.134.796s-3.267 1.473-4.079.832c-.384-.305-.441-2.251-.454-2.646-.006-.395-.115-2.359 1.241-2.09z"/><path fill="#deb88e" style="fill:var(--color13, #deb88e)" d="m31.83 20.477 1.33-.168-.345-2.383-.812.102-.173 2.449z"/><path fill="#e5c6a8" style="fill:var(--color14, #e5c6a8)" d="M30.334 17.01c-.083 1.006.224 1.97.882 2.108.62.126 1.573-.533 1.899-1.557.345-1.078 0-1.808-.921-1.982-.965-.185-1.771.329-1.861 1.431z"/><path fill="#004a62" style="fill:var(--color6, #004a62)" d="M31.971 15.256c.978-.048 1.63.701 1.681 1.521.051.767-.754 1.281-.754 1.281s-.396-.736-.882-.796c-.678-.09-.473-.671-.787-.689-.326-.024-1.049-.174-1.1-.605.448-.048.742-.659 1.841-.713z"/><path fill="#e5c6a8" style="fill:var(--color14, #e5c6a8)" d="M32.182 17.4c-.057.174.026.347.179.389s.326-.066.377-.239c.057-.174-.026-.347-.179-.389s-.326.066-.377.239z"/><path fill="#004a62" style="fill:var(--color6, #004a62)" d="M32.252 17.214s.077 1.066-.077 1.497a.83.83 0 0 1-1.471.066s.467.03.39-.144c-.09-.204-.556-.15-.556-.15s-.09.006-.122-.066c-.038-.114-.006-.311-.006-.311s.646.126.908.096c.3-.036.543-.269.703-.958l.23-.03z"/><path fill="#deb88e" style="fill:var(--color13, #deb88e)" d="m32.137 20.675-.186.509-1.573 4.317-3.728-.282-.077.617.339.048 3.734.503a.449.449 0 0 0 .472-.255l.001-.003.006-.024 2.116-5.048-1.106-.383z"/><path style="fill:var(--color1, #000)" d="M33.684 21.549c-.102 1.15-1.381 3.988-2.788 4.826-.838.497-3.216-.27-3.216-.27l.032-.91s1.79.527 2.372-.407c.588-.934 1.304-3.622 1.995-3.946.607-.287 1.656.191 1.605.706z"/><path style="fill:var(--color1, #000)" d="M35.232 27.064c0 .168-.077.311-.275.425-.102.018-.205.03-.307.042-.013 0-.032.006-.051.006-.007.03-.007.054-.013.084a3.08 3.08 0 0 1-.268.048c-.218.03-.486.048-.806.054h-.153c0-.054.006-.108.006-.162-.665 0-1.515-.018-2.455-.048-.959-.228-.793-.545-.793-.545.064-.144.128-.287.179-.425.026-.066.051-.132.077-.192.39-1 .646-2.018.85-3.15.064-.359.128-.73.186-1.114.019-.144.045-.293.064-.443.058-.401.109-.82.166-1.263h.205c.294-.012.857-.066 1.292-.293.057-.03.109-.06.16-.096 0 0 .556.916 1.081 2.365.435 1.245.857 2.898.857 4.706z"/><path fill="#e5c6a8" style="fill:var(--color14, #e5c6a8)" d="M34.4 25.549a9.12 9.12 0 0 0-.185-1.048 16.632 16.632 0 0 0-.309-1.127l.034.127a31.84 31.84 0 0 0-.665-1.952l-.192-.509-1.1.401.218.497c.268.599.518 1.228.742 1.844.075.185.182.495.28.809l.034.125c.09.311.173.623.218.922.013.078.019.144.026.216l.013.239c.006.162.013.323.013.485 0 .329-.007.659-.019.988a52.335 52.335 0 0 1-.127 2.175l.012-.181-.026.317.659.066.045-.317c.096-.671.173-1.341.243-2.012.032-.335.057-.677.077-1.018.013-.174.013-.341.019-.515v-.263c.006-.084 0-.18-.006-.27z"/><path style="fill:var(--color1, #000)" d="M34.599 27.531c-.007.03-.007.054-.013.084-.141.862-.332 1.533-.332 1.533l-.109-.012-.71-.06-.185-.018s.07-.611.109-1.347c0-.054.006-.108.006-.162.026-.665.019-1.407-.096-1.886-.09-.365-.313-.886-.556-1.449-.134-.305-.275-.623-.403-.928-.185-.437-.345-.85-.422-1.186-.064-.258-.077-.461-.019-.599.122-.311.486-.545.85-.641.069-.021.15-.036.233-.042h.003c.249-.024.479.03.607.18.281.335.486.796.652 1.323.281.916.416 2.03.518 3.012.058.689-.026 1.497-.134 2.197z"/><path fill="#deb88e" style="fill:var(--color13, #deb88e)" d="M24.605 25.357c-.013.222.467.521 1.157.617.639.09 1.093-.114 1.125-.335.07-.497-2.263-.623-2.283-.282z"/><path fill="#deb88e" style="fill:var(--color13, #deb88e)" d="M25.647 24.986c.045-.09.326-.096.665.018.307.108.467.287.435.377-.083.204-1.17-.258-1.1-.395z"/><path fill="#e5c6a8" style="fill:var(--color14, #e5c6a8)" d="M33.697 31.824c.236-.012.499-.491.518-1.15.019-.605-.249-1-.486-1.006-.531-.006-.396 2.18-.032 2.156z"/><path fill="#e5c6a8" style="fill:var(--color14, #e5c6a8)" d="M33.185 30.902c-.096-.03-.141-.293-.057-.617.077-.3.249-.467.352-.449.224.048-.147 1.114-.294 1.066z"/></symbol>

<symbol id="icon-acc5" viewBox="0 0 48 32"><path style="fill:var(--color1, #000)" opacity=".39" d="M23.214 31.908c9.231 0 16.715-.742 16.715-1.657s-7.483-1.657-16.715-1.657S6.5 29.336 6.5 30.251s7.483 1.657 16.714 1.657z"/><path style="fill:var(--color1, #000)" opacity=".4" d="M22.22 19.626s2.639-8.493 6.068-13.319C31.722 1.486 35.414.025 35.414.025s-1.736 2.156-2.816 5.063c-1.086 2.912-1.338 6.02-3.047 8.836-2.59 4.262-7.331 5.702-7.331 5.702z"/><path style="fill:var(--color1, #000)" opacity=".4" d="M30.373 2.035s-2.214 1.849-3.316 4.126c-1.102 2.272-1.026 5.143-1.994 6.75 0 0 1.881-1.436 2.494-2.755.618-1.32.419-2.917.71-4.141.253-1.058 1.075-2.589 2.107-3.98zM13.68 25.898s-1.795-8.136-4.197-12.871C7.086 8.292 4.469 6.7 4.469 6.7s1.215 2.126 1.956 4.922c.742 2.801.898 5.738 2.091 8.483 1.8 4.156 5.165 5.793 5.165 5.793z"/><path style="fill:var(--color1, #000)" opacity=".4" d="M12.417 24.029s-2.166-5.043-4.3-7.823c-2.134-2.781-4.015-3.521-4.015-3.521s1.043 1.234 1.87 2.957c.827 1.718 1.29 3.592 2.397 5.234 1.682 2.469 4.047 3.154 4.047 3.154zM37.048 28.951c.527.136 1.537.257 2.069-.066.489-.297.328-.997.725-1.315.403-.317 1.817-.071 2.376-.398.666-.388-.075-1.254.543-1.461s2.306-.015 2.65-.433c.344-.418-.258-.66.661-1.31.779-.549 1.817-1.264 1.467-1.904-.371-.68-1.435-.222-2.08.217-.833.564-.93-.453-1.634-.327-.64.116-1.429 1.899-1.962 2.086-.537.191-1.118-.378-1.919.01s-.521 1.647-1 1.99c-.478.343-1.145-.156-1.833.327-.688.489-.065 2.584-.065 2.584z"/><path style="fill:var(--color1, #000)" d="M34.296 7.884H12.137c-1.204 0-2.182.917-2.182 2.045v13.843c0 1.128.978 2.045 2.182 2.045h6.852l4.23 4.161 4.23-4.161h6.852c1.204 0 2.182-.917 2.182-2.045V9.929c-.005-1.128-.984-2.045-2.188-2.045z"/><path fill="#fff" style="fill:var(--color2, #fff)" d="M26.766 12.509c-.029-.011-.058-.022-.094-.033-1.398-.455-2.902.532-3.464 1.865-.556-1.333-2.065-2.32-3.464-1.864a1.424 1.424 0 0 1-.094.033c-1.697.614-2.294 2.72-1.223 4.168 1.194 1.607 4.774 4.497 4.774 4.497s3.581-2.89 4.774-4.497c1.088-1.448.492-3.554-1.211-4.168z"/><path style="fill:var(--color1, #000)" d="M36.908 25.712c-1.645-.01-2.445 1.763-3.531 2.453-.978.62-3.988 1.285-3.875 2.559s6.32 1.803 8.239.322c1.919-1.481 1.145-5.32-.833-5.335z"/><path fill="#004a62" style="fill:var(--color6, #004a62)" d="m33.71 25.208 1.327-.121c.355-.735.468-1.295.349-1.859-.124-.605-.941-.816-1.526-.337-.548.458-.376 2.005-.151 2.317z"/><path fill="#e0ba90" style="fill:var(--color10, #e0ba90)" d="m34.387 25.515.742-.065-.134-1.335-.457.04-.151 1.36z"/><path fill="#e7c8aa" style="fill:var(--color11, #e7c8aa)" d="M33.63 23.555c-.07.559.081 1.103.446 1.194.344.081.887-.267 1.096-.831.221-.594.038-1.012-.467-1.123-.538-.126-1 .146-1.075.761z"/><path fill="#004a62" style="fill:var(--color6, #004a62)" d="M34.522 22.654a.932.932 0 0 1 .441.045c.242.091.575.333.699.937.113.564-.102.866.473 1.355l-1.327.121c-.21-.287.032-1.003.075-1.123-.048-.111-.107-.232-.312-.267-.435-.071-.828-.418-.838-.539-.021-.121.333-.489.79-.529z"/><path fill="#e7c8aa" style="fill:var(--color11, #e7c8aa)" d="M34.651 23.807c-.032.096.005.197.091.222s.183-.03.215-.126-.005-.197-.091-.222c-.081-.025-.183.03-.215.126z"/><path fill="#e0ba90" style="fill:var(--color10, #e0ba90)" d="m29.255 26.165.043.03 3.757 2.579-.956 1.063-.5-.453-2.435-2.201-1.521 3.189-.296-.106.048-.151 1.231-3.753a.345.345 0 0 1 .059-.116.435.435 0 0 1 .57-.081z"/><path fill="#e0ba90" style="fill:var(--color10, #e0ba90)" d="m28.954 26.528.043.025 4.407 2.378-.812 1.154-3.789-2.665-2.977 2.957-.242-.191.102-.126 2.741-3.426a.426.426 0 0 1 .527-.106z"/><path style="fill:var(--color1, #000)" d="M32.394 27.817c-.919.176-2.73-2.005-3.445-1.919-.956.116-1.558 3.632-1.558 3.632l.844.247s.742-2.176.887-2.242c.183-.086 2.059 2.408 3.187 2.529.881.096 1.483-.866 1.483-.866l-1.397-1.38z"/><path style="fill:var(--color1, #000)" d="M32.866 28.064c-.962.438-3.397-1.945-4.327-1.632-.752.247-2.693 2.992-2.693 2.992l.72.544s1.919-2.126 2.187-2.161c.199-.025 2.811 2.473 3.945 2.559.973.076 1.542-1.209 1.542-1.209l-1.376-1.093z"/><path fill="#e0ba90" style="fill:var(--color10, #e0ba90)" d="m34.275 25.616-1.859 2.201.322-.065-2.161-.907-.172.327.177.086 1.919.947a.265.265 0 0 0 .312-.055l.011-.01 2.187-2.353-.527-.413-.21.242z"/><path style="fill:var(--color1, #000)" d="M35.145 26.13c-.29.605-1.607 1.889-2.542 2.091-.554.116-1.65-.705-1.65-.705l.204-.489s.86.61 1.37.207 1.451-1.723 1.892-1.778c.387-.045.855.403.725.675z"/><path fill="#96d1f1" style="fill:var(--color12, #96d1f1)" d="M35.075 25.495s-.532.111-.779-.272c0 0-.849 1.169-1.306 1.587s-1.709 1.496-1.709 1.496l2.617 1.35c.736-1.083 1.037-2.599 1.177-4.161z"/><path style="fill:var(--color1, #000)" d="M35.237 25.435s.22 2.398-1.134 4.136c0 0-.108.423-1.499-.358s-1.365-1.007-1.365-1.007a15.138 15.138 0 0 0 3.031-3.007c.005 0 .527.292.967.237z"/><path fill="#e7c8aa" style="fill:var(--color11, #e7c8aa)" d="m34.065 25.974-1.725 2.353.317-.086-2.252-.781-.145.338.183.076 2.016.831c.113.045.236.01.306-.076l.011-.01 2.037-2.529-.559-.378-.188.262z"/><path style="fill:var(--color1, #000)" d="M34.978 26.432c-.252.635-1.435 2.035-2.37 2.297-.553.156-1.774-.62-1.774-.62l.172-.509s.919.559 1.403.121 1.403-1.93 1.843-2.01c.392-.071.838.438.725.72z"/><path fill="#e0ba90" style="fill:var(--color10, #e0ba90)" d="M29.776 26.573c-.065.116.043.343.285.499.226.141.451.101.527-.01.156-.252-.715-.665-.812-.488z"/><path fill="#e0ba90" style="fill:var(--color10, #e0ba90)" d="M30.088 26.452c.048-.035.199.02.349.156.14.126.177.257.134.297-.097.091-.553-.398-.484-.453z"/><path fill="#f1f1f1" style="fill:var(--color15, #f1f1f1)" d="m25.977 30.261.296-.045 1.086-.383v.01s.011.176.236.206a.549.549 0 0 0 .317-.035c.011-.01.022-.015.027-.015.07 0 .129.111.129.247a.293.293 0 0 1-.021.121v.191l-2.155-.02v-.191c0-.045.038-.081.086-.086z"/><path fill="#fff" style="fill:var(--color2, #fff)" d="m24.214 30.366.295-.045 1.086-.383v.01s.011.176.236.206a.549.549 0 0 0 .317-.035c.011-.01.021-.015.027-.015.07 0 .129.111.129.247a.29.29 0 0 1-.021.121v.192l-2.155-.02v-.191c.005-.045.038-.086.086-.086z"/><path style="fill:var(--color1, #000)" d="m28.341 25.802 1.102-.383h.005l.097.015c.005 0 .011.005.011.01l.414 1.108c0 .005.005.005.005.005l1 .373-.011.065c0 .005-.005.01-.005.01l-1.134.463h-.011l-1.053-.393c-.005 0-.005-.005-.011-.01l-.011-.071-.414-1.179.016-.015z"/><path fill="#fff" style="fill:var(--color2, #fff)" d="m28.503 25.833.989-.338c.022-.01.054 0 .059.025l.382 1.018-1.102.453-.376-1.068c-.005-.035.011-.076.049-.091z"/><path style="fill:var(--color1, #000)" d="m28.814 27.037 1.161-.479 1.005.373-1.155.479-1.01-.373z"/><path style="fill:var(--color1, #000)" d="m29.024 27.016.924-.383.473.166-.924.388-.473-.171zM29.857 27.092l.392-.166.204.071-.398.166-.199-.07z"/><path fill="#e7c8aa" style="fill:var(--color11, #e7c8aa)" d="M29.577 27.283c-.054.121.075.338.333.468.237.121.462.061.521-.055.134-.262-.774-.6-.855-.413z"/><path fill="#e7c8aa" style="fill:var(--color11, #e7c8aa)" d="M29.873 27.137c.043-.04.199.005.365.126.151.111.204.242.167.287-.086.096-.596-.353-.532-.413z"/><path fill="#e0ba90" style="fill:var(--color10, #e0ba90)" d="M7.848 19.027h-.725v-1.3h.446l.28 1.3z"/><path fill="#e7c8aa" style="fill:var(--color11, #e7c8aa)" d="M8.386 17.067c.123.534.032 1.073-.312 1.189-.322.111-.882-.181-1.14-.71-.268-.554-.14-.972.339-1.128.511-.161.978.065 1.113.65z"/><path fill="#004a62" style="fill:var(--color6, #004a62)" d="M7.376 16.236c-.527.04-.817.489-.785.932.032.413.505.635.505.635s.156-.418.414-.489c.355-.096.204-.393.371-.423.172-.035.548-.161.543-.398-.253.005-.457-.302-1.048-.257z"/><path fill="#e7c8aa" style="fill:var(--color11, #e7c8aa)" d="M7.429 17.4c.043.091.011.191-.065.222-.081.035-.177-.01-.22-.101s-.011-.192.064-.222c.075-.035.178.01.221.101z"/><path fill="#004a62" style="fill:var(--color6, #004a62)" d="M7.376 17.304s.038.579.156.796a.449.449 0 0 0 .795-.065s-.247.05-.22-.05c.032-.116.285-.116.285-.116s.048 0 .059-.045c.011-.065-.021-.166-.021-.166s-.333.111-.478.111c-.167 0-.312-.111-.452-.469h-.123v.005z"/><path fill="#e0ba90" style="fill:var(--color10, #e0ba90)" d="m9.493 30.034-.666-3.496-.451-1.723-.613-2.317-1.306.393.237.564.688 1.637c.231.549.462 1.093.688 1.642l1.123 3.365.049.141.285-.065-.032-.141z"/><path fill="#e0ba90" style="fill:var(--color10, #e0ba90)" d="m7.085 22.513-.054.605-.296 3.416-2.897 1.269.102.252.151-.04 3.16-.897a.337.337 0 0 0 .237-.242l.011-.05.801-3.536.134-.589-1.349-.186z"/><path style="fill:var(--color1, #000)" d="m6.263 22.14 2.445.443.763 6.851-.817.106-2.392-7.4z"/><path style="fill:var(--color1, #000)" d="m6.145 22.598 2.467-.322s-.376 4.292-1.118 4.836c-.408.302-2.693.816-2.693.816l-.247-.655s1.72-.65 1.859-.851c.161-.227-.269-3.823-.269-3.823z"/><path fill="#e0ba90" style="fill:var(--color10, #e0ba90)" d="m7.902 19.269 1.618 2.166-.296-.076 2.08-.741.14.312-2.026.856a.243.243 0 0 1-.284-.066l-.005-.01-1.72-2.096-.188-.232.511-.353.172.237z"/><path style="fill:var(--color1, #000)" d="M7.059 19.702c.236.584 1.359 1.879 2.225 2.116.516.141 1.628-.594 1.628-.594l-.161-.468s-.844.524-1.301.121c-.457-.403-1.258-1.698-1.671-1.768-.36-.066-.828.332-.72.594z"/><path fill="#d3c4ae" style="fill:var(--color16, #d3c4ae)" d="M7.177 18.755s.382.312.763.106c0 0 .129 1.305.301 1.834.172.534.672 1.929.672 1.929H6.145c-.081-1.194.403-2.544 1.032-3.869z"/><path style="fill:var(--color1, #000)" d="M7.042 18.644s-1.322 1.854-1.054 3.834c0 0-.113.388 1.387.337 1.499-.055 1.586-.247 1.586-.247a12.958 12.958 0 0 1-1.027-3.708c0-.005-.559.015-.892-.216z"/><path fill="#e7c8aa" style="fill:var(--color11, #e7c8aa)" d="M7.472 19.566c-.147.231-.325.539-.494.853l-.043.089c-.068.12-.147.277-.22.437l-.017.041c-.064.13-.128.288-.181.452l-.008.027-.032.116-.027.126c-.016.086-.032.171-.043.262a20.13 20.13 0 0 0-.148 1.546l-.003.066-.011.171-.36-.01v-.171c0-.368.005-.731.021-1.098l.032-.549c.005-.091.016-.186.027-.277l.021-.141c.011-.05.016-.101.032-.151.048-.196.113-.373.183-.549.108-.274.182-.445.259-.614l-.039.095c.194-.426.363-.755.543-1.076l-.038.074.14-.262.559.287-.156.257z"/><path style="fill:var(--color1, #000)" d="M6.822 18.971c-.478.438-.752 1.426-.957 2.252-.204.821-.038 2.075-.038 2.075l.548.02s.032-1.274.247-1.824c.215-.549 1.161-1.758 1.069-2.141-.081-.332-.655-.579-.871-.383z"/><path fill="#e0ba90" style="fill:var(--color10, #e0ba90)" d="M12.137 20.488c.043.111-.102.318-.371.438-.247.111-.468.05-.516-.06-.113-.247.822-.549.887-.378z"/><path fill="#e7c8aa" style="fill:var(--color11, #e7c8aa)" d="M6.059 24.765c-.129-.01-.263-.272-.274-.625-.005-.327.14-.539.269-.544.29.005.204 1.184.005 1.169z"/><path fill="#e7c8aa" style="fill:var(--color11, #e7c8aa)" d="M6.344 24.271c.054-.015.081-.156.038-.332-.038-.161-.129-.257-.188-.242-.123.02.07.599.151.574z"/><path fill="#004a62" style="fill:var(--color6, #004a62)" d="M10.59 30.417s-.188-.045-.242-.065c-.21-.071-.747-.277-.747-.277s-.064.101-.231.121c-.123.015-.215-.025-.215-.025-.054 0-.097.081-.102.181 0 .035 0 .065.011.091l-.005.141 1.591.045.005-.141a.079.079 0 0 0-.064-.071zm-6.547-1.32s-.005-.181-.005-.237c.011-.206.065-.751.065-.751s-.124-.03-.188-.176c-.048-.106-.032-.201-.038-.201-.016-.05-.108-.065-.215-.04a.497.497 0 0 0-.094.037l.003-.001-.145.035.419 1.441.145-.035a.06.06 0 0 0 .055-.06l-.001-.011zm7.407-8.037.104.041.485-1.093-.104-.041-.485 1.093z"/><path fill="#e0ba90" style="fill:var(--color10, #e0ba90)" d="M11.788 20.357c-.038-.04-.188-.005-.344.101-.145.101-.199.217-.167.257.081.096.57-.297.511-.358z"/><path style="fill:var(--color1, #000)" d="M40.149 14.77c0-.201.145-.343.349-.343s.344.141.344.343c0 .196-.134.342-.349.342a.33.33 0 0 1-.344-.343zM41.347 14.77c0-.201.145-.343.349-.343s.344.141.344.343c0 .196-.134.342-.35.342a.33.33 0 0 1-.344-.343zM42.546 14.77c0-.201.145-.343.349-.343s.344.141.344.343c0 .196-.134.342-.349.342a.33.33 0 0 1-.344-.343z"/></symbol>

</defs></svg>